%TF.GenerationSoftware,KiCad,Pcbnew,10.0.6*%
%TF.CreationDate,2026-09-21T19:11:03+05:30*%
%TF.ProjectId,Chronix_FINAL_0_WARNINGS,4368726f-6e69-4785-9f46-494e414c5f30,rev?*%
%TF.SameCoordinates,Original*%
%TF.FileFunction,Drillmap*%
%TF.FilePolarity,Positive*%
%FSLAX45Y45*%
G04 Gerber Fmt 4.5, Leading zero omitted, Abs format (unit mm)*
G04 Created by KiCad (PCBNEW 10.0.6) date 2026-09-21 19:11:03*
%MOMM*%
%LPD*%
G01*
G04 APERTURE LIST*
%ADD10C,0.050000*%
%ADD11C,0.200000*%
%ADD12C,0.170000*%
%ADD13C,0.400000*%
G04 APERTURE END LIST*
D10*
X11400000Y-6800000D02*
X17800000Y-6800000D01*
X17800000Y-15500000D01*
X11400000Y-15500000D01*
X11400000Y-6800000D01*
D11*
D12*
X11899000Y-7765000D02*
X12069000Y-7935000D01*
X12069000Y-7765000D02*
X11899000Y-7935000D01*
X11899000Y-9673000D02*
X12069000Y-9843000D01*
X12069000Y-9673000D02*
X11899000Y-9843000D01*
X11903000Y-11615000D02*
X12073000Y-11785000D01*
X12073000Y-11615000D02*
X11903000Y-11785000D01*
X12915000Y-7765000D02*
X13085000Y-7935000D01*
X13085000Y-7765000D02*
X12915000Y-7935000D01*
X12915000Y-9673000D02*
X13085000Y-9843000D01*
X13085000Y-9673000D02*
X12915000Y-9843000D01*
X12919000Y-11615000D02*
X13089000Y-11785000D01*
X13089000Y-11615000D02*
X12919000Y-11785000D01*
X13849000Y-7765000D02*
X14019000Y-7935000D01*
X14019000Y-7765000D02*
X13849000Y-7935000D01*
X13853000Y-9673000D02*
X14023000Y-9843000D01*
X14023000Y-9673000D02*
X13853000Y-9843000D01*
X13857000Y-11615000D02*
X14027000Y-11785000D01*
X14027000Y-11615000D02*
X13857000Y-11785000D01*
X14865000Y-7765000D02*
X15035000Y-7935000D01*
X15035000Y-7765000D02*
X14865000Y-7935000D01*
X14869000Y-9673000D02*
X15039000Y-9843000D01*
X15039000Y-9673000D02*
X14869000Y-9843000D01*
X14873000Y-11615000D02*
X15043000Y-11785000D01*
X15043000Y-11615000D02*
X14873000Y-11785000D01*
X15788000Y-7769000D02*
X15958000Y-7939000D01*
X15958000Y-7769000D02*
X15788000Y-7939000D01*
X15788000Y-9669000D02*
X15958000Y-9839000D01*
X15958000Y-9669000D02*
X15788000Y-9839000D01*
X15788000Y-11615000D02*
X15958000Y-11785000D01*
X15958000Y-11615000D02*
X15788000Y-11785000D01*
X16804000Y-7769000D02*
X16974000Y-7939000D01*
X16974000Y-7769000D02*
X16804000Y-7939000D01*
X16804000Y-9669000D02*
X16974000Y-9839000D01*
X16974000Y-9669000D02*
X16804000Y-9839000D01*
X16804000Y-11615000D02*
X16974000Y-11785000D01*
X16974000Y-11615000D02*
X16804000Y-11785000D01*
D13*
X12692000Y-7850000D02*
G75*
G02*
X12292000Y-7850000I-200000J0D01*
G01*
X12292000Y-7850000D02*
G75*
G02*
X12692000Y-7850000I200000J0D01*
G01*
X12692000Y-9758000D02*
G75*
G02*
X12292000Y-9758000I-200000J0D01*
G01*
X12292000Y-9758000D02*
G75*
G02*
X12692000Y-9758000I200000J0D01*
G01*
X12696000Y-11700000D02*
G75*
G02*
X12296000Y-11700000I-200000J0D01*
G01*
X12296000Y-11700000D02*
G75*
G02*
X12696000Y-11700000I200000J0D01*
G01*
X14642000Y-7850000D02*
G75*
G02*
X14242000Y-7850000I-200000J0D01*
G01*
X14242000Y-7850000D02*
G75*
G02*
X14642000Y-7850000I200000J0D01*
G01*
X14646000Y-9758000D02*
G75*
G02*
X14246000Y-9758000I-200000J0D01*
G01*
X14246000Y-9758000D02*
G75*
G02*
X14646000Y-9758000I200000J0D01*
G01*
X14650000Y-11700000D02*
G75*
G02*
X14250000Y-11700000I-200000J0D01*
G01*
X14250000Y-11700000D02*
G75*
G02*
X14650000Y-11700000I200000J0D01*
G01*
X16581000Y-7854000D02*
G75*
G02*
X16181000Y-7854000I-200000J0D01*
G01*
X16181000Y-7854000D02*
G75*
G02*
X16581000Y-7854000I200000J0D01*
G01*
X16581000Y-9754000D02*
G75*
G02*
X16181000Y-9754000I-200000J0D01*
G01*
X16181000Y-9754000D02*
G75*
G02*
X16581000Y-9754000I200000J0D01*
G01*
X16581000Y-11700000D02*
G75*
G02*
X16181000Y-11700000I-200000J0D01*
G01*
X16181000Y-11700000D02*
G75*
G02*
X16581000Y-11700000I200000J0D01*
G01*
D11*
X11658277Y-15813984D02*
X11658277Y-15613984D01*
X11658277Y-15613984D02*
X11705896Y-15613984D01*
X11705896Y-15613984D02*
X11734467Y-15623508D01*
X11734467Y-15623508D02*
X11753515Y-15642555D01*
X11753515Y-15642555D02*
X11763039Y-15661603D01*
X11763039Y-15661603D02*
X11772562Y-15699698D01*
X11772562Y-15699698D02*
X11772562Y-15728269D01*
X11772562Y-15728269D02*
X11763039Y-15766365D01*
X11763039Y-15766365D02*
X11753515Y-15785412D01*
X11753515Y-15785412D02*
X11734467Y-15804460D01*
X11734467Y-15804460D02*
X11705896Y-15813984D01*
X11705896Y-15813984D02*
X11658277Y-15813984D01*
X11858277Y-15813984D02*
X11858277Y-15680650D01*
X11858277Y-15718746D02*
X11867801Y-15699698D01*
X11867801Y-15699698D02*
X11877324Y-15690174D01*
X11877324Y-15690174D02*
X11896372Y-15680650D01*
X11896372Y-15680650D02*
X11915420Y-15680650D01*
X11982086Y-15813984D02*
X11982086Y-15680650D01*
X11982086Y-15613984D02*
X11972562Y-15623508D01*
X11972562Y-15623508D02*
X11982086Y-15633031D01*
X11982086Y-15633031D02*
X11991610Y-15623508D01*
X11991610Y-15623508D02*
X11982086Y-15613984D01*
X11982086Y-15613984D02*
X11982086Y-15633031D01*
X12105896Y-15813984D02*
X12086848Y-15804460D01*
X12086848Y-15804460D02*
X12077324Y-15785412D01*
X12077324Y-15785412D02*
X12077324Y-15613984D01*
X12210658Y-15813984D02*
X12191610Y-15804460D01*
X12191610Y-15804460D02*
X12182086Y-15785412D01*
X12182086Y-15785412D02*
X12182086Y-15613984D01*
X12439229Y-15813984D02*
X12439229Y-15613984D01*
X12439229Y-15613984D02*
X12505896Y-15756841D01*
X12505896Y-15756841D02*
X12572562Y-15613984D01*
X12572562Y-15613984D02*
X12572562Y-15813984D01*
X12753515Y-15813984D02*
X12753515Y-15709222D01*
X12753515Y-15709222D02*
X12743991Y-15690174D01*
X12743991Y-15690174D02*
X12724943Y-15680650D01*
X12724943Y-15680650D02*
X12686848Y-15680650D01*
X12686848Y-15680650D02*
X12667801Y-15690174D01*
X12753515Y-15804460D02*
X12734467Y-15813984D01*
X12734467Y-15813984D02*
X12686848Y-15813984D01*
X12686848Y-15813984D02*
X12667801Y-15804460D01*
X12667801Y-15804460D02*
X12658277Y-15785412D01*
X12658277Y-15785412D02*
X12658277Y-15766365D01*
X12658277Y-15766365D02*
X12667801Y-15747317D01*
X12667801Y-15747317D02*
X12686848Y-15737793D01*
X12686848Y-15737793D02*
X12734467Y-15737793D01*
X12734467Y-15737793D02*
X12753515Y-15728269D01*
X12848753Y-15680650D02*
X12848753Y-15880650D01*
X12848753Y-15690174D02*
X12867801Y-15680650D01*
X12867801Y-15680650D02*
X12905896Y-15680650D01*
X12905896Y-15680650D02*
X12924943Y-15690174D01*
X12924943Y-15690174D02*
X12934467Y-15699698D01*
X12934467Y-15699698D02*
X12943991Y-15718746D01*
X12943991Y-15718746D02*
X12943991Y-15775888D01*
X12943991Y-15775888D02*
X12934467Y-15794936D01*
X12934467Y-15794936D02*
X12924943Y-15804460D01*
X12924943Y-15804460D02*
X12905896Y-15813984D01*
X12905896Y-15813984D02*
X12867801Y-15813984D01*
X12867801Y-15813984D02*
X12848753Y-15804460D01*
X13029705Y-15794936D02*
X13039229Y-15804460D01*
X13039229Y-15804460D02*
X13029705Y-15813984D01*
X13029705Y-15813984D02*
X13020182Y-15804460D01*
X13020182Y-15804460D02*
X13029705Y-15794936D01*
X13029705Y-15794936D02*
X13029705Y-15813984D01*
X13029705Y-15690174D02*
X13039229Y-15699698D01*
X13039229Y-15699698D02*
X13029705Y-15709222D01*
X13029705Y-15709222D02*
X13020182Y-15699698D01*
X13020182Y-15699698D02*
X13029705Y-15690174D01*
X13029705Y-15690174D02*
X13029705Y-15709222D01*
D12*
X11227500Y-16057500D02*
X11397500Y-16227500D01*
X11397500Y-16057500D02*
X11227500Y-16227500D01*
D11*
X11763039Y-16233984D02*
X11648753Y-16233984D01*
X11705896Y-16233984D02*
X11705896Y-16033984D01*
X11705896Y-16033984D02*
X11686848Y-16062555D01*
X11686848Y-16062555D02*
X11667801Y-16081603D01*
X11667801Y-16081603D02*
X11648753Y-16091127D01*
X11848753Y-16214936D02*
X11858277Y-16224460D01*
X11858277Y-16224460D02*
X11848753Y-16233984D01*
X11848753Y-16233984D02*
X11839229Y-16224460D01*
X11839229Y-16224460D02*
X11848753Y-16214936D01*
X11848753Y-16214936D02*
X11848753Y-16233984D01*
X11924943Y-16033984D02*
X12058277Y-16033984D01*
X12058277Y-16033984D02*
X11972562Y-16233984D01*
X12172562Y-16033984D02*
X12191610Y-16033984D01*
X12191610Y-16033984D02*
X12210658Y-16043508D01*
X12210658Y-16043508D02*
X12220182Y-16053031D01*
X12220182Y-16053031D02*
X12229705Y-16072079D01*
X12229705Y-16072079D02*
X12239229Y-16110174D01*
X12239229Y-16110174D02*
X12239229Y-16157793D01*
X12239229Y-16157793D02*
X12229705Y-16195888D01*
X12229705Y-16195888D02*
X12220182Y-16214936D01*
X12220182Y-16214936D02*
X12210658Y-16224460D01*
X12210658Y-16224460D02*
X12191610Y-16233984D01*
X12191610Y-16233984D02*
X12172562Y-16233984D01*
X12172562Y-16233984D02*
X12153515Y-16224460D01*
X12153515Y-16224460D02*
X12143991Y-16214936D01*
X12143991Y-16214936D02*
X12134467Y-16195888D01*
X12134467Y-16195888D02*
X12124943Y-16157793D01*
X12124943Y-16157793D02*
X12124943Y-16110174D01*
X12124943Y-16110174D02*
X12134467Y-16072079D01*
X12134467Y-16072079D02*
X12143991Y-16053031D01*
X12143991Y-16053031D02*
X12153515Y-16043508D01*
X12153515Y-16043508D02*
X12172562Y-16033984D01*
X12363039Y-16033984D02*
X12382086Y-16033984D01*
X12382086Y-16033984D02*
X12401134Y-16043508D01*
X12401134Y-16043508D02*
X12410658Y-16053031D01*
X12410658Y-16053031D02*
X12420182Y-16072079D01*
X12420182Y-16072079D02*
X12429705Y-16110174D01*
X12429705Y-16110174D02*
X12429705Y-16157793D01*
X12429705Y-16157793D02*
X12420182Y-16195888D01*
X12420182Y-16195888D02*
X12410658Y-16214936D01*
X12410658Y-16214936D02*
X12401134Y-16224460D01*
X12401134Y-16224460D02*
X12382086Y-16233984D01*
X12382086Y-16233984D02*
X12363039Y-16233984D01*
X12363039Y-16233984D02*
X12343991Y-16224460D01*
X12343991Y-16224460D02*
X12334467Y-16214936D01*
X12334467Y-16214936D02*
X12324943Y-16195888D01*
X12324943Y-16195888D02*
X12315420Y-16157793D01*
X12315420Y-16157793D02*
X12315420Y-16110174D01*
X12315420Y-16110174D02*
X12324943Y-16072079D01*
X12324943Y-16072079D02*
X12334467Y-16053031D01*
X12334467Y-16053031D02*
X12343991Y-16043508D01*
X12343991Y-16043508D02*
X12363039Y-16033984D01*
X12515420Y-16233984D02*
X12515420Y-16100650D01*
X12515420Y-16119698D02*
X12524943Y-16110174D01*
X12524943Y-16110174D02*
X12543991Y-16100650D01*
X12543991Y-16100650D02*
X12572563Y-16100650D01*
X12572563Y-16100650D02*
X12591610Y-16110174D01*
X12591610Y-16110174D02*
X12601134Y-16129222D01*
X12601134Y-16129222D02*
X12601134Y-16233984D01*
X12601134Y-16129222D02*
X12610658Y-16110174D01*
X12610658Y-16110174D02*
X12629705Y-16100650D01*
X12629705Y-16100650D02*
X12658277Y-16100650D01*
X12658277Y-16100650D02*
X12677324Y-16110174D01*
X12677324Y-16110174D02*
X12686848Y-16129222D01*
X12686848Y-16129222D02*
X12686848Y-16233984D01*
X12782086Y-16233984D02*
X12782086Y-16100650D01*
X12782086Y-16119698D02*
X12791610Y-16110174D01*
X12791610Y-16110174D02*
X12810658Y-16100650D01*
X12810658Y-16100650D02*
X12839229Y-16100650D01*
X12839229Y-16100650D02*
X12858277Y-16110174D01*
X12858277Y-16110174D02*
X12867801Y-16129222D01*
X12867801Y-16129222D02*
X12867801Y-16233984D01*
X12867801Y-16129222D02*
X12877324Y-16110174D01*
X12877324Y-16110174D02*
X12896372Y-16100650D01*
X12896372Y-16100650D02*
X12924943Y-16100650D01*
X12924943Y-16100650D02*
X12943991Y-16110174D01*
X12943991Y-16110174D02*
X12953515Y-16129222D01*
X12953515Y-16129222D02*
X12953515Y-16233984D01*
X13343991Y-16024460D02*
X13172563Y-16281603D01*
X13601134Y-16033984D02*
X13620182Y-16033984D01*
X13620182Y-16033984D02*
X13639229Y-16043508D01*
X13639229Y-16043508D02*
X13648753Y-16053031D01*
X13648753Y-16053031D02*
X13658277Y-16072079D01*
X13658277Y-16072079D02*
X13667801Y-16110174D01*
X13667801Y-16110174D02*
X13667801Y-16157793D01*
X13667801Y-16157793D02*
X13658277Y-16195888D01*
X13658277Y-16195888D02*
X13648753Y-16214936D01*
X13648753Y-16214936D02*
X13639229Y-16224460D01*
X13639229Y-16224460D02*
X13620182Y-16233984D01*
X13620182Y-16233984D02*
X13601134Y-16233984D01*
X13601134Y-16233984D02*
X13582086Y-16224460D01*
X13582086Y-16224460D02*
X13572563Y-16214936D01*
X13572563Y-16214936D02*
X13563039Y-16195888D01*
X13563039Y-16195888D02*
X13553515Y-16157793D01*
X13553515Y-16157793D02*
X13553515Y-16110174D01*
X13553515Y-16110174D02*
X13563039Y-16072079D01*
X13563039Y-16072079D02*
X13572563Y-16053031D01*
X13572563Y-16053031D02*
X13582086Y-16043508D01*
X13582086Y-16043508D02*
X13601134Y-16033984D01*
X13753515Y-16214936D02*
X13763039Y-16224460D01*
X13763039Y-16224460D02*
X13753515Y-16233984D01*
X13753515Y-16233984D02*
X13743991Y-16224460D01*
X13743991Y-16224460D02*
X13753515Y-16214936D01*
X13753515Y-16214936D02*
X13753515Y-16233984D01*
X13886848Y-16033984D02*
X13905896Y-16033984D01*
X13905896Y-16033984D02*
X13924944Y-16043508D01*
X13924944Y-16043508D02*
X13934467Y-16053031D01*
X13934467Y-16053031D02*
X13943991Y-16072079D01*
X13943991Y-16072079D02*
X13953515Y-16110174D01*
X13953515Y-16110174D02*
X13953515Y-16157793D01*
X13953515Y-16157793D02*
X13943991Y-16195888D01*
X13943991Y-16195888D02*
X13934467Y-16214936D01*
X13934467Y-16214936D02*
X13924944Y-16224460D01*
X13924944Y-16224460D02*
X13905896Y-16233984D01*
X13905896Y-16233984D02*
X13886848Y-16233984D01*
X13886848Y-16233984D02*
X13867801Y-16224460D01*
X13867801Y-16224460D02*
X13858277Y-16214936D01*
X13858277Y-16214936D02*
X13848753Y-16195888D01*
X13848753Y-16195888D02*
X13839229Y-16157793D01*
X13839229Y-16157793D02*
X13839229Y-16110174D01*
X13839229Y-16110174D02*
X13848753Y-16072079D01*
X13848753Y-16072079D02*
X13858277Y-16053031D01*
X13858277Y-16053031D02*
X13867801Y-16043508D01*
X13867801Y-16043508D02*
X13886848Y-16033984D01*
X14124944Y-16033984D02*
X14086848Y-16033984D01*
X14086848Y-16033984D02*
X14067801Y-16043508D01*
X14067801Y-16043508D02*
X14058277Y-16053031D01*
X14058277Y-16053031D02*
X14039229Y-16081603D01*
X14039229Y-16081603D02*
X14029706Y-16119698D01*
X14029706Y-16119698D02*
X14029706Y-16195888D01*
X14029706Y-16195888D02*
X14039229Y-16214936D01*
X14039229Y-16214936D02*
X14048753Y-16224460D01*
X14048753Y-16224460D02*
X14067801Y-16233984D01*
X14067801Y-16233984D02*
X14105896Y-16233984D01*
X14105896Y-16233984D02*
X14124944Y-16224460D01*
X14124944Y-16224460D02*
X14134467Y-16214936D01*
X14134467Y-16214936D02*
X14143991Y-16195888D01*
X14143991Y-16195888D02*
X14143991Y-16148269D01*
X14143991Y-16148269D02*
X14134467Y-16129222D01*
X14134467Y-16129222D02*
X14124944Y-16119698D01*
X14124944Y-16119698D02*
X14105896Y-16110174D01*
X14105896Y-16110174D02*
X14067801Y-16110174D01*
X14067801Y-16110174D02*
X14048753Y-16119698D01*
X14048753Y-16119698D02*
X14039229Y-16129222D01*
X14039229Y-16129222D02*
X14029706Y-16148269D01*
X14315420Y-16033984D02*
X14277325Y-16033984D01*
X14277325Y-16033984D02*
X14258277Y-16043508D01*
X14258277Y-16043508D02*
X14248753Y-16053031D01*
X14248753Y-16053031D02*
X14229706Y-16081603D01*
X14229706Y-16081603D02*
X14220182Y-16119698D01*
X14220182Y-16119698D02*
X14220182Y-16195888D01*
X14220182Y-16195888D02*
X14229706Y-16214936D01*
X14229706Y-16214936D02*
X14239229Y-16224460D01*
X14239229Y-16224460D02*
X14258277Y-16233984D01*
X14258277Y-16233984D02*
X14296372Y-16233984D01*
X14296372Y-16233984D02*
X14315420Y-16224460D01*
X14315420Y-16224460D02*
X14324944Y-16214936D01*
X14324944Y-16214936D02*
X14334467Y-16195888D01*
X14334467Y-16195888D02*
X14334467Y-16148269D01*
X14334467Y-16148269D02*
X14324944Y-16129222D01*
X14324944Y-16129222D02*
X14315420Y-16119698D01*
X14315420Y-16119698D02*
X14296372Y-16110174D01*
X14296372Y-16110174D02*
X14258277Y-16110174D01*
X14258277Y-16110174D02*
X14239229Y-16119698D01*
X14239229Y-16119698D02*
X14229706Y-16129222D01*
X14229706Y-16129222D02*
X14220182Y-16148269D01*
X14429706Y-16233984D02*
X14467801Y-16233984D01*
X14467801Y-16233984D02*
X14486848Y-16224460D01*
X14486848Y-16224460D02*
X14496372Y-16214936D01*
X14496372Y-16214936D02*
X14515420Y-16186365D01*
X14515420Y-16186365D02*
X14524944Y-16148269D01*
X14524944Y-16148269D02*
X14524944Y-16072079D01*
X14524944Y-16072079D02*
X14515420Y-16053031D01*
X14515420Y-16053031D02*
X14505896Y-16043508D01*
X14505896Y-16043508D02*
X14486848Y-16033984D01*
X14486848Y-16033984D02*
X14448753Y-16033984D01*
X14448753Y-16033984D02*
X14429706Y-16043508D01*
X14429706Y-16043508D02*
X14420182Y-16053031D01*
X14420182Y-16053031D02*
X14410658Y-16072079D01*
X14410658Y-16072079D02*
X14410658Y-16119698D01*
X14410658Y-16119698D02*
X14420182Y-16138746D01*
X14420182Y-16138746D02*
X14429706Y-16148269D01*
X14429706Y-16148269D02*
X14448753Y-16157793D01*
X14448753Y-16157793D02*
X14486848Y-16157793D01*
X14486848Y-16157793D02*
X14505896Y-16148269D01*
X14505896Y-16148269D02*
X14515420Y-16138746D01*
X14515420Y-16138746D02*
X14524944Y-16119698D01*
X14601134Y-16033984D02*
X14601134Y-16072079D01*
X14677325Y-16033984D02*
X14677325Y-16072079D01*
X14972563Y-16310174D02*
X14963039Y-16300650D01*
X14963039Y-16300650D02*
X14943991Y-16272079D01*
X14943991Y-16272079D02*
X14934468Y-16253031D01*
X14934468Y-16253031D02*
X14924944Y-16224460D01*
X14924944Y-16224460D02*
X14915420Y-16176841D01*
X14915420Y-16176841D02*
X14915420Y-16138746D01*
X14915420Y-16138746D02*
X14924944Y-16091127D01*
X14924944Y-16091127D02*
X14934468Y-16062555D01*
X14934468Y-16062555D02*
X14943991Y-16043508D01*
X14943991Y-16043508D02*
X14963039Y-16014936D01*
X14963039Y-16014936D02*
X14972563Y-16005412D01*
X15153515Y-16233984D02*
X15039229Y-16233984D01*
X15096372Y-16233984D02*
X15096372Y-16033984D01*
X15096372Y-16033984D02*
X15077325Y-16062555D01*
X15077325Y-16062555D02*
X15058277Y-16081603D01*
X15058277Y-16081603D02*
X15039229Y-16091127D01*
X15267801Y-16119698D02*
X15248753Y-16110174D01*
X15248753Y-16110174D02*
X15239229Y-16100650D01*
X15239229Y-16100650D02*
X15229706Y-16081603D01*
X15229706Y-16081603D02*
X15229706Y-16072079D01*
X15229706Y-16072079D02*
X15239229Y-16053031D01*
X15239229Y-16053031D02*
X15248753Y-16043508D01*
X15248753Y-16043508D02*
X15267801Y-16033984D01*
X15267801Y-16033984D02*
X15305896Y-16033984D01*
X15305896Y-16033984D02*
X15324944Y-16043508D01*
X15324944Y-16043508D02*
X15334468Y-16053031D01*
X15334468Y-16053031D02*
X15343991Y-16072079D01*
X15343991Y-16072079D02*
X15343991Y-16081603D01*
X15343991Y-16081603D02*
X15334468Y-16100650D01*
X15334468Y-16100650D02*
X15324944Y-16110174D01*
X15324944Y-16110174D02*
X15305896Y-16119698D01*
X15305896Y-16119698D02*
X15267801Y-16119698D01*
X15267801Y-16119698D02*
X15248753Y-16129222D01*
X15248753Y-16129222D02*
X15239229Y-16138746D01*
X15239229Y-16138746D02*
X15229706Y-16157793D01*
X15229706Y-16157793D02*
X15229706Y-16195888D01*
X15229706Y-16195888D02*
X15239229Y-16214936D01*
X15239229Y-16214936D02*
X15248753Y-16224460D01*
X15248753Y-16224460D02*
X15267801Y-16233984D01*
X15267801Y-16233984D02*
X15305896Y-16233984D01*
X15305896Y-16233984D02*
X15324944Y-16224460D01*
X15324944Y-16224460D02*
X15334468Y-16214936D01*
X15334468Y-16214936D02*
X15343991Y-16195888D01*
X15343991Y-16195888D02*
X15343991Y-16157793D01*
X15343991Y-16157793D02*
X15334468Y-16138746D01*
X15334468Y-16138746D02*
X15324944Y-16129222D01*
X15324944Y-16129222D02*
X15305896Y-16119698D01*
X15582087Y-16233984D02*
X15582087Y-16033984D01*
X15667801Y-16233984D02*
X15667801Y-16129222D01*
X15667801Y-16129222D02*
X15658277Y-16110174D01*
X15658277Y-16110174D02*
X15639230Y-16100650D01*
X15639230Y-16100650D02*
X15610658Y-16100650D01*
X15610658Y-16100650D02*
X15591610Y-16110174D01*
X15591610Y-16110174D02*
X15582087Y-16119698D01*
X15791610Y-16233984D02*
X15772563Y-16224460D01*
X15772563Y-16224460D02*
X15763039Y-16214936D01*
X15763039Y-16214936D02*
X15753515Y-16195888D01*
X15753515Y-16195888D02*
X15753515Y-16138746D01*
X15753515Y-16138746D02*
X15763039Y-16119698D01*
X15763039Y-16119698D02*
X15772563Y-16110174D01*
X15772563Y-16110174D02*
X15791610Y-16100650D01*
X15791610Y-16100650D02*
X15820182Y-16100650D01*
X15820182Y-16100650D02*
X15839230Y-16110174D01*
X15839230Y-16110174D02*
X15848753Y-16119698D01*
X15848753Y-16119698D02*
X15858277Y-16138746D01*
X15858277Y-16138746D02*
X15858277Y-16195888D01*
X15858277Y-16195888D02*
X15848753Y-16214936D01*
X15848753Y-16214936D02*
X15839230Y-16224460D01*
X15839230Y-16224460D02*
X15820182Y-16233984D01*
X15820182Y-16233984D02*
X15791610Y-16233984D01*
X15972563Y-16233984D02*
X15953515Y-16224460D01*
X15953515Y-16224460D02*
X15943991Y-16205412D01*
X15943991Y-16205412D02*
X15943991Y-16033984D01*
X16124944Y-16224460D02*
X16105896Y-16233984D01*
X16105896Y-16233984D02*
X16067801Y-16233984D01*
X16067801Y-16233984D02*
X16048753Y-16224460D01*
X16048753Y-16224460D02*
X16039230Y-16205412D01*
X16039230Y-16205412D02*
X16039230Y-16129222D01*
X16039230Y-16129222D02*
X16048753Y-16110174D01*
X16048753Y-16110174D02*
X16067801Y-16100650D01*
X16067801Y-16100650D02*
X16105896Y-16100650D01*
X16105896Y-16100650D02*
X16124944Y-16110174D01*
X16124944Y-16110174D02*
X16134468Y-16129222D01*
X16134468Y-16129222D02*
X16134468Y-16148269D01*
X16134468Y-16148269D02*
X16039230Y-16167317D01*
X16210658Y-16224460D02*
X16229706Y-16233984D01*
X16229706Y-16233984D02*
X16267801Y-16233984D01*
X16267801Y-16233984D02*
X16286849Y-16224460D01*
X16286849Y-16224460D02*
X16296372Y-16205412D01*
X16296372Y-16205412D02*
X16296372Y-16195888D01*
X16296372Y-16195888D02*
X16286849Y-16176841D01*
X16286849Y-16176841D02*
X16267801Y-16167317D01*
X16267801Y-16167317D02*
X16239230Y-16167317D01*
X16239230Y-16167317D02*
X16220182Y-16157793D01*
X16220182Y-16157793D02*
X16210658Y-16138746D01*
X16210658Y-16138746D02*
X16210658Y-16129222D01*
X16210658Y-16129222D02*
X16220182Y-16110174D01*
X16220182Y-16110174D02*
X16239230Y-16100650D01*
X16239230Y-16100650D02*
X16267801Y-16100650D01*
X16267801Y-16100650D02*
X16286849Y-16110174D01*
X16363039Y-16310174D02*
X16372563Y-16300650D01*
X16372563Y-16300650D02*
X16391611Y-16272079D01*
X16391611Y-16272079D02*
X16401134Y-16253031D01*
X16401134Y-16253031D02*
X16410658Y-16224460D01*
X16410658Y-16224460D02*
X16420182Y-16176841D01*
X16420182Y-16176841D02*
X16420182Y-16138746D01*
X16420182Y-16138746D02*
X16410658Y-16091127D01*
X16410658Y-16091127D02*
X16401134Y-16062555D01*
X16401134Y-16062555D02*
X16391611Y-16043508D01*
X16391611Y-16043508D02*
X16372563Y-16014936D01*
X16372563Y-16014936D02*
X16363039Y-16005412D01*
X16724944Y-16310174D02*
X16715420Y-16300650D01*
X16715420Y-16300650D02*
X16696372Y-16272079D01*
X16696372Y-16272079D02*
X16686849Y-16253031D01*
X16686849Y-16253031D02*
X16677325Y-16224460D01*
X16677325Y-16224460D02*
X16667801Y-16176841D01*
X16667801Y-16176841D02*
X16667801Y-16138746D01*
X16667801Y-16138746D02*
X16677325Y-16091127D01*
X16677325Y-16091127D02*
X16686849Y-16062555D01*
X16686849Y-16062555D02*
X16696372Y-16043508D01*
X16696372Y-16043508D02*
X16715420Y-16014936D01*
X16715420Y-16014936D02*
X16724944Y-16005412D01*
X16801134Y-16100650D02*
X16801134Y-16233984D01*
X16801134Y-16119698D02*
X16810658Y-16110174D01*
X16810658Y-16110174D02*
X16829706Y-16100650D01*
X16829706Y-16100650D02*
X16858277Y-16100650D01*
X16858277Y-16100650D02*
X16877325Y-16110174D01*
X16877325Y-16110174D02*
X16886849Y-16129222D01*
X16886849Y-16129222D02*
X16886849Y-16233984D01*
X17010658Y-16233984D02*
X16991611Y-16224460D01*
X16991611Y-16224460D02*
X16982087Y-16214936D01*
X16982087Y-16214936D02*
X16972563Y-16195888D01*
X16972563Y-16195888D02*
X16972563Y-16138746D01*
X16972563Y-16138746D02*
X16982087Y-16119698D01*
X16982087Y-16119698D02*
X16991611Y-16110174D01*
X16991611Y-16110174D02*
X17010658Y-16100650D01*
X17010658Y-16100650D02*
X17039230Y-16100650D01*
X17039230Y-16100650D02*
X17058277Y-16110174D01*
X17058277Y-16110174D02*
X17067801Y-16119698D01*
X17067801Y-16119698D02*
X17077325Y-16138746D01*
X17077325Y-16138746D02*
X17077325Y-16195888D01*
X17077325Y-16195888D02*
X17067801Y-16214936D01*
X17067801Y-16214936D02*
X17058277Y-16224460D01*
X17058277Y-16224460D02*
X17039230Y-16233984D01*
X17039230Y-16233984D02*
X17010658Y-16233984D01*
X17134468Y-16100650D02*
X17210658Y-16100650D01*
X17163039Y-16033984D02*
X17163039Y-16205412D01*
X17163039Y-16205412D02*
X17172563Y-16224460D01*
X17172563Y-16224460D02*
X17191611Y-16233984D01*
X17191611Y-16233984D02*
X17210658Y-16233984D01*
X17429706Y-16100650D02*
X17429706Y-16300650D01*
X17429706Y-16110174D02*
X17448754Y-16100650D01*
X17448754Y-16100650D02*
X17486849Y-16100650D01*
X17486849Y-16100650D02*
X17505896Y-16110174D01*
X17505896Y-16110174D02*
X17515420Y-16119698D01*
X17515420Y-16119698D02*
X17524944Y-16138746D01*
X17524944Y-16138746D02*
X17524944Y-16195888D01*
X17524944Y-16195888D02*
X17515420Y-16214936D01*
X17515420Y-16214936D02*
X17505896Y-16224460D01*
X17505896Y-16224460D02*
X17486849Y-16233984D01*
X17486849Y-16233984D02*
X17448754Y-16233984D01*
X17448754Y-16233984D02*
X17429706Y-16224460D01*
X17639230Y-16233984D02*
X17620182Y-16224460D01*
X17620182Y-16224460D02*
X17610658Y-16205412D01*
X17610658Y-16205412D02*
X17610658Y-16033984D01*
X17801135Y-16233984D02*
X17801135Y-16129222D01*
X17801135Y-16129222D02*
X17791611Y-16110174D01*
X17791611Y-16110174D02*
X17772563Y-16100650D01*
X17772563Y-16100650D02*
X17734468Y-16100650D01*
X17734468Y-16100650D02*
X17715420Y-16110174D01*
X17801135Y-16224460D02*
X17782087Y-16233984D01*
X17782087Y-16233984D02*
X17734468Y-16233984D01*
X17734468Y-16233984D02*
X17715420Y-16224460D01*
X17715420Y-16224460D02*
X17705896Y-16205412D01*
X17705896Y-16205412D02*
X17705896Y-16186365D01*
X17705896Y-16186365D02*
X17715420Y-16167317D01*
X17715420Y-16167317D02*
X17734468Y-16157793D01*
X17734468Y-16157793D02*
X17782087Y-16157793D01*
X17782087Y-16157793D02*
X17801135Y-16148269D01*
X17867801Y-16100650D02*
X17943992Y-16100650D01*
X17896373Y-16033984D02*
X17896373Y-16205412D01*
X17896373Y-16205412D02*
X17905896Y-16224460D01*
X17905896Y-16224460D02*
X17924944Y-16233984D01*
X17924944Y-16233984D02*
X17943992Y-16233984D01*
X18086849Y-16224460D02*
X18067801Y-16233984D01*
X18067801Y-16233984D02*
X18029706Y-16233984D01*
X18029706Y-16233984D02*
X18010658Y-16224460D01*
X18010658Y-16224460D02*
X18001135Y-16205412D01*
X18001135Y-16205412D02*
X18001135Y-16129222D01*
X18001135Y-16129222D02*
X18010658Y-16110174D01*
X18010658Y-16110174D02*
X18029706Y-16100650D01*
X18029706Y-16100650D02*
X18067801Y-16100650D01*
X18067801Y-16100650D02*
X18086849Y-16110174D01*
X18086849Y-16110174D02*
X18096373Y-16129222D01*
X18096373Y-16129222D02*
X18096373Y-16148269D01*
X18096373Y-16148269D02*
X18001135Y-16167317D01*
X18267801Y-16233984D02*
X18267801Y-16033984D01*
X18267801Y-16224460D02*
X18248754Y-16233984D01*
X18248754Y-16233984D02*
X18210658Y-16233984D01*
X18210658Y-16233984D02*
X18191611Y-16224460D01*
X18191611Y-16224460D02*
X18182087Y-16214936D01*
X18182087Y-16214936D02*
X18172563Y-16195888D01*
X18172563Y-16195888D02*
X18172563Y-16138746D01*
X18172563Y-16138746D02*
X18182087Y-16119698D01*
X18182087Y-16119698D02*
X18191611Y-16110174D01*
X18191611Y-16110174D02*
X18210658Y-16100650D01*
X18210658Y-16100650D02*
X18248754Y-16100650D01*
X18248754Y-16100650D02*
X18267801Y-16110174D01*
X18343992Y-16310174D02*
X18353516Y-16300650D01*
X18353516Y-16300650D02*
X18372563Y-16272079D01*
X18372563Y-16272079D02*
X18382087Y-16253031D01*
X18382087Y-16253031D02*
X18391611Y-16224460D01*
X18391611Y-16224460D02*
X18401135Y-16176841D01*
X18401135Y-16176841D02*
X18401135Y-16138746D01*
X18401135Y-16138746D02*
X18391611Y-16091127D01*
X18391611Y-16091127D02*
X18382087Y-16062555D01*
X18382087Y-16062555D02*
X18372563Y-16043508D01*
X18372563Y-16043508D02*
X18353516Y-16014936D01*
X18353516Y-16014936D02*
X18343992Y-16005412D01*
X11397500Y-16432500D02*
G75*
G02*
X11197500Y-16432500I-100000J0D01*
G01*
X11197500Y-16432500D02*
G75*
G02*
X11397500Y-16432500I100000J0D01*
G01*
X11743991Y-16390650D02*
X11743991Y-16523984D01*
X11696372Y-16314460D02*
X11648753Y-16457317D01*
X11648753Y-16457317D02*
X11772562Y-16457317D01*
X11848753Y-16504936D02*
X11858277Y-16514460D01*
X11858277Y-16514460D02*
X11848753Y-16523984D01*
X11848753Y-16523984D02*
X11839229Y-16514460D01*
X11839229Y-16514460D02*
X11848753Y-16504936D01*
X11848753Y-16504936D02*
X11848753Y-16523984D01*
X11982086Y-16323984D02*
X12001134Y-16323984D01*
X12001134Y-16323984D02*
X12020182Y-16333508D01*
X12020182Y-16333508D02*
X12029705Y-16343031D01*
X12029705Y-16343031D02*
X12039229Y-16362079D01*
X12039229Y-16362079D02*
X12048753Y-16400174D01*
X12048753Y-16400174D02*
X12048753Y-16447793D01*
X12048753Y-16447793D02*
X12039229Y-16485888D01*
X12039229Y-16485888D02*
X12029705Y-16504936D01*
X12029705Y-16504936D02*
X12020182Y-16514460D01*
X12020182Y-16514460D02*
X12001134Y-16523984D01*
X12001134Y-16523984D02*
X11982086Y-16523984D01*
X11982086Y-16523984D02*
X11963039Y-16514460D01*
X11963039Y-16514460D02*
X11953515Y-16504936D01*
X11953515Y-16504936D02*
X11943991Y-16485888D01*
X11943991Y-16485888D02*
X11934467Y-16447793D01*
X11934467Y-16447793D02*
X11934467Y-16400174D01*
X11934467Y-16400174D02*
X11943991Y-16362079D01*
X11943991Y-16362079D02*
X11953515Y-16343031D01*
X11953515Y-16343031D02*
X11963039Y-16333508D01*
X11963039Y-16333508D02*
X11982086Y-16323984D01*
X12172562Y-16323984D02*
X12191610Y-16323984D01*
X12191610Y-16323984D02*
X12210658Y-16333508D01*
X12210658Y-16333508D02*
X12220182Y-16343031D01*
X12220182Y-16343031D02*
X12229705Y-16362079D01*
X12229705Y-16362079D02*
X12239229Y-16400174D01*
X12239229Y-16400174D02*
X12239229Y-16447793D01*
X12239229Y-16447793D02*
X12229705Y-16485888D01*
X12229705Y-16485888D02*
X12220182Y-16504936D01*
X12220182Y-16504936D02*
X12210658Y-16514460D01*
X12210658Y-16514460D02*
X12191610Y-16523984D01*
X12191610Y-16523984D02*
X12172562Y-16523984D01*
X12172562Y-16523984D02*
X12153515Y-16514460D01*
X12153515Y-16514460D02*
X12143991Y-16504936D01*
X12143991Y-16504936D02*
X12134467Y-16485888D01*
X12134467Y-16485888D02*
X12124943Y-16447793D01*
X12124943Y-16447793D02*
X12124943Y-16400174D01*
X12124943Y-16400174D02*
X12134467Y-16362079D01*
X12134467Y-16362079D02*
X12143991Y-16343031D01*
X12143991Y-16343031D02*
X12153515Y-16333508D01*
X12153515Y-16333508D02*
X12172562Y-16323984D01*
X12363039Y-16323984D02*
X12382086Y-16323984D01*
X12382086Y-16323984D02*
X12401134Y-16333508D01*
X12401134Y-16333508D02*
X12410658Y-16343031D01*
X12410658Y-16343031D02*
X12420182Y-16362079D01*
X12420182Y-16362079D02*
X12429705Y-16400174D01*
X12429705Y-16400174D02*
X12429705Y-16447793D01*
X12429705Y-16447793D02*
X12420182Y-16485888D01*
X12420182Y-16485888D02*
X12410658Y-16504936D01*
X12410658Y-16504936D02*
X12401134Y-16514460D01*
X12401134Y-16514460D02*
X12382086Y-16523984D01*
X12382086Y-16523984D02*
X12363039Y-16523984D01*
X12363039Y-16523984D02*
X12343991Y-16514460D01*
X12343991Y-16514460D02*
X12334467Y-16504936D01*
X12334467Y-16504936D02*
X12324943Y-16485888D01*
X12324943Y-16485888D02*
X12315420Y-16447793D01*
X12315420Y-16447793D02*
X12315420Y-16400174D01*
X12315420Y-16400174D02*
X12324943Y-16362079D01*
X12324943Y-16362079D02*
X12334467Y-16343031D01*
X12334467Y-16343031D02*
X12343991Y-16333508D01*
X12343991Y-16333508D02*
X12363039Y-16323984D01*
X12515420Y-16523984D02*
X12515420Y-16390650D01*
X12515420Y-16409698D02*
X12524943Y-16400174D01*
X12524943Y-16400174D02*
X12543991Y-16390650D01*
X12543991Y-16390650D02*
X12572563Y-16390650D01*
X12572563Y-16390650D02*
X12591610Y-16400174D01*
X12591610Y-16400174D02*
X12601134Y-16419222D01*
X12601134Y-16419222D02*
X12601134Y-16523984D01*
X12601134Y-16419222D02*
X12610658Y-16400174D01*
X12610658Y-16400174D02*
X12629705Y-16390650D01*
X12629705Y-16390650D02*
X12658277Y-16390650D01*
X12658277Y-16390650D02*
X12677324Y-16400174D01*
X12677324Y-16400174D02*
X12686848Y-16419222D01*
X12686848Y-16419222D02*
X12686848Y-16523984D01*
X12782086Y-16523984D02*
X12782086Y-16390650D01*
X12782086Y-16409698D02*
X12791610Y-16400174D01*
X12791610Y-16400174D02*
X12810658Y-16390650D01*
X12810658Y-16390650D02*
X12839229Y-16390650D01*
X12839229Y-16390650D02*
X12858277Y-16400174D01*
X12858277Y-16400174D02*
X12867801Y-16419222D01*
X12867801Y-16419222D02*
X12867801Y-16523984D01*
X12867801Y-16419222D02*
X12877324Y-16400174D01*
X12877324Y-16400174D02*
X12896372Y-16390650D01*
X12896372Y-16390650D02*
X12924943Y-16390650D01*
X12924943Y-16390650D02*
X12943991Y-16400174D01*
X12943991Y-16400174D02*
X12953515Y-16419222D01*
X12953515Y-16419222D02*
X12953515Y-16523984D01*
X13343991Y-16314460D02*
X13172563Y-16571603D01*
X13601134Y-16323984D02*
X13620182Y-16323984D01*
X13620182Y-16323984D02*
X13639229Y-16333508D01*
X13639229Y-16333508D02*
X13648753Y-16343031D01*
X13648753Y-16343031D02*
X13658277Y-16362079D01*
X13658277Y-16362079D02*
X13667801Y-16400174D01*
X13667801Y-16400174D02*
X13667801Y-16447793D01*
X13667801Y-16447793D02*
X13658277Y-16485888D01*
X13658277Y-16485888D02*
X13648753Y-16504936D01*
X13648753Y-16504936D02*
X13639229Y-16514460D01*
X13639229Y-16514460D02*
X13620182Y-16523984D01*
X13620182Y-16523984D02*
X13601134Y-16523984D01*
X13601134Y-16523984D02*
X13582086Y-16514460D01*
X13582086Y-16514460D02*
X13572563Y-16504936D01*
X13572563Y-16504936D02*
X13563039Y-16485888D01*
X13563039Y-16485888D02*
X13553515Y-16447793D01*
X13553515Y-16447793D02*
X13553515Y-16400174D01*
X13553515Y-16400174D02*
X13563039Y-16362079D01*
X13563039Y-16362079D02*
X13572563Y-16343031D01*
X13572563Y-16343031D02*
X13582086Y-16333508D01*
X13582086Y-16333508D02*
X13601134Y-16323984D01*
X13753515Y-16504936D02*
X13763039Y-16514460D01*
X13763039Y-16514460D02*
X13753515Y-16523984D01*
X13753515Y-16523984D02*
X13743991Y-16514460D01*
X13743991Y-16514460D02*
X13753515Y-16504936D01*
X13753515Y-16504936D02*
X13753515Y-16523984D01*
X13953515Y-16523984D02*
X13839229Y-16523984D01*
X13896372Y-16523984D02*
X13896372Y-16323984D01*
X13896372Y-16323984D02*
X13877325Y-16352555D01*
X13877325Y-16352555D02*
X13858277Y-16371603D01*
X13858277Y-16371603D02*
X13839229Y-16381127D01*
X14134467Y-16323984D02*
X14039229Y-16323984D01*
X14039229Y-16323984D02*
X14029706Y-16419222D01*
X14029706Y-16419222D02*
X14039229Y-16409698D01*
X14039229Y-16409698D02*
X14058277Y-16400174D01*
X14058277Y-16400174D02*
X14105896Y-16400174D01*
X14105896Y-16400174D02*
X14124944Y-16409698D01*
X14124944Y-16409698D02*
X14134467Y-16419222D01*
X14134467Y-16419222D02*
X14143991Y-16438269D01*
X14143991Y-16438269D02*
X14143991Y-16485888D01*
X14143991Y-16485888D02*
X14134467Y-16504936D01*
X14134467Y-16504936D02*
X14124944Y-16514460D01*
X14124944Y-16514460D02*
X14105896Y-16523984D01*
X14105896Y-16523984D02*
X14058277Y-16523984D01*
X14058277Y-16523984D02*
X14039229Y-16514460D01*
X14039229Y-16514460D02*
X14029706Y-16504936D01*
X14210658Y-16323984D02*
X14343991Y-16323984D01*
X14343991Y-16323984D02*
X14258277Y-16523984D01*
X14515420Y-16323984D02*
X14420182Y-16323984D01*
X14420182Y-16323984D02*
X14410658Y-16419222D01*
X14410658Y-16419222D02*
X14420182Y-16409698D01*
X14420182Y-16409698D02*
X14439229Y-16400174D01*
X14439229Y-16400174D02*
X14486848Y-16400174D01*
X14486848Y-16400174D02*
X14505896Y-16409698D01*
X14505896Y-16409698D02*
X14515420Y-16419222D01*
X14515420Y-16419222D02*
X14524944Y-16438269D01*
X14524944Y-16438269D02*
X14524944Y-16485888D01*
X14524944Y-16485888D02*
X14515420Y-16504936D01*
X14515420Y-16504936D02*
X14505896Y-16514460D01*
X14505896Y-16514460D02*
X14486848Y-16523984D01*
X14486848Y-16523984D02*
X14439229Y-16523984D01*
X14439229Y-16523984D02*
X14420182Y-16514460D01*
X14420182Y-16514460D02*
X14410658Y-16504936D01*
X14601134Y-16323984D02*
X14601134Y-16362079D01*
X14677325Y-16323984D02*
X14677325Y-16362079D01*
X14972563Y-16600174D02*
X14963039Y-16590650D01*
X14963039Y-16590650D02*
X14943991Y-16562079D01*
X14943991Y-16562079D02*
X14934468Y-16543031D01*
X14934468Y-16543031D02*
X14924944Y-16514460D01*
X14924944Y-16514460D02*
X14915420Y-16466841D01*
X14915420Y-16466841D02*
X14915420Y-16428746D01*
X14915420Y-16428746D02*
X14924944Y-16381127D01*
X14924944Y-16381127D02*
X14934468Y-16352555D01*
X14934468Y-16352555D02*
X14943991Y-16333508D01*
X14943991Y-16333508D02*
X14963039Y-16304936D01*
X14963039Y-16304936D02*
X14972563Y-16295412D01*
X15058277Y-16523984D02*
X15096372Y-16523984D01*
X15096372Y-16523984D02*
X15115420Y-16514460D01*
X15115420Y-16514460D02*
X15124944Y-16504936D01*
X15124944Y-16504936D02*
X15143991Y-16476365D01*
X15143991Y-16476365D02*
X15153515Y-16438269D01*
X15153515Y-16438269D02*
X15153515Y-16362079D01*
X15153515Y-16362079D02*
X15143991Y-16343031D01*
X15143991Y-16343031D02*
X15134468Y-16333508D01*
X15134468Y-16333508D02*
X15115420Y-16323984D01*
X15115420Y-16323984D02*
X15077325Y-16323984D01*
X15077325Y-16323984D02*
X15058277Y-16333508D01*
X15058277Y-16333508D02*
X15048753Y-16343031D01*
X15048753Y-16343031D02*
X15039229Y-16362079D01*
X15039229Y-16362079D02*
X15039229Y-16409698D01*
X15039229Y-16409698D02*
X15048753Y-16428746D01*
X15048753Y-16428746D02*
X15058277Y-16438269D01*
X15058277Y-16438269D02*
X15077325Y-16447793D01*
X15077325Y-16447793D02*
X15115420Y-16447793D01*
X15115420Y-16447793D02*
X15134468Y-16438269D01*
X15134468Y-16438269D02*
X15143991Y-16428746D01*
X15143991Y-16428746D02*
X15153515Y-16409698D01*
X15391610Y-16523984D02*
X15391610Y-16323984D01*
X15477325Y-16523984D02*
X15477325Y-16419222D01*
X15477325Y-16419222D02*
X15467801Y-16400174D01*
X15467801Y-16400174D02*
X15448753Y-16390650D01*
X15448753Y-16390650D02*
X15420182Y-16390650D01*
X15420182Y-16390650D02*
X15401134Y-16400174D01*
X15401134Y-16400174D02*
X15391610Y-16409698D01*
X15601134Y-16523984D02*
X15582087Y-16514460D01*
X15582087Y-16514460D02*
X15572563Y-16504936D01*
X15572563Y-16504936D02*
X15563039Y-16485888D01*
X15563039Y-16485888D02*
X15563039Y-16428746D01*
X15563039Y-16428746D02*
X15572563Y-16409698D01*
X15572563Y-16409698D02*
X15582087Y-16400174D01*
X15582087Y-16400174D02*
X15601134Y-16390650D01*
X15601134Y-16390650D02*
X15629706Y-16390650D01*
X15629706Y-16390650D02*
X15648753Y-16400174D01*
X15648753Y-16400174D02*
X15658277Y-16409698D01*
X15658277Y-16409698D02*
X15667801Y-16428746D01*
X15667801Y-16428746D02*
X15667801Y-16485888D01*
X15667801Y-16485888D02*
X15658277Y-16504936D01*
X15658277Y-16504936D02*
X15648753Y-16514460D01*
X15648753Y-16514460D02*
X15629706Y-16523984D01*
X15629706Y-16523984D02*
X15601134Y-16523984D01*
X15782087Y-16523984D02*
X15763039Y-16514460D01*
X15763039Y-16514460D02*
X15753515Y-16495412D01*
X15753515Y-16495412D02*
X15753515Y-16323984D01*
X15934468Y-16514460D02*
X15915420Y-16523984D01*
X15915420Y-16523984D02*
X15877325Y-16523984D01*
X15877325Y-16523984D02*
X15858277Y-16514460D01*
X15858277Y-16514460D02*
X15848753Y-16495412D01*
X15848753Y-16495412D02*
X15848753Y-16419222D01*
X15848753Y-16419222D02*
X15858277Y-16400174D01*
X15858277Y-16400174D02*
X15877325Y-16390650D01*
X15877325Y-16390650D02*
X15915420Y-16390650D01*
X15915420Y-16390650D02*
X15934468Y-16400174D01*
X15934468Y-16400174D02*
X15943991Y-16419222D01*
X15943991Y-16419222D02*
X15943991Y-16438269D01*
X15943991Y-16438269D02*
X15848753Y-16457317D01*
X16020182Y-16514460D02*
X16039230Y-16523984D01*
X16039230Y-16523984D02*
X16077325Y-16523984D01*
X16077325Y-16523984D02*
X16096372Y-16514460D01*
X16096372Y-16514460D02*
X16105896Y-16495412D01*
X16105896Y-16495412D02*
X16105896Y-16485888D01*
X16105896Y-16485888D02*
X16096372Y-16466841D01*
X16096372Y-16466841D02*
X16077325Y-16457317D01*
X16077325Y-16457317D02*
X16048753Y-16457317D01*
X16048753Y-16457317D02*
X16029706Y-16447793D01*
X16029706Y-16447793D02*
X16020182Y-16428746D01*
X16020182Y-16428746D02*
X16020182Y-16419222D01*
X16020182Y-16419222D02*
X16029706Y-16400174D01*
X16029706Y-16400174D02*
X16048753Y-16390650D01*
X16048753Y-16390650D02*
X16077325Y-16390650D01*
X16077325Y-16390650D02*
X16096372Y-16400174D01*
X16172563Y-16600174D02*
X16182087Y-16590650D01*
X16182087Y-16590650D02*
X16201134Y-16562079D01*
X16201134Y-16562079D02*
X16210658Y-16543031D01*
X16210658Y-16543031D02*
X16220182Y-16514460D01*
X16220182Y-16514460D02*
X16229706Y-16466841D01*
X16229706Y-16466841D02*
X16229706Y-16428746D01*
X16229706Y-16428746D02*
X16220182Y-16381127D01*
X16220182Y-16381127D02*
X16210658Y-16352555D01*
X16210658Y-16352555D02*
X16201134Y-16333508D01*
X16201134Y-16333508D02*
X16182087Y-16304936D01*
X16182087Y-16304936D02*
X16172563Y-16295412D01*
X16534468Y-16600174D02*
X16524944Y-16590650D01*
X16524944Y-16590650D02*
X16505896Y-16562079D01*
X16505896Y-16562079D02*
X16496372Y-16543031D01*
X16496372Y-16543031D02*
X16486849Y-16514460D01*
X16486849Y-16514460D02*
X16477325Y-16466841D01*
X16477325Y-16466841D02*
X16477325Y-16428746D01*
X16477325Y-16428746D02*
X16486849Y-16381127D01*
X16486849Y-16381127D02*
X16496372Y-16352555D01*
X16496372Y-16352555D02*
X16505896Y-16333508D01*
X16505896Y-16333508D02*
X16524944Y-16304936D01*
X16524944Y-16304936D02*
X16534468Y-16295412D01*
X16610658Y-16390650D02*
X16610658Y-16523984D01*
X16610658Y-16409698D02*
X16620182Y-16400174D01*
X16620182Y-16400174D02*
X16639230Y-16390650D01*
X16639230Y-16390650D02*
X16667801Y-16390650D01*
X16667801Y-16390650D02*
X16686849Y-16400174D01*
X16686849Y-16400174D02*
X16696372Y-16419222D01*
X16696372Y-16419222D02*
X16696372Y-16523984D01*
X16820182Y-16523984D02*
X16801134Y-16514460D01*
X16801134Y-16514460D02*
X16791611Y-16504936D01*
X16791611Y-16504936D02*
X16782087Y-16485888D01*
X16782087Y-16485888D02*
X16782087Y-16428746D01*
X16782087Y-16428746D02*
X16791611Y-16409698D01*
X16791611Y-16409698D02*
X16801134Y-16400174D01*
X16801134Y-16400174D02*
X16820182Y-16390650D01*
X16820182Y-16390650D02*
X16848754Y-16390650D01*
X16848754Y-16390650D02*
X16867801Y-16400174D01*
X16867801Y-16400174D02*
X16877325Y-16409698D01*
X16877325Y-16409698D02*
X16886849Y-16428746D01*
X16886849Y-16428746D02*
X16886849Y-16485888D01*
X16886849Y-16485888D02*
X16877325Y-16504936D01*
X16877325Y-16504936D02*
X16867801Y-16514460D01*
X16867801Y-16514460D02*
X16848754Y-16523984D01*
X16848754Y-16523984D02*
X16820182Y-16523984D01*
X16943992Y-16390650D02*
X17020182Y-16390650D01*
X16972563Y-16323984D02*
X16972563Y-16495412D01*
X16972563Y-16495412D02*
X16982087Y-16514460D01*
X16982087Y-16514460D02*
X17001134Y-16523984D01*
X17001134Y-16523984D02*
X17020182Y-16523984D01*
X17239230Y-16390650D02*
X17239230Y-16590650D01*
X17239230Y-16400174D02*
X17258277Y-16390650D01*
X17258277Y-16390650D02*
X17296373Y-16390650D01*
X17296373Y-16390650D02*
X17315420Y-16400174D01*
X17315420Y-16400174D02*
X17324944Y-16409698D01*
X17324944Y-16409698D02*
X17334468Y-16428746D01*
X17334468Y-16428746D02*
X17334468Y-16485888D01*
X17334468Y-16485888D02*
X17324944Y-16504936D01*
X17324944Y-16504936D02*
X17315420Y-16514460D01*
X17315420Y-16514460D02*
X17296373Y-16523984D01*
X17296373Y-16523984D02*
X17258277Y-16523984D01*
X17258277Y-16523984D02*
X17239230Y-16514460D01*
X17448754Y-16523984D02*
X17429706Y-16514460D01*
X17429706Y-16514460D02*
X17420182Y-16495412D01*
X17420182Y-16495412D02*
X17420182Y-16323984D01*
X17610658Y-16523984D02*
X17610658Y-16419222D01*
X17610658Y-16419222D02*
X17601135Y-16400174D01*
X17601135Y-16400174D02*
X17582087Y-16390650D01*
X17582087Y-16390650D02*
X17543992Y-16390650D01*
X17543992Y-16390650D02*
X17524944Y-16400174D01*
X17610658Y-16514460D02*
X17591611Y-16523984D01*
X17591611Y-16523984D02*
X17543992Y-16523984D01*
X17543992Y-16523984D02*
X17524944Y-16514460D01*
X17524944Y-16514460D02*
X17515420Y-16495412D01*
X17515420Y-16495412D02*
X17515420Y-16476365D01*
X17515420Y-16476365D02*
X17524944Y-16457317D01*
X17524944Y-16457317D02*
X17543992Y-16447793D01*
X17543992Y-16447793D02*
X17591611Y-16447793D01*
X17591611Y-16447793D02*
X17610658Y-16438269D01*
X17677325Y-16390650D02*
X17753515Y-16390650D01*
X17705896Y-16323984D02*
X17705896Y-16495412D01*
X17705896Y-16495412D02*
X17715420Y-16514460D01*
X17715420Y-16514460D02*
X17734468Y-16523984D01*
X17734468Y-16523984D02*
X17753515Y-16523984D01*
X17896373Y-16514460D02*
X17877325Y-16523984D01*
X17877325Y-16523984D02*
X17839230Y-16523984D01*
X17839230Y-16523984D02*
X17820182Y-16514460D01*
X17820182Y-16514460D02*
X17810658Y-16495412D01*
X17810658Y-16495412D02*
X17810658Y-16419222D01*
X17810658Y-16419222D02*
X17820182Y-16400174D01*
X17820182Y-16400174D02*
X17839230Y-16390650D01*
X17839230Y-16390650D02*
X17877325Y-16390650D01*
X17877325Y-16390650D02*
X17896373Y-16400174D01*
X17896373Y-16400174D02*
X17905896Y-16419222D01*
X17905896Y-16419222D02*
X17905896Y-16438269D01*
X17905896Y-16438269D02*
X17810658Y-16457317D01*
X18077325Y-16523984D02*
X18077325Y-16323984D01*
X18077325Y-16514460D02*
X18058277Y-16523984D01*
X18058277Y-16523984D02*
X18020182Y-16523984D01*
X18020182Y-16523984D02*
X18001135Y-16514460D01*
X18001135Y-16514460D02*
X17991611Y-16504936D01*
X17991611Y-16504936D02*
X17982087Y-16485888D01*
X17982087Y-16485888D02*
X17982087Y-16428746D01*
X17982087Y-16428746D02*
X17991611Y-16409698D01*
X17991611Y-16409698D02*
X18001135Y-16400174D01*
X18001135Y-16400174D02*
X18020182Y-16390650D01*
X18020182Y-16390650D02*
X18058277Y-16390650D01*
X18058277Y-16390650D02*
X18077325Y-16400174D01*
X18153516Y-16600174D02*
X18163039Y-16590650D01*
X18163039Y-16590650D02*
X18182087Y-16562079D01*
X18182087Y-16562079D02*
X18191611Y-16543031D01*
X18191611Y-16543031D02*
X18201135Y-16514460D01*
X18201135Y-16514460D02*
X18210658Y-16466841D01*
X18210658Y-16466841D02*
X18210658Y-16428746D01*
X18210658Y-16428746D02*
X18201135Y-16381127D01*
X18201135Y-16381127D02*
X18191611Y-16352555D01*
X18191611Y-16352555D02*
X18182087Y-16333508D01*
X18182087Y-16333508D02*
X18163039Y-16304936D01*
X18163039Y-16304936D02*
X18153516Y-16295412D01*
M02*
