%TF.GenerationSoftware,KiCad,Pcbnew,10.0.6*%
%TF.CreationDate,2026-09-21T19:11:03+05:30*%
%TF.ProjectId,Chronix_FINAL_0_WARNINGS,4368726f-6e69-4785-9f46-494e414c5f30,rev?*%
%TF.SameCoordinates,Original*%
%TF.FileFunction,Drillmap*%
%TF.FilePolarity,Positive*%
%FSLAX45Y45*%
G04 Gerber Fmt 4.5, Leading zero omitted, Abs format (unit mm)*
G04 Created by KiCad (PCBNEW 10.0.6) date 2026-09-21 19:11:03*
%MOMM*%
%LPD*%
G01*
G04 APERTURE LIST*
%ADD10C,0.050000*%
%ADD11C,0.200000*%
%ADD12C,0.100000*%
%ADD13C,0.150000*%
G04 APERTURE END LIST*
D10*
X11400000Y-6800000D02*
X17800000Y-6800000D01*
X17800000Y-15500000D01*
X11400000Y-15500000D01*
X11400000Y-6800000D01*
D11*
D12*
X12772500Y-11422500D02*
X12802500Y-11452500D01*
X12802500Y-11422500D02*
X12772500Y-11452500D01*
X13172500Y-12622500D02*
X13202500Y-12652500D01*
X13202500Y-12622500D02*
X13172500Y-12652500D01*
X13285000Y-13825000D02*
X13315000Y-13855000D01*
X13315000Y-13825000D02*
X13285000Y-13855000D01*
X13285000Y-14085000D02*
X13315000Y-14115000D01*
X13315000Y-14085000D02*
X13285000Y-14115000D01*
X13285000Y-14835000D02*
X13315000Y-14865000D01*
X13315000Y-14835000D02*
X13285000Y-14865000D01*
X13372500Y-11422500D02*
X13402500Y-11452500D01*
X13402500Y-11422500D02*
X13372500Y-11452500D01*
X13472500Y-14272500D02*
X13502500Y-14302500D01*
X13502500Y-14272500D02*
X13472500Y-14302500D01*
X13668500Y-15097000D02*
X13698500Y-15127000D01*
X13698500Y-15097000D02*
X13668500Y-15127000D01*
X14029500Y-14106300D02*
X14059500Y-14136300D01*
X14059500Y-14106300D02*
X14029500Y-14136300D01*
X14497500Y-13322500D02*
X14527500Y-13352500D01*
X14527500Y-13322500D02*
X14497500Y-13352500D01*
X14601000Y-13725800D02*
X14631000Y-13755800D01*
X14631000Y-13725800D02*
X14601000Y-13755800D01*
X15285000Y-13827000D02*
X15315000Y-13857000D01*
X15315000Y-13827000D02*
X15285000Y-13857000D01*
X15635000Y-14335000D02*
X15665000Y-14365000D01*
X15665000Y-14335000D02*
X15635000Y-14365000D01*
X15635000Y-14835000D02*
X15665000Y-14865000D01*
X15665000Y-14835000D02*
X15635000Y-14865000D01*
X16522500Y-14197500D02*
X16552500Y-14227500D01*
X16552500Y-14197500D02*
X16522500Y-14227500D01*
X17672500Y-9522500D02*
X17702500Y-9552500D01*
X17702500Y-9522500D02*
X17672500Y-9552500D01*
X12140000Y-8700000D02*
G75*
G02*
X12060000Y-8700000I-40000J0D01*
G01*
X12060000Y-8700000D02*
G75*
G02*
X12140000Y-8700000I40000J0D01*
G01*
X12140000Y-10600000D02*
G75*
G02*
X12060000Y-10600000I-40000J0D01*
G01*
X12060000Y-10600000D02*
G75*
G02*
X12140000Y-10600000I40000J0D01*
G01*
X12159000Y-12500000D02*
G75*
G02*
X12079000Y-12500000I-40000J0D01*
G01*
X12079000Y-12500000D02*
G75*
G02*
X12159000Y-12500000I40000J0D01*
G01*
X12902000Y-8700000D02*
G75*
G02*
X12822000Y-8700000I-40000J0D01*
G01*
X12822000Y-8700000D02*
G75*
G02*
X12902000Y-8700000I40000J0D01*
G01*
X12902000Y-10600000D02*
G75*
G02*
X12822000Y-10600000I-40000J0D01*
G01*
X12822000Y-10600000D02*
G75*
G02*
X12902000Y-10600000I40000J0D01*
G01*
X12921000Y-12500000D02*
G75*
G02*
X12841000Y-12500000I-40000J0D01*
G01*
X12841000Y-12500000D02*
G75*
G02*
X12921000Y-12500000I40000J0D01*
G01*
X14040000Y-8650000D02*
G75*
G02*
X13960000Y-8650000I-40000J0D01*
G01*
X13960000Y-8650000D02*
G75*
G02*
X14040000Y-8650000I40000J0D01*
G01*
X14078000Y-10600000D02*
G75*
G02*
X13998000Y-10600000I-40000J0D01*
G01*
X13998000Y-10600000D02*
G75*
G02*
X14078000Y-10600000I40000J0D01*
G01*
X14159000Y-12500000D02*
G75*
G02*
X14079000Y-12500000I-40000J0D01*
G01*
X14079000Y-12500000D02*
G75*
G02*
X14159000Y-12500000I40000J0D01*
G01*
X14802000Y-8650000D02*
G75*
G02*
X14722000Y-8650000I-40000J0D01*
G01*
X14722000Y-8650000D02*
G75*
G02*
X14802000Y-8650000I40000J0D01*
G01*
X14840000Y-10600000D02*
G75*
G02*
X14760000Y-10600000I-40000J0D01*
G01*
X14760000Y-10600000D02*
G75*
G02*
X14840000Y-10600000I40000J0D01*
G01*
X14921000Y-12500000D02*
G75*
G02*
X14841000Y-12500000I-40000J0D01*
G01*
X14841000Y-12500000D02*
G75*
G02*
X14921000Y-12500000I40000J0D01*
G01*
X16028000Y-10550000D02*
G75*
G02*
X15948000Y-10550000I-40000J0D01*
G01*
X15948000Y-10550000D02*
G75*
G02*
X16028000Y-10550000I40000J0D01*
G01*
X16059000Y-8700000D02*
G75*
G02*
X15979000Y-8700000I-40000J0D01*
G01*
X15979000Y-8700000D02*
G75*
G02*
X16059000Y-8700000I40000J0D01*
G01*
X16059000Y-12500000D02*
G75*
G02*
X15979000Y-12500000I-40000J0D01*
G01*
X15979000Y-12500000D02*
G75*
G02*
X16059000Y-12500000I40000J0D01*
G01*
X16790000Y-10550000D02*
G75*
G02*
X16710000Y-10550000I-40000J0D01*
G01*
X16710000Y-10550000D02*
G75*
G02*
X16790000Y-10550000I40000J0D01*
G01*
X16821000Y-8700000D02*
G75*
G02*
X16741000Y-8700000I-40000J0D01*
G01*
X16741000Y-8700000D02*
G75*
G02*
X16821000Y-8700000I40000J0D01*
G01*
X16821000Y-12500000D02*
G75*
G02*
X16741000Y-12500000I-40000J0D01*
G01*
X16741000Y-12500000D02*
G75*
G02*
X16821000Y-12500000I40000J0D01*
G01*
X16250000Y-14100000D02*
X16250000Y-14200000D01*
X16200000Y-14150000D02*
X16300000Y-14150000D01*
X17010000Y-14100000D02*
X17010000Y-14200000D01*
X16960000Y-14150000D02*
X17060000Y-14150000D01*
X17500000Y-8800000D02*
X17500000Y-8900000D01*
X17450000Y-8850000D02*
X17550000Y-8850000D01*
X17500000Y-9054000D02*
X17500000Y-9154000D01*
X17450000Y-9104000D02*
X17550000Y-9104000D01*
X17500000Y-9308000D02*
X17500000Y-9408000D01*
X17450000Y-9358000D02*
X17550000Y-9358000D01*
X17500000Y-9562000D02*
X17500000Y-9662000D01*
X17450000Y-9612000D02*
X17550000Y-9612000D01*
X17500000Y-9816000D02*
X17500000Y-9916000D01*
X17450000Y-9866000D02*
X17550000Y-9866000D01*
X17500000Y-10070000D02*
X17500000Y-10170000D01*
X17450000Y-10120000D02*
X17550000Y-10120000D01*
X17500000Y-10324000D02*
X17500000Y-10424000D01*
X17450000Y-10374000D02*
X17550000Y-10374000D01*
X17500000Y-10578000D02*
X17500000Y-10678000D01*
X17450000Y-10628000D02*
X17550000Y-10628000D01*
D13*
X12164033Y-7649033D02*
X12164033Y-7542966D01*
X12057966Y-7542966D01*
X12057966Y-7649033D01*
X12164033Y-7649033D01*
X12164033Y-9557034D02*
X12164033Y-9450967D01*
X12057966Y-9450967D01*
X12057966Y-9557034D01*
X12164033Y-9557034D01*
X12168033Y-11499033D02*
X12168033Y-11392966D01*
X12061966Y-11392966D01*
X12061966Y-11499033D01*
X12168033Y-11499033D01*
X12799033Y-7395033D02*
X12799033Y-7288966D01*
X12692966Y-7288966D01*
X12692966Y-7395033D01*
X12799033Y-7395033D01*
X12799033Y-9303034D02*
X12799033Y-9196967D01*
X12692966Y-9196967D01*
X12692966Y-9303034D01*
X12799033Y-9303034D01*
X12803033Y-11245033D02*
X12803033Y-11138967D01*
X12696966Y-11138967D01*
X12696966Y-11245033D01*
X12803033Y-11245033D01*
X14114033Y-7649033D02*
X14114033Y-7542966D01*
X14007966Y-7542966D01*
X14007966Y-7649033D01*
X14114033Y-7649033D01*
X14118033Y-9557034D02*
X14118033Y-9450967D01*
X14011966Y-9450967D01*
X14011966Y-9557034D01*
X14118033Y-9557034D01*
X14122033Y-11499033D02*
X14122033Y-11392966D01*
X14015966Y-11392966D01*
X14015966Y-11499033D01*
X14122033Y-11499033D01*
X14749033Y-7395033D02*
X14749033Y-7288966D01*
X14642966Y-7288966D01*
X14642966Y-7395033D01*
X14749033Y-7395033D01*
X14753033Y-9303034D02*
X14753033Y-9196967D01*
X14646966Y-9196967D01*
X14646966Y-9303034D01*
X14753033Y-9303034D01*
X14757033Y-11245033D02*
X14757033Y-11138967D01*
X14650966Y-11138967D01*
X14650966Y-11245033D01*
X14757033Y-11245033D01*
X16053033Y-7653033D02*
X16053033Y-7546966D01*
X15946966Y-7546966D01*
X15946966Y-7653033D01*
X16053033Y-7653033D01*
X16053033Y-9553034D02*
X16053033Y-9446967D01*
X15946966Y-9446967D01*
X15946966Y-9553034D01*
X16053033Y-9553034D01*
X16053033Y-11499033D02*
X16053033Y-11392966D01*
X15946966Y-11392966D01*
X15946966Y-11499033D01*
X16053033Y-11499033D01*
X16688033Y-7399033D02*
X16688033Y-7292966D01*
X16581966Y-7292966D01*
X16581966Y-7399033D01*
X16688033Y-7399033D01*
X16688033Y-9299034D02*
X16688033Y-9192967D01*
X16581966Y-9192967D01*
X16581966Y-9299034D01*
X16688033Y-9299034D01*
X16688033Y-11245033D02*
X16688033Y-11138967D01*
X16581966Y-11138967D01*
X16581966Y-11245033D01*
X16688033Y-11245033D01*
D11*
X11658277Y-15813984D02*
X11658277Y-15613984D01*
X11658277Y-15613984D02*
X11705896Y-15613984D01*
X11705896Y-15613984D02*
X11734467Y-15623508D01*
X11734467Y-15623508D02*
X11753515Y-15642555D01*
X11753515Y-15642555D02*
X11763039Y-15661603D01*
X11763039Y-15661603D02*
X11772562Y-15699698D01*
X11772562Y-15699698D02*
X11772562Y-15728269D01*
X11772562Y-15728269D02*
X11763039Y-15766365D01*
X11763039Y-15766365D02*
X11753515Y-15785412D01*
X11753515Y-15785412D02*
X11734467Y-15804460D01*
X11734467Y-15804460D02*
X11705896Y-15813984D01*
X11705896Y-15813984D02*
X11658277Y-15813984D01*
X11858277Y-15813984D02*
X11858277Y-15680650D01*
X11858277Y-15718746D02*
X11867801Y-15699698D01*
X11867801Y-15699698D02*
X11877324Y-15690174D01*
X11877324Y-15690174D02*
X11896372Y-15680650D01*
X11896372Y-15680650D02*
X11915420Y-15680650D01*
X11982086Y-15813984D02*
X11982086Y-15680650D01*
X11982086Y-15613984D02*
X11972562Y-15623508D01*
X11972562Y-15623508D02*
X11982086Y-15633031D01*
X11982086Y-15633031D02*
X11991610Y-15623508D01*
X11991610Y-15623508D02*
X11982086Y-15613984D01*
X11982086Y-15613984D02*
X11982086Y-15633031D01*
X12105896Y-15813984D02*
X12086848Y-15804460D01*
X12086848Y-15804460D02*
X12077324Y-15785412D01*
X12077324Y-15785412D02*
X12077324Y-15613984D01*
X12210658Y-15813984D02*
X12191610Y-15804460D01*
X12191610Y-15804460D02*
X12182086Y-15785412D01*
X12182086Y-15785412D02*
X12182086Y-15613984D01*
X12439229Y-15813984D02*
X12439229Y-15613984D01*
X12439229Y-15613984D02*
X12505896Y-15756841D01*
X12505896Y-15756841D02*
X12572562Y-15613984D01*
X12572562Y-15613984D02*
X12572562Y-15813984D01*
X12753515Y-15813984D02*
X12753515Y-15709222D01*
X12753515Y-15709222D02*
X12743991Y-15690174D01*
X12743991Y-15690174D02*
X12724943Y-15680650D01*
X12724943Y-15680650D02*
X12686848Y-15680650D01*
X12686848Y-15680650D02*
X12667801Y-15690174D01*
X12753515Y-15804460D02*
X12734467Y-15813984D01*
X12734467Y-15813984D02*
X12686848Y-15813984D01*
X12686848Y-15813984D02*
X12667801Y-15804460D01*
X12667801Y-15804460D02*
X12658277Y-15785412D01*
X12658277Y-15785412D02*
X12658277Y-15766365D01*
X12658277Y-15766365D02*
X12667801Y-15747317D01*
X12667801Y-15747317D02*
X12686848Y-15737793D01*
X12686848Y-15737793D02*
X12734467Y-15737793D01*
X12734467Y-15737793D02*
X12753515Y-15728269D01*
X12848753Y-15680650D02*
X12848753Y-15880650D01*
X12848753Y-15690174D02*
X12867801Y-15680650D01*
X12867801Y-15680650D02*
X12905896Y-15680650D01*
X12905896Y-15680650D02*
X12924943Y-15690174D01*
X12924943Y-15690174D02*
X12934467Y-15699698D01*
X12934467Y-15699698D02*
X12943991Y-15718746D01*
X12943991Y-15718746D02*
X12943991Y-15775888D01*
X12943991Y-15775888D02*
X12934467Y-15794936D01*
X12934467Y-15794936D02*
X12924943Y-15804460D01*
X12924943Y-15804460D02*
X12905896Y-15813984D01*
X12905896Y-15813984D02*
X12867801Y-15813984D01*
X12867801Y-15813984D02*
X12848753Y-15804460D01*
X13029705Y-15794936D02*
X13039229Y-15804460D01*
X13039229Y-15804460D02*
X13029705Y-15813984D01*
X13029705Y-15813984D02*
X13020182Y-15804460D01*
X13020182Y-15804460D02*
X13029705Y-15794936D01*
X13029705Y-15794936D02*
X13029705Y-15813984D01*
X13029705Y-15690174D02*
X13039229Y-15699698D01*
X13039229Y-15699698D02*
X13029705Y-15709222D01*
X13029705Y-15709222D02*
X13020182Y-15699698D01*
X13020182Y-15699698D02*
X13029705Y-15690174D01*
X13029705Y-15690174D02*
X13029705Y-15709222D01*
D12*
X11367500Y-16127500D02*
X11397500Y-16157500D01*
X11397500Y-16127500D02*
X11367500Y-16157500D01*
D11*
X11696372Y-16033984D02*
X11715420Y-16033984D01*
X11715420Y-16033984D02*
X11734467Y-16043508D01*
X11734467Y-16043508D02*
X11743991Y-16053031D01*
X11743991Y-16053031D02*
X11753515Y-16072079D01*
X11753515Y-16072079D02*
X11763039Y-16110174D01*
X11763039Y-16110174D02*
X11763039Y-16157793D01*
X11763039Y-16157793D02*
X11753515Y-16195888D01*
X11753515Y-16195888D02*
X11743991Y-16214936D01*
X11743991Y-16214936D02*
X11734467Y-16224460D01*
X11734467Y-16224460D02*
X11715420Y-16233984D01*
X11715420Y-16233984D02*
X11696372Y-16233984D01*
X11696372Y-16233984D02*
X11677324Y-16224460D01*
X11677324Y-16224460D02*
X11667801Y-16214936D01*
X11667801Y-16214936D02*
X11658277Y-16195888D01*
X11658277Y-16195888D02*
X11648753Y-16157793D01*
X11648753Y-16157793D02*
X11648753Y-16110174D01*
X11648753Y-16110174D02*
X11658277Y-16072079D01*
X11658277Y-16072079D02*
X11667801Y-16053031D01*
X11667801Y-16053031D02*
X11677324Y-16043508D01*
X11677324Y-16043508D02*
X11696372Y-16033984D01*
X11848753Y-16214936D02*
X11858277Y-16224460D01*
X11858277Y-16224460D02*
X11848753Y-16233984D01*
X11848753Y-16233984D02*
X11839229Y-16224460D01*
X11839229Y-16224460D02*
X11848753Y-16214936D01*
X11848753Y-16214936D02*
X11848753Y-16233984D01*
X11924943Y-16033984D02*
X12048753Y-16033984D01*
X12048753Y-16033984D02*
X11982086Y-16110174D01*
X11982086Y-16110174D02*
X12010658Y-16110174D01*
X12010658Y-16110174D02*
X12029705Y-16119698D01*
X12029705Y-16119698D02*
X12039229Y-16129222D01*
X12039229Y-16129222D02*
X12048753Y-16148269D01*
X12048753Y-16148269D02*
X12048753Y-16195888D01*
X12048753Y-16195888D02*
X12039229Y-16214936D01*
X12039229Y-16214936D02*
X12029705Y-16224460D01*
X12029705Y-16224460D02*
X12010658Y-16233984D01*
X12010658Y-16233984D02*
X11953515Y-16233984D01*
X11953515Y-16233984D02*
X11934467Y-16224460D01*
X11934467Y-16224460D02*
X11924943Y-16214936D01*
X12172562Y-16033984D02*
X12191610Y-16033984D01*
X12191610Y-16033984D02*
X12210658Y-16043508D01*
X12210658Y-16043508D02*
X12220182Y-16053031D01*
X12220182Y-16053031D02*
X12229705Y-16072079D01*
X12229705Y-16072079D02*
X12239229Y-16110174D01*
X12239229Y-16110174D02*
X12239229Y-16157793D01*
X12239229Y-16157793D02*
X12229705Y-16195888D01*
X12229705Y-16195888D02*
X12220182Y-16214936D01*
X12220182Y-16214936D02*
X12210658Y-16224460D01*
X12210658Y-16224460D02*
X12191610Y-16233984D01*
X12191610Y-16233984D02*
X12172562Y-16233984D01*
X12172562Y-16233984D02*
X12153515Y-16224460D01*
X12153515Y-16224460D02*
X12143991Y-16214936D01*
X12143991Y-16214936D02*
X12134467Y-16195888D01*
X12134467Y-16195888D02*
X12124943Y-16157793D01*
X12124943Y-16157793D02*
X12124943Y-16110174D01*
X12124943Y-16110174D02*
X12134467Y-16072079D01*
X12134467Y-16072079D02*
X12143991Y-16053031D01*
X12143991Y-16053031D02*
X12153515Y-16043508D01*
X12153515Y-16043508D02*
X12172562Y-16033984D01*
X12363039Y-16033984D02*
X12382086Y-16033984D01*
X12382086Y-16033984D02*
X12401134Y-16043508D01*
X12401134Y-16043508D02*
X12410658Y-16053031D01*
X12410658Y-16053031D02*
X12420182Y-16072079D01*
X12420182Y-16072079D02*
X12429705Y-16110174D01*
X12429705Y-16110174D02*
X12429705Y-16157793D01*
X12429705Y-16157793D02*
X12420182Y-16195888D01*
X12420182Y-16195888D02*
X12410658Y-16214936D01*
X12410658Y-16214936D02*
X12401134Y-16224460D01*
X12401134Y-16224460D02*
X12382086Y-16233984D01*
X12382086Y-16233984D02*
X12363039Y-16233984D01*
X12363039Y-16233984D02*
X12343991Y-16224460D01*
X12343991Y-16224460D02*
X12334467Y-16214936D01*
X12334467Y-16214936D02*
X12324943Y-16195888D01*
X12324943Y-16195888D02*
X12315420Y-16157793D01*
X12315420Y-16157793D02*
X12315420Y-16110174D01*
X12315420Y-16110174D02*
X12324943Y-16072079D01*
X12324943Y-16072079D02*
X12334467Y-16053031D01*
X12334467Y-16053031D02*
X12343991Y-16043508D01*
X12343991Y-16043508D02*
X12363039Y-16033984D01*
X12515420Y-16233984D02*
X12515420Y-16100650D01*
X12515420Y-16119698D02*
X12524943Y-16110174D01*
X12524943Y-16110174D02*
X12543991Y-16100650D01*
X12543991Y-16100650D02*
X12572563Y-16100650D01*
X12572563Y-16100650D02*
X12591610Y-16110174D01*
X12591610Y-16110174D02*
X12601134Y-16129222D01*
X12601134Y-16129222D02*
X12601134Y-16233984D01*
X12601134Y-16129222D02*
X12610658Y-16110174D01*
X12610658Y-16110174D02*
X12629705Y-16100650D01*
X12629705Y-16100650D02*
X12658277Y-16100650D01*
X12658277Y-16100650D02*
X12677324Y-16110174D01*
X12677324Y-16110174D02*
X12686848Y-16129222D01*
X12686848Y-16129222D02*
X12686848Y-16233984D01*
X12782086Y-16233984D02*
X12782086Y-16100650D01*
X12782086Y-16119698D02*
X12791610Y-16110174D01*
X12791610Y-16110174D02*
X12810658Y-16100650D01*
X12810658Y-16100650D02*
X12839229Y-16100650D01*
X12839229Y-16100650D02*
X12858277Y-16110174D01*
X12858277Y-16110174D02*
X12867801Y-16129222D01*
X12867801Y-16129222D02*
X12867801Y-16233984D01*
X12867801Y-16129222D02*
X12877324Y-16110174D01*
X12877324Y-16110174D02*
X12896372Y-16100650D01*
X12896372Y-16100650D02*
X12924943Y-16100650D01*
X12924943Y-16100650D02*
X12943991Y-16110174D01*
X12943991Y-16110174D02*
X12953515Y-16129222D01*
X12953515Y-16129222D02*
X12953515Y-16233984D01*
X13343991Y-16024460D02*
X13172563Y-16281603D01*
X13601134Y-16033984D02*
X13620182Y-16033984D01*
X13620182Y-16033984D02*
X13639229Y-16043508D01*
X13639229Y-16043508D02*
X13648753Y-16053031D01*
X13648753Y-16053031D02*
X13658277Y-16072079D01*
X13658277Y-16072079D02*
X13667801Y-16110174D01*
X13667801Y-16110174D02*
X13667801Y-16157793D01*
X13667801Y-16157793D02*
X13658277Y-16195888D01*
X13658277Y-16195888D02*
X13648753Y-16214936D01*
X13648753Y-16214936D02*
X13639229Y-16224460D01*
X13639229Y-16224460D02*
X13620182Y-16233984D01*
X13620182Y-16233984D02*
X13601134Y-16233984D01*
X13601134Y-16233984D02*
X13582086Y-16224460D01*
X13582086Y-16224460D02*
X13572563Y-16214936D01*
X13572563Y-16214936D02*
X13563039Y-16195888D01*
X13563039Y-16195888D02*
X13553515Y-16157793D01*
X13553515Y-16157793D02*
X13553515Y-16110174D01*
X13553515Y-16110174D02*
X13563039Y-16072079D01*
X13563039Y-16072079D02*
X13572563Y-16053031D01*
X13572563Y-16053031D02*
X13582086Y-16043508D01*
X13582086Y-16043508D02*
X13601134Y-16033984D01*
X13753515Y-16214936D02*
X13763039Y-16224460D01*
X13763039Y-16224460D02*
X13753515Y-16233984D01*
X13753515Y-16233984D02*
X13743991Y-16224460D01*
X13743991Y-16224460D02*
X13753515Y-16214936D01*
X13753515Y-16214936D02*
X13753515Y-16233984D01*
X13886848Y-16033984D02*
X13905896Y-16033984D01*
X13905896Y-16033984D02*
X13924944Y-16043508D01*
X13924944Y-16043508D02*
X13934467Y-16053031D01*
X13934467Y-16053031D02*
X13943991Y-16072079D01*
X13943991Y-16072079D02*
X13953515Y-16110174D01*
X13953515Y-16110174D02*
X13953515Y-16157793D01*
X13953515Y-16157793D02*
X13943991Y-16195888D01*
X13943991Y-16195888D02*
X13934467Y-16214936D01*
X13934467Y-16214936D02*
X13924944Y-16224460D01*
X13924944Y-16224460D02*
X13905896Y-16233984D01*
X13905896Y-16233984D02*
X13886848Y-16233984D01*
X13886848Y-16233984D02*
X13867801Y-16224460D01*
X13867801Y-16224460D02*
X13858277Y-16214936D01*
X13858277Y-16214936D02*
X13848753Y-16195888D01*
X13848753Y-16195888D02*
X13839229Y-16157793D01*
X13839229Y-16157793D02*
X13839229Y-16110174D01*
X13839229Y-16110174D02*
X13848753Y-16072079D01*
X13848753Y-16072079D02*
X13858277Y-16053031D01*
X13858277Y-16053031D02*
X13867801Y-16043508D01*
X13867801Y-16043508D02*
X13886848Y-16033984D01*
X14143991Y-16233984D02*
X14029706Y-16233984D01*
X14086848Y-16233984D02*
X14086848Y-16033984D01*
X14086848Y-16033984D02*
X14067801Y-16062555D01*
X14067801Y-16062555D02*
X14048753Y-16081603D01*
X14048753Y-16081603D02*
X14029706Y-16091127D01*
X14334467Y-16233984D02*
X14220182Y-16233984D01*
X14277325Y-16233984D02*
X14277325Y-16033984D01*
X14277325Y-16033984D02*
X14258277Y-16062555D01*
X14258277Y-16062555D02*
X14239229Y-16081603D01*
X14239229Y-16081603D02*
X14220182Y-16091127D01*
X14448753Y-16119698D02*
X14429706Y-16110174D01*
X14429706Y-16110174D02*
X14420182Y-16100650D01*
X14420182Y-16100650D02*
X14410658Y-16081603D01*
X14410658Y-16081603D02*
X14410658Y-16072079D01*
X14410658Y-16072079D02*
X14420182Y-16053031D01*
X14420182Y-16053031D02*
X14429706Y-16043508D01*
X14429706Y-16043508D02*
X14448753Y-16033984D01*
X14448753Y-16033984D02*
X14486848Y-16033984D01*
X14486848Y-16033984D02*
X14505896Y-16043508D01*
X14505896Y-16043508D02*
X14515420Y-16053031D01*
X14515420Y-16053031D02*
X14524944Y-16072079D01*
X14524944Y-16072079D02*
X14524944Y-16081603D01*
X14524944Y-16081603D02*
X14515420Y-16100650D01*
X14515420Y-16100650D02*
X14505896Y-16110174D01*
X14505896Y-16110174D02*
X14486848Y-16119698D01*
X14486848Y-16119698D02*
X14448753Y-16119698D01*
X14448753Y-16119698D02*
X14429706Y-16129222D01*
X14429706Y-16129222D02*
X14420182Y-16138746D01*
X14420182Y-16138746D02*
X14410658Y-16157793D01*
X14410658Y-16157793D02*
X14410658Y-16195888D01*
X14410658Y-16195888D02*
X14420182Y-16214936D01*
X14420182Y-16214936D02*
X14429706Y-16224460D01*
X14429706Y-16224460D02*
X14448753Y-16233984D01*
X14448753Y-16233984D02*
X14486848Y-16233984D01*
X14486848Y-16233984D02*
X14505896Y-16224460D01*
X14505896Y-16224460D02*
X14515420Y-16214936D01*
X14515420Y-16214936D02*
X14524944Y-16195888D01*
X14524944Y-16195888D02*
X14524944Y-16157793D01*
X14524944Y-16157793D02*
X14515420Y-16138746D01*
X14515420Y-16138746D02*
X14505896Y-16129222D01*
X14505896Y-16129222D02*
X14486848Y-16119698D01*
X14601134Y-16033984D02*
X14601134Y-16072079D01*
X14677325Y-16033984D02*
X14677325Y-16072079D01*
X14972563Y-16310174D02*
X14963039Y-16300650D01*
X14963039Y-16300650D02*
X14943991Y-16272079D01*
X14943991Y-16272079D02*
X14934468Y-16253031D01*
X14934468Y-16253031D02*
X14924944Y-16224460D01*
X14924944Y-16224460D02*
X14915420Y-16176841D01*
X14915420Y-16176841D02*
X14915420Y-16138746D01*
X14915420Y-16138746D02*
X14924944Y-16091127D01*
X14924944Y-16091127D02*
X14934468Y-16062555D01*
X14934468Y-16062555D02*
X14943991Y-16043508D01*
X14943991Y-16043508D02*
X14963039Y-16014936D01*
X14963039Y-16014936D02*
X14972563Y-16005412D01*
X15153515Y-16233984D02*
X15039229Y-16233984D01*
X15096372Y-16233984D02*
X15096372Y-16033984D01*
X15096372Y-16033984D02*
X15077325Y-16062555D01*
X15077325Y-16062555D02*
X15058277Y-16081603D01*
X15058277Y-16081603D02*
X15039229Y-16091127D01*
X15324944Y-16033984D02*
X15286848Y-16033984D01*
X15286848Y-16033984D02*
X15267801Y-16043508D01*
X15267801Y-16043508D02*
X15258277Y-16053031D01*
X15258277Y-16053031D02*
X15239229Y-16081603D01*
X15239229Y-16081603D02*
X15229706Y-16119698D01*
X15229706Y-16119698D02*
X15229706Y-16195888D01*
X15229706Y-16195888D02*
X15239229Y-16214936D01*
X15239229Y-16214936D02*
X15248753Y-16224460D01*
X15248753Y-16224460D02*
X15267801Y-16233984D01*
X15267801Y-16233984D02*
X15305896Y-16233984D01*
X15305896Y-16233984D02*
X15324944Y-16224460D01*
X15324944Y-16224460D02*
X15334468Y-16214936D01*
X15334468Y-16214936D02*
X15343991Y-16195888D01*
X15343991Y-16195888D02*
X15343991Y-16148269D01*
X15343991Y-16148269D02*
X15334468Y-16129222D01*
X15334468Y-16129222D02*
X15324944Y-16119698D01*
X15324944Y-16119698D02*
X15305896Y-16110174D01*
X15305896Y-16110174D02*
X15267801Y-16110174D01*
X15267801Y-16110174D02*
X15248753Y-16119698D01*
X15248753Y-16119698D02*
X15239229Y-16129222D01*
X15239229Y-16129222D02*
X15229706Y-16148269D01*
X15582087Y-16233984D02*
X15582087Y-16033984D01*
X15667801Y-16233984D02*
X15667801Y-16129222D01*
X15667801Y-16129222D02*
X15658277Y-16110174D01*
X15658277Y-16110174D02*
X15639230Y-16100650D01*
X15639230Y-16100650D02*
X15610658Y-16100650D01*
X15610658Y-16100650D02*
X15591610Y-16110174D01*
X15591610Y-16110174D02*
X15582087Y-16119698D01*
X15791610Y-16233984D02*
X15772563Y-16224460D01*
X15772563Y-16224460D02*
X15763039Y-16214936D01*
X15763039Y-16214936D02*
X15753515Y-16195888D01*
X15753515Y-16195888D02*
X15753515Y-16138746D01*
X15753515Y-16138746D02*
X15763039Y-16119698D01*
X15763039Y-16119698D02*
X15772563Y-16110174D01*
X15772563Y-16110174D02*
X15791610Y-16100650D01*
X15791610Y-16100650D02*
X15820182Y-16100650D01*
X15820182Y-16100650D02*
X15839230Y-16110174D01*
X15839230Y-16110174D02*
X15848753Y-16119698D01*
X15848753Y-16119698D02*
X15858277Y-16138746D01*
X15858277Y-16138746D02*
X15858277Y-16195888D01*
X15858277Y-16195888D02*
X15848753Y-16214936D01*
X15848753Y-16214936D02*
X15839230Y-16224460D01*
X15839230Y-16224460D02*
X15820182Y-16233984D01*
X15820182Y-16233984D02*
X15791610Y-16233984D01*
X15972563Y-16233984D02*
X15953515Y-16224460D01*
X15953515Y-16224460D02*
X15943991Y-16205412D01*
X15943991Y-16205412D02*
X15943991Y-16033984D01*
X16124944Y-16224460D02*
X16105896Y-16233984D01*
X16105896Y-16233984D02*
X16067801Y-16233984D01*
X16067801Y-16233984D02*
X16048753Y-16224460D01*
X16048753Y-16224460D02*
X16039230Y-16205412D01*
X16039230Y-16205412D02*
X16039230Y-16129222D01*
X16039230Y-16129222D02*
X16048753Y-16110174D01*
X16048753Y-16110174D02*
X16067801Y-16100650D01*
X16067801Y-16100650D02*
X16105896Y-16100650D01*
X16105896Y-16100650D02*
X16124944Y-16110174D01*
X16124944Y-16110174D02*
X16134468Y-16129222D01*
X16134468Y-16129222D02*
X16134468Y-16148269D01*
X16134468Y-16148269D02*
X16039230Y-16167317D01*
X16210658Y-16224460D02*
X16229706Y-16233984D01*
X16229706Y-16233984D02*
X16267801Y-16233984D01*
X16267801Y-16233984D02*
X16286849Y-16224460D01*
X16286849Y-16224460D02*
X16296372Y-16205412D01*
X16296372Y-16205412D02*
X16296372Y-16195888D01*
X16296372Y-16195888D02*
X16286849Y-16176841D01*
X16286849Y-16176841D02*
X16267801Y-16167317D01*
X16267801Y-16167317D02*
X16239230Y-16167317D01*
X16239230Y-16167317D02*
X16220182Y-16157793D01*
X16220182Y-16157793D02*
X16210658Y-16138746D01*
X16210658Y-16138746D02*
X16210658Y-16129222D01*
X16210658Y-16129222D02*
X16220182Y-16110174D01*
X16220182Y-16110174D02*
X16239230Y-16100650D01*
X16239230Y-16100650D02*
X16267801Y-16100650D01*
X16267801Y-16100650D02*
X16286849Y-16110174D01*
X16363039Y-16310174D02*
X16372563Y-16300650D01*
X16372563Y-16300650D02*
X16391611Y-16272079D01*
X16391611Y-16272079D02*
X16401134Y-16253031D01*
X16401134Y-16253031D02*
X16410658Y-16224460D01*
X16410658Y-16224460D02*
X16420182Y-16176841D01*
X16420182Y-16176841D02*
X16420182Y-16138746D01*
X16420182Y-16138746D02*
X16410658Y-16091127D01*
X16410658Y-16091127D02*
X16401134Y-16062555D01*
X16401134Y-16062555D02*
X16391611Y-16043508D01*
X16391611Y-16043508D02*
X16372563Y-16014936D01*
X16372563Y-16014936D02*
X16363039Y-16005412D01*
D12*
X11397500Y-16406500D02*
G75*
G02*
X11317500Y-16406500I-40000J0D01*
G01*
X11317500Y-16406500D02*
G75*
G02*
X11397500Y-16406500I40000J0D01*
G01*
D11*
X11696372Y-16297984D02*
X11715420Y-16297984D01*
X11715420Y-16297984D02*
X11734467Y-16307508D01*
X11734467Y-16307508D02*
X11743991Y-16317031D01*
X11743991Y-16317031D02*
X11753515Y-16336079D01*
X11753515Y-16336079D02*
X11763039Y-16374174D01*
X11763039Y-16374174D02*
X11763039Y-16421793D01*
X11763039Y-16421793D02*
X11753515Y-16459888D01*
X11753515Y-16459888D02*
X11743991Y-16478936D01*
X11743991Y-16478936D02*
X11734467Y-16488460D01*
X11734467Y-16488460D02*
X11715420Y-16497984D01*
X11715420Y-16497984D02*
X11696372Y-16497984D01*
X11696372Y-16497984D02*
X11677324Y-16488460D01*
X11677324Y-16488460D02*
X11667801Y-16478936D01*
X11667801Y-16478936D02*
X11658277Y-16459888D01*
X11658277Y-16459888D02*
X11648753Y-16421793D01*
X11648753Y-16421793D02*
X11648753Y-16374174D01*
X11648753Y-16374174D02*
X11658277Y-16336079D01*
X11658277Y-16336079D02*
X11667801Y-16317031D01*
X11667801Y-16317031D02*
X11677324Y-16307508D01*
X11677324Y-16307508D02*
X11696372Y-16297984D01*
X11848753Y-16478936D02*
X11858277Y-16488460D01*
X11858277Y-16488460D02*
X11848753Y-16497984D01*
X11848753Y-16497984D02*
X11839229Y-16488460D01*
X11839229Y-16488460D02*
X11848753Y-16478936D01*
X11848753Y-16478936D02*
X11848753Y-16497984D01*
X11972562Y-16383698D02*
X11953515Y-16374174D01*
X11953515Y-16374174D02*
X11943991Y-16364650D01*
X11943991Y-16364650D02*
X11934467Y-16345603D01*
X11934467Y-16345603D02*
X11934467Y-16336079D01*
X11934467Y-16336079D02*
X11943991Y-16317031D01*
X11943991Y-16317031D02*
X11953515Y-16307508D01*
X11953515Y-16307508D02*
X11972562Y-16297984D01*
X11972562Y-16297984D02*
X12010658Y-16297984D01*
X12010658Y-16297984D02*
X12029705Y-16307508D01*
X12029705Y-16307508D02*
X12039229Y-16317031D01*
X12039229Y-16317031D02*
X12048753Y-16336079D01*
X12048753Y-16336079D02*
X12048753Y-16345603D01*
X12048753Y-16345603D02*
X12039229Y-16364650D01*
X12039229Y-16364650D02*
X12029705Y-16374174D01*
X12029705Y-16374174D02*
X12010658Y-16383698D01*
X12010658Y-16383698D02*
X11972562Y-16383698D01*
X11972562Y-16383698D02*
X11953515Y-16393222D01*
X11953515Y-16393222D02*
X11943991Y-16402746D01*
X11943991Y-16402746D02*
X11934467Y-16421793D01*
X11934467Y-16421793D02*
X11934467Y-16459888D01*
X11934467Y-16459888D02*
X11943991Y-16478936D01*
X11943991Y-16478936D02*
X11953515Y-16488460D01*
X11953515Y-16488460D02*
X11972562Y-16497984D01*
X11972562Y-16497984D02*
X12010658Y-16497984D01*
X12010658Y-16497984D02*
X12029705Y-16488460D01*
X12029705Y-16488460D02*
X12039229Y-16478936D01*
X12039229Y-16478936D02*
X12048753Y-16459888D01*
X12048753Y-16459888D02*
X12048753Y-16421793D01*
X12048753Y-16421793D02*
X12039229Y-16402746D01*
X12039229Y-16402746D02*
X12029705Y-16393222D01*
X12029705Y-16393222D02*
X12010658Y-16383698D01*
X12172562Y-16297984D02*
X12191610Y-16297984D01*
X12191610Y-16297984D02*
X12210658Y-16307508D01*
X12210658Y-16307508D02*
X12220182Y-16317031D01*
X12220182Y-16317031D02*
X12229705Y-16336079D01*
X12229705Y-16336079D02*
X12239229Y-16374174D01*
X12239229Y-16374174D02*
X12239229Y-16421793D01*
X12239229Y-16421793D02*
X12229705Y-16459888D01*
X12229705Y-16459888D02*
X12220182Y-16478936D01*
X12220182Y-16478936D02*
X12210658Y-16488460D01*
X12210658Y-16488460D02*
X12191610Y-16497984D01*
X12191610Y-16497984D02*
X12172562Y-16497984D01*
X12172562Y-16497984D02*
X12153515Y-16488460D01*
X12153515Y-16488460D02*
X12143991Y-16478936D01*
X12143991Y-16478936D02*
X12134467Y-16459888D01*
X12134467Y-16459888D02*
X12124943Y-16421793D01*
X12124943Y-16421793D02*
X12124943Y-16374174D01*
X12124943Y-16374174D02*
X12134467Y-16336079D01*
X12134467Y-16336079D02*
X12143991Y-16317031D01*
X12143991Y-16317031D02*
X12153515Y-16307508D01*
X12153515Y-16307508D02*
X12172562Y-16297984D01*
X12363039Y-16297984D02*
X12382086Y-16297984D01*
X12382086Y-16297984D02*
X12401134Y-16307508D01*
X12401134Y-16307508D02*
X12410658Y-16317031D01*
X12410658Y-16317031D02*
X12420182Y-16336079D01*
X12420182Y-16336079D02*
X12429705Y-16374174D01*
X12429705Y-16374174D02*
X12429705Y-16421793D01*
X12429705Y-16421793D02*
X12420182Y-16459888D01*
X12420182Y-16459888D02*
X12410658Y-16478936D01*
X12410658Y-16478936D02*
X12401134Y-16488460D01*
X12401134Y-16488460D02*
X12382086Y-16497984D01*
X12382086Y-16497984D02*
X12363039Y-16497984D01*
X12363039Y-16497984D02*
X12343991Y-16488460D01*
X12343991Y-16488460D02*
X12334467Y-16478936D01*
X12334467Y-16478936D02*
X12324943Y-16459888D01*
X12324943Y-16459888D02*
X12315420Y-16421793D01*
X12315420Y-16421793D02*
X12315420Y-16374174D01*
X12315420Y-16374174D02*
X12324943Y-16336079D01*
X12324943Y-16336079D02*
X12334467Y-16317031D01*
X12334467Y-16317031D02*
X12343991Y-16307508D01*
X12343991Y-16307508D02*
X12363039Y-16297984D01*
X12515420Y-16497984D02*
X12515420Y-16364650D01*
X12515420Y-16383698D02*
X12524943Y-16374174D01*
X12524943Y-16374174D02*
X12543991Y-16364650D01*
X12543991Y-16364650D02*
X12572563Y-16364650D01*
X12572563Y-16364650D02*
X12591610Y-16374174D01*
X12591610Y-16374174D02*
X12601134Y-16393222D01*
X12601134Y-16393222D02*
X12601134Y-16497984D01*
X12601134Y-16393222D02*
X12610658Y-16374174D01*
X12610658Y-16374174D02*
X12629705Y-16364650D01*
X12629705Y-16364650D02*
X12658277Y-16364650D01*
X12658277Y-16364650D02*
X12677324Y-16374174D01*
X12677324Y-16374174D02*
X12686848Y-16393222D01*
X12686848Y-16393222D02*
X12686848Y-16497984D01*
X12782086Y-16497984D02*
X12782086Y-16364650D01*
X12782086Y-16383698D02*
X12791610Y-16374174D01*
X12791610Y-16374174D02*
X12810658Y-16364650D01*
X12810658Y-16364650D02*
X12839229Y-16364650D01*
X12839229Y-16364650D02*
X12858277Y-16374174D01*
X12858277Y-16374174D02*
X12867801Y-16393222D01*
X12867801Y-16393222D02*
X12867801Y-16497984D01*
X12867801Y-16393222D02*
X12877324Y-16374174D01*
X12877324Y-16374174D02*
X12896372Y-16364650D01*
X12896372Y-16364650D02*
X12924943Y-16364650D01*
X12924943Y-16364650D02*
X12943991Y-16374174D01*
X12943991Y-16374174D02*
X12953515Y-16393222D01*
X12953515Y-16393222D02*
X12953515Y-16497984D01*
X13343991Y-16288460D02*
X13172563Y-16545603D01*
X13601134Y-16297984D02*
X13620182Y-16297984D01*
X13620182Y-16297984D02*
X13639229Y-16307508D01*
X13639229Y-16307508D02*
X13648753Y-16317031D01*
X13648753Y-16317031D02*
X13658277Y-16336079D01*
X13658277Y-16336079D02*
X13667801Y-16374174D01*
X13667801Y-16374174D02*
X13667801Y-16421793D01*
X13667801Y-16421793D02*
X13658277Y-16459888D01*
X13658277Y-16459888D02*
X13648753Y-16478936D01*
X13648753Y-16478936D02*
X13639229Y-16488460D01*
X13639229Y-16488460D02*
X13620182Y-16497984D01*
X13620182Y-16497984D02*
X13601134Y-16497984D01*
X13601134Y-16497984D02*
X13582086Y-16488460D01*
X13582086Y-16488460D02*
X13572563Y-16478936D01*
X13572563Y-16478936D02*
X13563039Y-16459888D01*
X13563039Y-16459888D02*
X13553515Y-16421793D01*
X13553515Y-16421793D02*
X13553515Y-16374174D01*
X13553515Y-16374174D02*
X13563039Y-16336079D01*
X13563039Y-16336079D02*
X13572563Y-16317031D01*
X13572563Y-16317031D02*
X13582086Y-16307508D01*
X13582086Y-16307508D02*
X13601134Y-16297984D01*
X13753515Y-16478936D02*
X13763039Y-16488460D01*
X13763039Y-16488460D02*
X13753515Y-16497984D01*
X13753515Y-16497984D02*
X13743991Y-16488460D01*
X13743991Y-16488460D02*
X13753515Y-16478936D01*
X13753515Y-16478936D02*
X13753515Y-16497984D01*
X13886848Y-16297984D02*
X13905896Y-16297984D01*
X13905896Y-16297984D02*
X13924944Y-16307508D01*
X13924944Y-16307508D02*
X13934467Y-16317031D01*
X13934467Y-16317031D02*
X13943991Y-16336079D01*
X13943991Y-16336079D02*
X13953515Y-16374174D01*
X13953515Y-16374174D02*
X13953515Y-16421793D01*
X13953515Y-16421793D02*
X13943991Y-16459888D01*
X13943991Y-16459888D02*
X13934467Y-16478936D01*
X13934467Y-16478936D02*
X13924944Y-16488460D01*
X13924944Y-16488460D02*
X13905896Y-16497984D01*
X13905896Y-16497984D02*
X13886848Y-16497984D01*
X13886848Y-16497984D02*
X13867801Y-16488460D01*
X13867801Y-16488460D02*
X13858277Y-16478936D01*
X13858277Y-16478936D02*
X13848753Y-16459888D01*
X13848753Y-16459888D02*
X13839229Y-16421793D01*
X13839229Y-16421793D02*
X13839229Y-16374174D01*
X13839229Y-16374174D02*
X13848753Y-16336079D01*
X13848753Y-16336079D02*
X13858277Y-16317031D01*
X13858277Y-16317031D02*
X13867801Y-16307508D01*
X13867801Y-16307508D02*
X13886848Y-16297984D01*
X14020182Y-16297984D02*
X14143991Y-16297984D01*
X14143991Y-16297984D02*
X14077325Y-16374174D01*
X14077325Y-16374174D02*
X14105896Y-16374174D01*
X14105896Y-16374174D02*
X14124944Y-16383698D01*
X14124944Y-16383698D02*
X14134467Y-16393222D01*
X14134467Y-16393222D02*
X14143991Y-16412269D01*
X14143991Y-16412269D02*
X14143991Y-16459888D01*
X14143991Y-16459888D02*
X14134467Y-16478936D01*
X14134467Y-16478936D02*
X14124944Y-16488460D01*
X14124944Y-16488460D02*
X14105896Y-16497984D01*
X14105896Y-16497984D02*
X14048753Y-16497984D01*
X14048753Y-16497984D02*
X14029706Y-16488460D01*
X14029706Y-16488460D02*
X14020182Y-16478936D01*
X14334467Y-16497984D02*
X14220182Y-16497984D01*
X14277325Y-16497984D02*
X14277325Y-16297984D01*
X14277325Y-16297984D02*
X14258277Y-16326555D01*
X14258277Y-16326555D02*
X14239229Y-16345603D01*
X14239229Y-16345603D02*
X14220182Y-16355127D01*
X14515420Y-16297984D02*
X14420182Y-16297984D01*
X14420182Y-16297984D02*
X14410658Y-16393222D01*
X14410658Y-16393222D02*
X14420182Y-16383698D01*
X14420182Y-16383698D02*
X14439229Y-16374174D01*
X14439229Y-16374174D02*
X14486848Y-16374174D01*
X14486848Y-16374174D02*
X14505896Y-16383698D01*
X14505896Y-16383698D02*
X14515420Y-16393222D01*
X14515420Y-16393222D02*
X14524944Y-16412269D01*
X14524944Y-16412269D02*
X14524944Y-16459888D01*
X14524944Y-16459888D02*
X14515420Y-16478936D01*
X14515420Y-16478936D02*
X14505896Y-16488460D01*
X14505896Y-16488460D02*
X14486848Y-16497984D01*
X14486848Y-16497984D02*
X14439229Y-16497984D01*
X14439229Y-16497984D02*
X14420182Y-16488460D01*
X14420182Y-16488460D02*
X14410658Y-16478936D01*
X14601134Y-16297984D02*
X14601134Y-16336079D01*
X14677325Y-16297984D02*
X14677325Y-16336079D01*
X14972563Y-16574174D02*
X14963039Y-16564650D01*
X14963039Y-16564650D02*
X14943991Y-16536079D01*
X14943991Y-16536079D02*
X14934468Y-16517031D01*
X14934468Y-16517031D02*
X14924944Y-16488460D01*
X14924944Y-16488460D02*
X14915420Y-16440841D01*
X14915420Y-16440841D02*
X14915420Y-16402746D01*
X14915420Y-16402746D02*
X14924944Y-16355127D01*
X14924944Y-16355127D02*
X14934468Y-16326555D01*
X14934468Y-16326555D02*
X14943991Y-16307508D01*
X14943991Y-16307508D02*
X14963039Y-16278936D01*
X14963039Y-16278936D02*
X14972563Y-16269412D01*
X15153515Y-16497984D02*
X15039229Y-16497984D01*
X15096372Y-16497984D02*
X15096372Y-16297984D01*
X15096372Y-16297984D02*
X15077325Y-16326555D01*
X15077325Y-16326555D02*
X15058277Y-16345603D01*
X15058277Y-16345603D02*
X15039229Y-16355127D01*
X15267801Y-16383698D02*
X15248753Y-16374174D01*
X15248753Y-16374174D02*
X15239229Y-16364650D01*
X15239229Y-16364650D02*
X15229706Y-16345603D01*
X15229706Y-16345603D02*
X15229706Y-16336079D01*
X15229706Y-16336079D02*
X15239229Y-16317031D01*
X15239229Y-16317031D02*
X15248753Y-16307508D01*
X15248753Y-16307508D02*
X15267801Y-16297984D01*
X15267801Y-16297984D02*
X15305896Y-16297984D01*
X15305896Y-16297984D02*
X15324944Y-16307508D01*
X15324944Y-16307508D02*
X15334468Y-16317031D01*
X15334468Y-16317031D02*
X15343991Y-16336079D01*
X15343991Y-16336079D02*
X15343991Y-16345603D01*
X15343991Y-16345603D02*
X15334468Y-16364650D01*
X15334468Y-16364650D02*
X15324944Y-16374174D01*
X15324944Y-16374174D02*
X15305896Y-16383698D01*
X15305896Y-16383698D02*
X15267801Y-16383698D01*
X15267801Y-16383698D02*
X15248753Y-16393222D01*
X15248753Y-16393222D02*
X15239229Y-16402746D01*
X15239229Y-16402746D02*
X15229706Y-16421793D01*
X15229706Y-16421793D02*
X15229706Y-16459888D01*
X15229706Y-16459888D02*
X15239229Y-16478936D01*
X15239229Y-16478936D02*
X15248753Y-16488460D01*
X15248753Y-16488460D02*
X15267801Y-16497984D01*
X15267801Y-16497984D02*
X15305896Y-16497984D01*
X15305896Y-16497984D02*
X15324944Y-16488460D01*
X15324944Y-16488460D02*
X15334468Y-16478936D01*
X15334468Y-16478936D02*
X15343991Y-16459888D01*
X15343991Y-16459888D02*
X15343991Y-16421793D01*
X15343991Y-16421793D02*
X15334468Y-16402746D01*
X15334468Y-16402746D02*
X15324944Y-16393222D01*
X15324944Y-16393222D02*
X15305896Y-16383698D01*
X15582087Y-16497984D02*
X15582087Y-16297984D01*
X15667801Y-16497984D02*
X15667801Y-16393222D01*
X15667801Y-16393222D02*
X15658277Y-16374174D01*
X15658277Y-16374174D02*
X15639230Y-16364650D01*
X15639230Y-16364650D02*
X15610658Y-16364650D01*
X15610658Y-16364650D02*
X15591610Y-16374174D01*
X15591610Y-16374174D02*
X15582087Y-16383698D01*
X15791610Y-16497984D02*
X15772563Y-16488460D01*
X15772563Y-16488460D02*
X15763039Y-16478936D01*
X15763039Y-16478936D02*
X15753515Y-16459888D01*
X15753515Y-16459888D02*
X15753515Y-16402746D01*
X15753515Y-16402746D02*
X15763039Y-16383698D01*
X15763039Y-16383698D02*
X15772563Y-16374174D01*
X15772563Y-16374174D02*
X15791610Y-16364650D01*
X15791610Y-16364650D02*
X15820182Y-16364650D01*
X15820182Y-16364650D02*
X15839230Y-16374174D01*
X15839230Y-16374174D02*
X15848753Y-16383698D01*
X15848753Y-16383698D02*
X15858277Y-16402746D01*
X15858277Y-16402746D02*
X15858277Y-16459888D01*
X15858277Y-16459888D02*
X15848753Y-16478936D01*
X15848753Y-16478936D02*
X15839230Y-16488460D01*
X15839230Y-16488460D02*
X15820182Y-16497984D01*
X15820182Y-16497984D02*
X15791610Y-16497984D01*
X15972563Y-16497984D02*
X15953515Y-16488460D01*
X15953515Y-16488460D02*
X15943991Y-16469412D01*
X15943991Y-16469412D02*
X15943991Y-16297984D01*
X16124944Y-16488460D02*
X16105896Y-16497984D01*
X16105896Y-16497984D02*
X16067801Y-16497984D01*
X16067801Y-16497984D02*
X16048753Y-16488460D01*
X16048753Y-16488460D02*
X16039230Y-16469412D01*
X16039230Y-16469412D02*
X16039230Y-16393222D01*
X16039230Y-16393222D02*
X16048753Y-16374174D01*
X16048753Y-16374174D02*
X16067801Y-16364650D01*
X16067801Y-16364650D02*
X16105896Y-16364650D01*
X16105896Y-16364650D02*
X16124944Y-16374174D01*
X16124944Y-16374174D02*
X16134468Y-16393222D01*
X16134468Y-16393222D02*
X16134468Y-16412269D01*
X16134468Y-16412269D02*
X16039230Y-16431317D01*
X16210658Y-16488460D02*
X16229706Y-16497984D01*
X16229706Y-16497984D02*
X16267801Y-16497984D01*
X16267801Y-16497984D02*
X16286849Y-16488460D01*
X16286849Y-16488460D02*
X16296372Y-16469412D01*
X16296372Y-16469412D02*
X16296372Y-16459888D01*
X16296372Y-16459888D02*
X16286849Y-16440841D01*
X16286849Y-16440841D02*
X16267801Y-16431317D01*
X16267801Y-16431317D02*
X16239230Y-16431317D01*
X16239230Y-16431317D02*
X16220182Y-16421793D01*
X16220182Y-16421793D02*
X16210658Y-16402746D01*
X16210658Y-16402746D02*
X16210658Y-16393222D01*
X16210658Y-16393222D02*
X16220182Y-16374174D01*
X16220182Y-16374174D02*
X16239230Y-16364650D01*
X16239230Y-16364650D02*
X16267801Y-16364650D01*
X16267801Y-16364650D02*
X16286849Y-16374174D01*
X16363039Y-16574174D02*
X16372563Y-16564650D01*
X16372563Y-16564650D02*
X16391611Y-16536079D01*
X16391611Y-16536079D02*
X16401134Y-16517031D01*
X16401134Y-16517031D02*
X16410658Y-16488460D01*
X16410658Y-16488460D02*
X16420182Y-16440841D01*
X16420182Y-16440841D02*
X16420182Y-16402746D01*
X16420182Y-16402746D02*
X16410658Y-16355127D01*
X16410658Y-16355127D02*
X16401134Y-16326555D01*
X16401134Y-16326555D02*
X16391611Y-16307508D01*
X16391611Y-16307508D02*
X16372563Y-16278936D01*
X16372563Y-16278936D02*
X16363039Y-16269412D01*
D12*
X11347500Y-16620500D02*
X11347500Y-16720500D01*
X11297500Y-16670500D02*
X11397500Y-16670500D01*
D11*
X11763039Y-16761984D02*
X11648753Y-16761984D01*
X11705896Y-16761984D02*
X11705896Y-16561984D01*
X11705896Y-16561984D02*
X11686848Y-16590555D01*
X11686848Y-16590555D02*
X11667801Y-16609603D01*
X11667801Y-16609603D02*
X11648753Y-16619127D01*
X11848753Y-16742936D02*
X11858277Y-16752460D01*
X11858277Y-16752460D02*
X11848753Y-16761984D01*
X11848753Y-16761984D02*
X11839229Y-16752460D01*
X11839229Y-16752460D02*
X11848753Y-16742936D01*
X11848753Y-16742936D02*
X11848753Y-16761984D01*
X11982086Y-16561984D02*
X12001134Y-16561984D01*
X12001134Y-16561984D02*
X12020182Y-16571508D01*
X12020182Y-16571508D02*
X12029705Y-16581031D01*
X12029705Y-16581031D02*
X12039229Y-16600079D01*
X12039229Y-16600079D02*
X12048753Y-16638174D01*
X12048753Y-16638174D02*
X12048753Y-16685793D01*
X12048753Y-16685793D02*
X12039229Y-16723888D01*
X12039229Y-16723888D02*
X12029705Y-16742936D01*
X12029705Y-16742936D02*
X12020182Y-16752460D01*
X12020182Y-16752460D02*
X12001134Y-16761984D01*
X12001134Y-16761984D02*
X11982086Y-16761984D01*
X11982086Y-16761984D02*
X11963039Y-16752460D01*
X11963039Y-16752460D02*
X11953515Y-16742936D01*
X11953515Y-16742936D02*
X11943991Y-16723888D01*
X11943991Y-16723888D02*
X11934467Y-16685793D01*
X11934467Y-16685793D02*
X11934467Y-16638174D01*
X11934467Y-16638174D02*
X11943991Y-16600079D01*
X11943991Y-16600079D02*
X11953515Y-16581031D01*
X11953515Y-16581031D02*
X11963039Y-16571508D01*
X11963039Y-16571508D02*
X11982086Y-16561984D01*
X12172562Y-16561984D02*
X12191610Y-16561984D01*
X12191610Y-16561984D02*
X12210658Y-16571508D01*
X12210658Y-16571508D02*
X12220182Y-16581031D01*
X12220182Y-16581031D02*
X12229705Y-16600079D01*
X12229705Y-16600079D02*
X12239229Y-16638174D01*
X12239229Y-16638174D02*
X12239229Y-16685793D01*
X12239229Y-16685793D02*
X12229705Y-16723888D01*
X12229705Y-16723888D02*
X12220182Y-16742936D01*
X12220182Y-16742936D02*
X12210658Y-16752460D01*
X12210658Y-16752460D02*
X12191610Y-16761984D01*
X12191610Y-16761984D02*
X12172562Y-16761984D01*
X12172562Y-16761984D02*
X12153515Y-16752460D01*
X12153515Y-16752460D02*
X12143991Y-16742936D01*
X12143991Y-16742936D02*
X12134467Y-16723888D01*
X12134467Y-16723888D02*
X12124943Y-16685793D01*
X12124943Y-16685793D02*
X12124943Y-16638174D01*
X12124943Y-16638174D02*
X12134467Y-16600079D01*
X12134467Y-16600079D02*
X12143991Y-16581031D01*
X12143991Y-16581031D02*
X12153515Y-16571508D01*
X12153515Y-16571508D02*
X12172562Y-16561984D01*
X12363039Y-16561984D02*
X12382086Y-16561984D01*
X12382086Y-16561984D02*
X12401134Y-16571508D01*
X12401134Y-16571508D02*
X12410658Y-16581031D01*
X12410658Y-16581031D02*
X12420182Y-16600079D01*
X12420182Y-16600079D02*
X12429705Y-16638174D01*
X12429705Y-16638174D02*
X12429705Y-16685793D01*
X12429705Y-16685793D02*
X12420182Y-16723888D01*
X12420182Y-16723888D02*
X12410658Y-16742936D01*
X12410658Y-16742936D02*
X12401134Y-16752460D01*
X12401134Y-16752460D02*
X12382086Y-16761984D01*
X12382086Y-16761984D02*
X12363039Y-16761984D01*
X12363039Y-16761984D02*
X12343991Y-16752460D01*
X12343991Y-16752460D02*
X12334467Y-16742936D01*
X12334467Y-16742936D02*
X12324943Y-16723888D01*
X12324943Y-16723888D02*
X12315420Y-16685793D01*
X12315420Y-16685793D02*
X12315420Y-16638174D01*
X12315420Y-16638174D02*
X12324943Y-16600079D01*
X12324943Y-16600079D02*
X12334467Y-16581031D01*
X12334467Y-16581031D02*
X12343991Y-16571508D01*
X12343991Y-16571508D02*
X12363039Y-16561984D01*
X12515420Y-16761984D02*
X12515420Y-16628650D01*
X12515420Y-16647698D02*
X12524943Y-16638174D01*
X12524943Y-16638174D02*
X12543991Y-16628650D01*
X12543991Y-16628650D02*
X12572563Y-16628650D01*
X12572563Y-16628650D02*
X12591610Y-16638174D01*
X12591610Y-16638174D02*
X12601134Y-16657222D01*
X12601134Y-16657222D02*
X12601134Y-16761984D01*
X12601134Y-16657222D02*
X12610658Y-16638174D01*
X12610658Y-16638174D02*
X12629705Y-16628650D01*
X12629705Y-16628650D02*
X12658277Y-16628650D01*
X12658277Y-16628650D02*
X12677324Y-16638174D01*
X12677324Y-16638174D02*
X12686848Y-16657222D01*
X12686848Y-16657222D02*
X12686848Y-16761984D01*
X12782086Y-16761984D02*
X12782086Y-16628650D01*
X12782086Y-16647698D02*
X12791610Y-16638174D01*
X12791610Y-16638174D02*
X12810658Y-16628650D01*
X12810658Y-16628650D02*
X12839229Y-16628650D01*
X12839229Y-16628650D02*
X12858277Y-16638174D01*
X12858277Y-16638174D02*
X12867801Y-16657222D01*
X12867801Y-16657222D02*
X12867801Y-16761984D01*
X12867801Y-16657222D02*
X12877324Y-16638174D01*
X12877324Y-16638174D02*
X12896372Y-16628650D01*
X12896372Y-16628650D02*
X12924943Y-16628650D01*
X12924943Y-16628650D02*
X12943991Y-16638174D01*
X12943991Y-16638174D02*
X12953515Y-16657222D01*
X12953515Y-16657222D02*
X12953515Y-16761984D01*
X13343991Y-16552460D02*
X13172563Y-16809603D01*
X13601134Y-16561984D02*
X13620182Y-16561984D01*
X13620182Y-16561984D02*
X13639229Y-16571508D01*
X13639229Y-16571508D02*
X13648753Y-16581031D01*
X13648753Y-16581031D02*
X13658277Y-16600079D01*
X13658277Y-16600079D02*
X13667801Y-16638174D01*
X13667801Y-16638174D02*
X13667801Y-16685793D01*
X13667801Y-16685793D02*
X13658277Y-16723888D01*
X13658277Y-16723888D02*
X13648753Y-16742936D01*
X13648753Y-16742936D02*
X13639229Y-16752460D01*
X13639229Y-16752460D02*
X13620182Y-16761984D01*
X13620182Y-16761984D02*
X13601134Y-16761984D01*
X13601134Y-16761984D02*
X13582086Y-16752460D01*
X13582086Y-16752460D02*
X13572563Y-16742936D01*
X13572563Y-16742936D02*
X13563039Y-16723888D01*
X13563039Y-16723888D02*
X13553515Y-16685793D01*
X13553515Y-16685793D02*
X13553515Y-16638174D01*
X13553515Y-16638174D02*
X13563039Y-16600079D01*
X13563039Y-16600079D02*
X13572563Y-16581031D01*
X13572563Y-16581031D02*
X13582086Y-16571508D01*
X13582086Y-16571508D02*
X13601134Y-16561984D01*
X13753515Y-16742936D02*
X13763039Y-16752460D01*
X13763039Y-16752460D02*
X13753515Y-16761984D01*
X13753515Y-16761984D02*
X13743991Y-16752460D01*
X13743991Y-16752460D02*
X13753515Y-16742936D01*
X13753515Y-16742936D02*
X13753515Y-16761984D01*
X13886848Y-16561984D02*
X13905896Y-16561984D01*
X13905896Y-16561984D02*
X13924944Y-16571508D01*
X13924944Y-16571508D02*
X13934467Y-16581031D01*
X13934467Y-16581031D02*
X13943991Y-16600079D01*
X13943991Y-16600079D02*
X13953515Y-16638174D01*
X13953515Y-16638174D02*
X13953515Y-16685793D01*
X13953515Y-16685793D02*
X13943991Y-16723888D01*
X13943991Y-16723888D02*
X13934467Y-16742936D01*
X13934467Y-16742936D02*
X13924944Y-16752460D01*
X13924944Y-16752460D02*
X13905896Y-16761984D01*
X13905896Y-16761984D02*
X13886848Y-16761984D01*
X13886848Y-16761984D02*
X13867801Y-16752460D01*
X13867801Y-16752460D02*
X13858277Y-16742936D01*
X13858277Y-16742936D02*
X13848753Y-16723888D01*
X13848753Y-16723888D02*
X13839229Y-16685793D01*
X13839229Y-16685793D02*
X13839229Y-16638174D01*
X13839229Y-16638174D02*
X13848753Y-16600079D01*
X13848753Y-16600079D02*
X13858277Y-16581031D01*
X13858277Y-16581031D02*
X13867801Y-16571508D01*
X13867801Y-16571508D02*
X13886848Y-16561984D01*
X14020182Y-16561984D02*
X14143991Y-16561984D01*
X14143991Y-16561984D02*
X14077325Y-16638174D01*
X14077325Y-16638174D02*
X14105896Y-16638174D01*
X14105896Y-16638174D02*
X14124944Y-16647698D01*
X14124944Y-16647698D02*
X14134467Y-16657222D01*
X14134467Y-16657222D02*
X14143991Y-16676269D01*
X14143991Y-16676269D02*
X14143991Y-16723888D01*
X14143991Y-16723888D02*
X14134467Y-16742936D01*
X14134467Y-16742936D02*
X14124944Y-16752460D01*
X14124944Y-16752460D02*
X14105896Y-16761984D01*
X14105896Y-16761984D02*
X14048753Y-16761984D01*
X14048753Y-16761984D02*
X14029706Y-16752460D01*
X14029706Y-16752460D02*
X14020182Y-16742936D01*
X14239229Y-16761984D02*
X14277325Y-16761984D01*
X14277325Y-16761984D02*
X14296372Y-16752460D01*
X14296372Y-16752460D02*
X14305896Y-16742936D01*
X14305896Y-16742936D02*
X14324944Y-16714365D01*
X14324944Y-16714365D02*
X14334467Y-16676269D01*
X14334467Y-16676269D02*
X14334467Y-16600079D01*
X14334467Y-16600079D02*
X14324944Y-16581031D01*
X14324944Y-16581031D02*
X14315420Y-16571508D01*
X14315420Y-16571508D02*
X14296372Y-16561984D01*
X14296372Y-16561984D02*
X14258277Y-16561984D01*
X14258277Y-16561984D02*
X14239229Y-16571508D01*
X14239229Y-16571508D02*
X14229706Y-16581031D01*
X14229706Y-16581031D02*
X14220182Y-16600079D01*
X14220182Y-16600079D02*
X14220182Y-16647698D01*
X14220182Y-16647698D02*
X14229706Y-16666746D01*
X14229706Y-16666746D02*
X14239229Y-16676269D01*
X14239229Y-16676269D02*
X14258277Y-16685793D01*
X14258277Y-16685793D02*
X14296372Y-16685793D01*
X14296372Y-16685793D02*
X14315420Y-16676269D01*
X14315420Y-16676269D02*
X14324944Y-16666746D01*
X14324944Y-16666746D02*
X14334467Y-16647698D01*
X14505896Y-16628650D02*
X14505896Y-16761984D01*
X14458277Y-16552460D02*
X14410658Y-16695317D01*
X14410658Y-16695317D02*
X14534467Y-16695317D01*
X14601134Y-16561984D02*
X14601134Y-16600079D01*
X14677325Y-16561984D02*
X14677325Y-16600079D01*
X14972563Y-16838174D02*
X14963039Y-16828650D01*
X14963039Y-16828650D02*
X14943991Y-16800079D01*
X14943991Y-16800079D02*
X14934468Y-16781031D01*
X14934468Y-16781031D02*
X14924944Y-16752460D01*
X14924944Y-16752460D02*
X14915420Y-16704841D01*
X14915420Y-16704841D02*
X14915420Y-16666746D01*
X14915420Y-16666746D02*
X14924944Y-16619127D01*
X14924944Y-16619127D02*
X14934468Y-16590555D01*
X14934468Y-16590555D02*
X14943991Y-16571508D01*
X14943991Y-16571508D02*
X14963039Y-16542936D01*
X14963039Y-16542936D02*
X14972563Y-16533412D01*
X15153515Y-16761984D02*
X15039229Y-16761984D01*
X15096372Y-16761984D02*
X15096372Y-16561984D01*
X15096372Y-16561984D02*
X15077325Y-16590555D01*
X15077325Y-16590555D02*
X15058277Y-16609603D01*
X15058277Y-16609603D02*
X15039229Y-16619127D01*
X15277325Y-16561984D02*
X15296372Y-16561984D01*
X15296372Y-16561984D02*
X15315420Y-16571508D01*
X15315420Y-16571508D02*
X15324944Y-16581031D01*
X15324944Y-16581031D02*
X15334468Y-16600079D01*
X15334468Y-16600079D02*
X15343991Y-16638174D01*
X15343991Y-16638174D02*
X15343991Y-16685793D01*
X15343991Y-16685793D02*
X15334468Y-16723888D01*
X15334468Y-16723888D02*
X15324944Y-16742936D01*
X15324944Y-16742936D02*
X15315420Y-16752460D01*
X15315420Y-16752460D02*
X15296372Y-16761984D01*
X15296372Y-16761984D02*
X15277325Y-16761984D01*
X15277325Y-16761984D02*
X15258277Y-16752460D01*
X15258277Y-16752460D02*
X15248753Y-16742936D01*
X15248753Y-16742936D02*
X15239229Y-16723888D01*
X15239229Y-16723888D02*
X15229706Y-16685793D01*
X15229706Y-16685793D02*
X15229706Y-16638174D01*
X15229706Y-16638174D02*
X15239229Y-16600079D01*
X15239229Y-16600079D02*
X15248753Y-16581031D01*
X15248753Y-16581031D02*
X15258277Y-16571508D01*
X15258277Y-16571508D02*
X15277325Y-16561984D01*
X15582087Y-16761984D02*
X15582087Y-16561984D01*
X15667801Y-16761984D02*
X15667801Y-16657222D01*
X15667801Y-16657222D02*
X15658277Y-16638174D01*
X15658277Y-16638174D02*
X15639230Y-16628650D01*
X15639230Y-16628650D02*
X15610658Y-16628650D01*
X15610658Y-16628650D02*
X15591610Y-16638174D01*
X15591610Y-16638174D02*
X15582087Y-16647698D01*
X15791610Y-16761984D02*
X15772563Y-16752460D01*
X15772563Y-16752460D02*
X15763039Y-16742936D01*
X15763039Y-16742936D02*
X15753515Y-16723888D01*
X15753515Y-16723888D02*
X15753515Y-16666746D01*
X15753515Y-16666746D02*
X15763039Y-16647698D01*
X15763039Y-16647698D02*
X15772563Y-16638174D01*
X15772563Y-16638174D02*
X15791610Y-16628650D01*
X15791610Y-16628650D02*
X15820182Y-16628650D01*
X15820182Y-16628650D02*
X15839230Y-16638174D01*
X15839230Y-16638174D02*
X15848753Y-16647698D01*
X15848753Y-16647698D02*
X15858277Y-16666746D01*
X15858277Y-16666746D02*
X15858277Y-16723888D01*
X15858277Y-16723888D02*
X15848753Y-16742936D01*
X15848753Y-16742936D02*
X15839230Y-16752460D01*
X15839230Y-16752460D02*
X15820182Y-16761984D01*
X15820182Y-16761984D02*
X15791610Y-16761984D01*
X15972563Y-16761984D02*
X15953515Y-16752460D01*
X15953515Y-16752460D02*
X15943991Y-16733412D01*
X15943991Y-16733412D02*
X15943991Y-16561984D01*
X16124944Y-16752460D02*
X16105896Y-16761984D01*
X16105896Y-16761984D02*
X16067801Y-16761984D01*
X16067801Y-16761984D02*
X16048753Y-16752460D01*
X16048753Y-16752460D02*
X16039230Y-16733412D01*
X16039230Y-16733412D02*
X16039230Y-16657222D01*
X16039230Y-16657222D02*
X16048753Y-16638174D01*
X16048753Y-16638174D02*
X16067801Y-16628650D01*
X16067801Y-16628650D02*
X16105896Y-16628650D01*
X16105896Y-16628650D02*
X16124944Y-16638174D01*
X16124944Y-16638174D02*
X16134468Y-16657222D01*
X16134468Y-16657222D02*
X16134468Y-16676269D01*
X16134468Y-16676269D02*
X16039230Y-16695317D01*
X16210658Y-16752460D02*
X16229706Y-16761984D01*
X16229706Y-16761984D02*
X16267801Y-16761984D01*
X16267801Y-16761984D02*
X16286849Y-16752460D01*
X16286849Y-16752460D02*
X16296372Y-16733412D01*
X16296372Y-16733412D02*
X16296372Y-16723888D01*
X16296372Y-16723888D02*
X16286849Y-16704841D01*
X16286849Y-16704841D02*
X16267801Y-16695317D01*
X16267801Y-16695317D02*
X16239230Y-16695317D01*
X16239230Y-16695317D02*
X16220182Y-16685793D01*
X16220182Y-16685793D02*
X16210658Y-16666746D01*
X16210658Y-16666746D02*
X16210658Y-16657222D01*
X16210658Y-16657222D02*
X16220182Y-16638174D01*
X16220182Y-16638174D02*
X16239230Y-16628650D01*
X16239230Y-16628650D02*
X16267801Y-16628650D01*
X16267801Y-16628650D02*
X16286849Y-16638174D01*
X16363039Y-16838174D02*
X16372563Y-16828650D01*
X16372563Y-16828650D02*
X16391611Y-16800079D01*
X16391611Y-16800079D02*
X16401134Y-16781031D01*
X16401134Y-16781031D02*
X16410658Y-16752460D01*
X16410658Y-16752460D02*
X16420182Y-16704841D01*
X16420182Y-16704841D02*
X16420182Y-16666746D01*
X16420182Y-16666746D02*
X16410658Y-16619127D01*
X16410658Y-16619127D02*
X16401134Y-16590555D01*
X16401134Y-16590555D02*
X16391611Y-16571508D01*
X16391611Y-16571508D02*
X16372563Y-16542936D01*
X16372563Y-16542936D02*
X16363039Y-16533412D01*
D13*
X11375533Y-16987534D02*
X11375533Y-16881467D01*
X11269466Y-16881467D01*
X11269466Y-16987534D01*
X11375533Y-16987534D01*
D11*
X11763039Y-17025984D02*
X11648753Y-17025984D01*
X11705896Y-17025984D02*
X11705896Y-16825984D01*
X11705896Y-16825984D02*
X11686848Y-16854555D01*
X11686848Y-16854555D02*
X11667801Y-16873603D01*
X11667801Y-16873603D02*
X11648753Y-16883127D01*
X11848753Y-17006936D02*
X11858277Y-17016460D01*
X11858277Y-17016460D02*
X11848753Y-17025984D01*
X11848753Y-17025984D02*
X11839229Y-17016460D01*
X11839229Y-17016460D02*
X11848753Y-17006936D01*
X11848753Y-17006936D02*
X11848753Y-17025984D01*
X12039229Y-16825984D02*
X11943991Y-16825984D01*
X11943991Y-16825984D02*
X11934467Y-16921222D01*
X11934467Y-16921222D02*
X11943991Y-16911698D01*
X11943991Y-16911698D02*
X11963039Y-16902174D01*
X11963039Y-16902174D02*
X12010658Y-16902174D01*
X12010658Y-16902174D02*
X12029705Y-16911698D01*
X12029705Y-16911698D02*
X12039229Y-16921222D01*
X12039229Y-16921222D02*
X12048753Y-16940270D01*
X12048753Y-16940270D02*
X12048753Y-16987889D01*
X12048753Y-16987889D02*
X12039229Y-17006936D01*
X12039229Y-17006936D02*
X12029705Y-17016460D01*
X12029705Y-17016460D02*
X12010658Y-17025984D01*
X12010658Y-17025984D02*
X11963039Y-17025984D01*
X11963039Y-17025984D02*
X11943991Y-17016460D01*
X11943991Y-17016460D02*
X11934467Y-17006936D01*
X12172562Y-16825984D02*
X12191610Y-16825984D01*
X12191610Y-16825984D02*
X12210658Y-16835508D01*
X12210658Y-16835508D02*
X12220182Y-16845031D01*
X12220182Y-16845031D02*
X12229705Y-16864079D01*
X12229705Y-16864079D02*
X12239229Y-16902174D01*
X12239229Y-16902174D02*
X12239229Y-16949793D01*
X12239229Y-16949793D02*
X12229705Y-16987889D01*
X12229705Y-16987889D02*
X12220182Y-17006936D01*
X12220182Y-17006936D02*
X12210658Y-17016460D01*
X12210658Y-17016460D02*
X12191610Y-17025984D01*
X12191610Y-17025984D02*
X12172562Y-17025984D01*
X12172562Y-17025984D02*
X12153515Y-17016460D01*
X12153515Y-17016460D02*
X12143991Y-17006936D01*
X12143991Y-17006936D02*
X12134467Y-16987889D01*
X12134467Y-16987889D02*
X12124943Y-16949793D01*
X12124943Y-16949793D02*
X12124943Y-16902174D01*
X12124943Y-16902174D02*
X12134467Y-16864079D01*
X12134467Y-16864079D02*
X12143991Y-16845031D01*
X12143991Y-16845031D02*
X12153515Y-16835508D01*
X12153515Y-16835508D02*
X12172562Y-16825984D01*
X12363039Y-16825984D02*
X12382086Y-16825984D01*
X12382086Y-16825984D02*
X12401134Y-16835508D01*
X12401134Y-16835508D02*
X12410658Y-16845031D01*
X12410658Y-16845031D02*
X12420182Y-16864079D01*
X12420182Y-16864079D02*
X12429705Y-16902174D01*
X12429705Y-16902174D02*
X12429705Y-16949793D01*
X12429705Y-16949793D02*
X12420182Y-16987889D01*
X12420182Y-16987889D02*
X12410658Y-17006936D01*
X12410658Y-17006936D02*
X12401134Y-17016460D01*
X12401134Y-17016460D02*
X12382086Y-17025984D01*
X12382086Y-17025984D02*
X12363039Y-17025984D01*
X12363039Y-17025984D02*
X12343991Y-17016460D01*
X12343991Y-17016460D02*
X12334467Y-17006936D01*
X12334467Y-17006936D02*
X12324943Y-16987889D01*
X12324943Y-16987889D02*
X12315420Y-16949793D01*
X12315420Y-16949793D02*
X12315420Y-16902174D01*
X12315420Y-16902174D02*
X12324943Y-16864079D01*
X12324943Y-16864079D02*
X12334467Y-16845031D01*
X12334467Y-16845031D02*
X12343991Y-16835508D01*
X12343991Y-16835508D02*
X12363039Y-16825984D01*
X12515420Y-17025984D02*
X12515420Y-16892650D01*
X12515420Y-16911698D02*
X12524943Y-16902174D01*
X12524943Y-16902174D02*
X12543991Y-16892650D01*
X12543991Y-16892650D02*
X12572563Y-16892650D01*
X12572563Y-16892650D02*
X12591610Y-16902174D01*
X12591610Y-16902174D02*
X12601134Y-16921222D01*
X12601134Y-16921222D02*
X12601134Y-17025984D01*
X12601134Y-16921222D02*
X12610658Y-16902174D01*
X12610658Y-16902174D02*
X12629705Y-16892650D01*
X12629705Y-16892650D02*
X12658277Y-16892650D01*
X12658277Y-16892650D02*
X12677324Y-16902174D01*
X12677324Y-16902174D02*
X12686848Y-16921222D01*
X12686848Y-16921222D02*
X12686848Y-17025984D01*
X12782086Y-17025984D02*
X12782086Y-16892650D01*
X12782086Y-16911698D02*
X12791610Y-16902174D01*
X12791610Y-16902174D02*
X12810658Y-16892650D01*
X12810658Y-16892650D02*
X12839229Y-16892650D01*
X12839229Y-16892650D02*
X12858277Y-16902174D01*
X12858277Y-16902174D02*
X12867801Y-16921222D01*
X12867801Y-16921222D02*
X12867801Y-17025984D01*
X12867801Y-16921222D02*
X12877324Y-16902174D01*
X12877324Y-16902174D02*
X12896372Y-16892650D01*
X12896372Y-16892650D02*
X12924943Y-16892650D01*
X12924943Y-16892650D02*
X12943991Y-16902174D01*
X12943991Y-16902174D02*
X12953515Y-16921222D01*
X12953515Y-16921222D02*
X12953515Y-17025984D01*
X13343991Y-16816460D02*
X13172563Y-17073603D01*
X13601134Y-16825984D02*
X13620182Y-16825984D01*
X13620182Y-16825984D02*
X13639229Y-16835508D01*
X13639229Y-16835508D02*
X13648753Y-16845031D01*
X13648753Y-16845031D02*
X13658277Y-16864079D01*
X13658277Y-16864079D02*
X13667801Y-16902174D01*
X13667801Y-16902174D02*
X13667801Y-16949793D01*
X13667801Y-16949793D02*
X13658277Y-16987889D01*
X13658277Y-16987889D02*
X13648753Y-17006936D01*
X13648753Y-17006936D02*
X13639229Y-17016460D01*
X13639229Y-17016460D02*
X13620182Y-17025984D01*
X13620182Y-17025984D02*
X13601134Y-17025984D01*
X13601134Y-17025984D02*
X13582086Y-17016460D01*
X13582086Y-17016460D02*
X13572563Y-17006936D01*
X13572563Y-17006936D02*
X13563039Y-16987889D01*
X13563039Y-16987889D02*
X13553515Y-16949793D01*
X13553515Y-16949793D02*
X13553515Y-16902174D01*
X13553515Y-16902174D02*
X13563039Y-16864079D01*
X13563039Y-16864079D02*
X13572563Y-16845031D01*
X13572563Y-16845031D02*
X13582086Y-16835508D01*
X13582086Y-16835508D02*
X13601134Y-16825984D01*
X13753515Y-17006936D02*
X13763039Y-17016460D01*
X13763039Y-17016460D02*
X13753515Y-17025984D01*
X13753515Y-17025984D02*
X13743991Y-17016460D01*
X13743991Y-17016460D02*
X13753515Y-17006936D01*
X13753515Y-17006936D02*
X13753515Y-17025984D01*
X13886848Y-16825984D02*
X13905896Y-16825984D01*
X13905896Y-16825984D02*
X13924944Y-16835508D01*
X13924944Y-16835508D02*
X13934467Y-16845031D01*
X13934467Y-16845031D02*
X13943991Y-16864079D01*
X13943991Y-16864079D02*
X13953515Y-16902174D01*
X13953515Y-16902174D02*
X13953515Y-16949793D01*
X13953515Y-16949793D02*
X13943991Y-16987889D01*
X13943991Y-16987889D02*
X13934467Y-17006936D01*
X13934467Y-17006936D02*
X13924944Y-17016460D01*
X13924944Y-17016460D02*
X13905896Y-17025984D01*
X13905896Y-17025984D02*
X13886848Y-17025984D01*
X13886848Y-17025984D02*
X13867801Y-17016460D01*
X13867801Y-17016460D02*
X13858277Y-17006936D01*
X13858277Y-17006936D02*
X13848753Y-16987889D01*
X13848753Y-16987889D02*
X13839229Y-16949793D01*
X13839229Y-16949793D02*
X13839229Y-16902174D01*
X13839229Y-16902174D02*
X13848753Y-16864079D01*
X13848753Y-16864079D02*
X13858277Y-16845031D01*
X13858277Y-16845031D02*
X13867801Y-16835508D01*
X13867801Y-16835508D02*
X13886848Y-16825984D01*
X14134467Y-16825984D02*
X14039229Y-16825984D01*
X14039229Y-16825984D02*
X14029706Y-16921222D01*
X14029706Y-16921222D02*
X14039229Y-16911698D01*
X14039229Y-16911698D02*
X14058277Y-16902174D01*
X14058277Y-16902174D02*
X14105896Y-16902174D01*
X14105896Y-16902174D02*
X14124944Y-16911698D01*
X14124944Y-16911698D02*
X14134467Y-16921222D01*
X14134467Y-16921222D02*
X14143991Y-16940270D01*
X14143991Y-16940270D02*
X14143991Y-16987889D01*
X14143991Y-16987889D02*
X14134467Y-17006936D01*
X14134467Y-17006936D02*
X14124944Y-17016460D01*
X14124944Y-17016460D02*
X14105896Y-17025984D01*
X14105896Y-17025984D02*
X14058277Y-17025984D01*
X14058277Y-17025984D02*
X14039229Y-17016460D01*
X14039229Y-17016460D02*
X14029706Y-17006936D01*
X14239229Y-17025984D02*
X14277325Y-17025984D01*
X14277325Y-17025984D02*
X14296372Y-17016460D01*
X14296372Y-17016460D02*
X14305896Y-17006936D01*
X14305896Y-17006936D02*
X14324944Y-16978365D01*
X14324944Y-16978365D02*
X14334467Y-16940270D01*
X14334467Y-16940270D02*
X14334467Y-16864079D01*
X14334467Y-16864079D02*
X14324944Y-16845031D01*
X14324944Y-16845031D02*
X14315420Y-16835508D01*
X14315420Y-16835508D02*
X14296372Y-16825984D01*
X14296372Y-16825984D02*
X14258277Y-16825984D01*
X14258277Y-16825984D02*
X14239229Y-16835508D01*
X14239229Y-16835508D02*
X14229706Y-16845031D01*
X14229706Y-16845031D02*
X14220182Y-16864079D01*
X14220182Y-16864079D02*
X14220182Y-16911698D01*
X14220182Y-16911698D02*
X14229706Y-16930746D01*
X14229706Y-16930746D02*
X14239229Y-16940270D01*
X14239229Y-16940270D02*
X14258277Y-16949793D01*
X14258277Y-16949793D02*
X14296372Y-16949793D01*
X14296372Y-16949793D02*
X14315420Y-16940270D01*
X14315420Y-16940270D02*
X14324944Y-16930746D01*
X14324944Y-16930746D02*
X14334467Y-16911698D01*
X14524944Y-17025984D02*
X14410658Y-17025984D01*
X14467801Y-17025984D02*
X14467801Y-16825984D01*
X14467801Y-16825984D02*
X14448753Y-16854555D01*
X14448753Y-16854555D02*
X14429706Y-16873603D01*
X14429706Y-16873603D02*
X14410658Y-16883127D01*
X14601134Y-16825984D02*
X14601134Y-16864079D01*
X14677325Y-16825984D02*
X14677325Y-16864079D01*
X14972563Y-17102174D02*
X14963039Y-17092650D01*
X14963039Y-17092650D02*
X14943991Y-17064079D01*
X14943991Y-17064079D02*
X14934468Y-17045031D01*
X14934468Y-17045031D02*
X14924944Y-17016460D01*
X14924944Y-17016460D02*
X14915420Y-16968841D01*
X14915420Y-16968841D02*
X14915420Y-16930746D01*
X14915420Y-16930746D02*
X14924944Y-16883127D01*
X14924944Y-16883127D02*
X14934468Y-16854555D01*
X14934468Y-16854555D02*
X14943991Y-16835508D01*
X14943991Y-16835508D02*
X14963039Y-16806936D01*
X14963039Y-16806936D02*
X14972563Y-16797412D01*
X15153515Y-17025984D02*
X15039229Y-17025984D01*
X15096372Y-17025984D02*
X15096372Y-16825984D01*
X15096372Y-16825984D02*
X15077325Y-16854555D01*
X15077325Y-16854555D02*
X15058277Y-16873603D01*
X15058277Y-16873603D02*
X15039229Y-16883127D01*
X15267801Y-16911698D02*
X15248753Y-16902174D01*
X15248753Y-16902174D02*
X15239229Y-16892650D01*
X15239229Y-16892650D02*
X15229706Y-16873603D01*
X15229706Y-16873603D02*
X15229706Y-16864079D01*
X15229706Y-16864079D02*
X15239229Y-16845031D01*
X15239229Y-16845031D02*
X15248753Y-16835508D01*
X15248753Y-16835508D02*
X15267801Y-16825984D01*
X15267801Y-16825984D02*
X15305896Y-16825984D01*
X15305896Y-16825984D02*
X15324944Y-16835508D01*
X15324944Y-16835508D02*
X15334468Y-16845031D01*
X15334468Y-16845031D02*
X15343991Y-16864079D01*
X15343991Y-16864079D02*
X15343991Y-16873603D01*
X15343991Y-16873603D02*
X15334468Y-16892650D01*
X15334468Y-16892650D02*
X15324944Y-16902174D01*
X15324944Y-16902174D02*
X15305896Y-16911698D01*
X15305896Y-16911698D02*
X15267801Y-16911698D01*
X15267801Y-16911698D02*
X15248753Y-16921222D01*
X15248753Y-16921222D02*
X15239229Y-16930746D01*
X15239229Y-16930746D02*
X15229706Y-16949793D01*
X15229706Y-16949793D02*
X15229706Y-16987889D01*
X15229706Y-16987889D02*
X15239229Y-17006936D01*
X15239229Y-17006936D02*
X15248753Y-17016460D01*
X15248753Y-17016460D02*
X15267801Y-17025984D01*
X15267801Y-17025984D02*
X15305896Y-17025984D01*
X15305896Y-17025984D02*
X15324944Y-17016460D01*
X15324944Y-17016460D02*
X15334468Y-17006936D01*
X15334468Y-17006936D02*
X15343991Y-16987889D01*
X15343991Y-16987889D02*
X15343991Y-16949793D01*
X15343991Y-16949793D02*
X15334468Y-16930746D01*
X15334468Y-16930746D02*
X15324944Y-16921222D01*
X15324944Y-16921222D02*
X15305896Y-16911698D01*
X15582087Y-17025984D02*
X15582087Y-16825984D01*
X15667801Y-17025984D02*
X15667801Y-16921222D01*
X15667801Y-16921222D02*
X15658277Y-16902174D01*
X15658277Y-16902174D02*
X15639230Y-16892650D01*
X15639230Y-16892650D02*
X15610658Y-16892650D01*
X15610658Y-16892650D02*
X15591610Y-16902174D01*
X15591610Y-16902174D02*
X15582087Y-16911698D01*
X15791610Y-17025984D02*
X15772563Y-17016460D01*
X15772563Y-17016460D02*
X15763039Y-17006936D01*
X15763039Y-17006936D02*
X15753515Y-16987889D01*
X15753515Y-16987889D02*
X15753515Y-16930746D01*
X15753515Y-16930746D02*
X15763039Y-16911698D01*
X15763039Y-16911698D02*
X15772563Y-16902174D01*
X15772563Y-16902174D02*
X15791610Y-16892650D01*
X15791610Y-16892650D02*
X15820182Y-16892650D01*
X15820182Y-16892650D02*
X15839230Y-16902174D01*
X15839230Y-16902174D02*
X15848753Y-16911698D01*
X15848753Y-16911698D02*
X15858277Y-16930746D01*
X15858277Y-16930746D02*
X15858277Y-16987889D01*
X15858277Y-16987889D02*
X15848753Y-17006936D01*
X15848753Y-17006936D02*
X15839230Y-17016460D01*
X15839230Y-17016460D02*
X15820182Y-17025984D01*
X15820182Y-17025984D02*
X15791610Y-17025984D01*
X15972563Y-17025984D02*
X15953515Y-17016460D01*
X15953515Y-17016460D02*
X15943991Y-16997412D01*
X15943991Y-16997412D02*
X15943991Y-16825984D01*
X16124944Y-17016460D02*
X16105896Y-17025984D01*
X16105896Y-17025984D02*
X16067801Y-17025984D01*
X16067801Y-17025984D02*
X16048753Y-17016460D01*
X16048753Y-17016460D02*
X16039230Y-16997412D01*
X16039230Y-16997412D02*
X16039230Y-16921222D01*
X16039230Y-16921222D02*
X16048753Y-16902174D01*
X16048753Y-16902174D02*
X16067801Y-16892650D01*
X16067801Y-16892650D02*
X16105896Y-16892650D01*
X16105896Y-16892650D02*
X16124944Y-16902174D01*
X16124944Y-16902174D02*
X16134468Y-16921222D01*
X16134468Y-16921222D02*
X16134468Y-16940270D01*
X16134468Y-16940270D02*
X16039230Y-16959317D01*
X16210658Y-17016460D02*
X16229706Y-17025984D01*
X16229706Y-17025984D02*
X16267801Y-17025984D01*
X16267801Y-17025984D02*
X16286849Y-17016460D01*
X16286849Y-17016460D02*
X16296372Y-16997412D01*
X16296372Y-16997412D02*
X16296372Y-16987889D01*
X16296372Y-16987889D02*
X16286849Y-16968841D01*
X16286849Y-16968841D02*
X16267801Y-16959317D01*
X16267801Y-16959317D02*
X16239230Y-16959317D01*
X16239230Y-16959317D02*
X16220182Y-16949793D01*
X16220182Y-16949793D02*
X16210658Y-16930746D01*
X16210658Y-16930746D02*
X16210658Y-16921222D01*
X16210658Y-16921222D02*
X16220182Y-16902174D01*
X16220182Y-16902174D02*
X16239230Y-16892650D01*
X16239230Y-16892650D02*
X16267801Y-16892650D01*
X16267801Y-16892650D02*
X16286849Y-16902174D01*
X16363039Y-17102174D02*
X16372563Y-17092650D01*
X16372563Y-17092650D02*
X16391611Y-17064079D01*
X16391611Y-17064079D02*
X16401134Y-17045031D01*
X16401134Y-17045031D02*
X16410658Y-17016460D01*
X16410658Y-17016460D02*
X16420182Y-16968841D01*
X16420182Y-16968841D02*
X16420182Y-16930746D01*
X16420182Y-16930746D02*
X16410658Y-16883127D01*
X16410658Y-16883127D02*
X16401134Y-16854555D01*
X16401134Y-16854555D02*
X16391611Y-16835508D01*
X16391611Y-16835508D02*
X16372563Y-16806936D01*
X16372563Y-16806936D02*
X16363039Y-16797412D01*
M02*
