M48
; DRILL file KiCad 10.0.6 date 2026-09-21T19:11:03
; FORMAT={-:-/ absolute / metric / decimal}
; #@! TF.CreationDate,2026-09-21T19:11:03+05:30
; #@! TF.GenerationSoftware,Kicad,Pcbnew,10.0.6
; #@! TF.FileFunction,NonPlated,1,2,NPTH
FMAT,2
METRIC
; #@! TA.AperFunction,NonPlated,NPTH,ComponentDrill
T1C1.700
; #@! TA.AperFunction,NonPlated,NPTH,ComponentDrill
T2C4.000
%
G90
G05
T1
X119.84Y-78.5
X119.84Y-97.58
X119.88Y-117.0
X130.0Y-78.5
X130.0Y-97.58
X130.04Y-117.0
X139.34Y-78.5
X139.38Y-97.58
X139.42Y-117.0
X149.5Y-78.5
X149.54Y-97.58
X149.58Y-117.0
X158.73Y-78.54
X158.73Y-97.54
X158.73Y-117.0
X168.89Y-78.54
X168.89Y-97.54
X168.89Y-117.0
T2
X124.92Y-78.5
X124.92Y-97.58
X124.96Y-117.0
X144.42Y-78.5
X144.46Y-97.58
X144.5Y-117.0
X163.81Y-78.54
X163.81Y-97.54
X163.81Y-117.0
M30
