M48
; DRILL file KiCad 10.0.6 date 2026-09-21T19:11:03
; FORMAT={-:-/ absolute / metric / decimal}
; #@! TF.CreationDate,2026-09-21T19:11:03+05:30
; #@! TF.GenerationSoftware,Kicad,Pcbnew,10.0.6
; #@! TF.FileFunction,Plated,1,2,PTH
FMAT,2
METRIC
; #@! TA.AperFunction,Plated,PTH,ViaDrill
T1C0.300
; #@! TA.AperFunction,Plated,PTH,ComponentDrill
T2C0.800
; #@! TA.AperFunction,Plated,PTH,ComponentDrill
T3C1.000
; #@! TA.AperFunction,Plated,PTH,ComponentDrill
T4C1.500
%
G90
G05
T1
X127.875Y-114.375
X131.875Y-126.375
X133.0Y-138.4
X133.0Y-141.0
X133.0Y-148.5
X133.875Y-114.375
X134.875Y-142.875
X136.835Y-151.12
X140.445Y-141.213
X145.125Y-133.375
X146.16Y-137.408
X153.0Y-138.42
X156.5Y-143.5
X156.5Y-148.5
X165.375Y-142.125
X176.875Y-95.375
T2
X121.0Y-87.0
X121.0Y-106.0
X121.19Y-125.0
X128.62Y-87.0
X128.62Y-106.0
X128.81Y-125.0
X140.0Y-86.5
X140.38Y-106.0
X141.19Y-125.0
X147.62Y-86.5
X148.0Y-106.0
X148.81Y-125.0
X159.88Y-105.5
X160.19Y-87.0
X160.19Y-125.0
X167.5Y-105.5
X167.81Y-87.0
X167.81Y-125.0
T3
X162.5Y-141.5
X170.1Y-141.5
X175.0Y-88.5
X175.0Y-91.04
X175.0Y-93.58
X175.0Y-96.12
X175.0Y-98.66
X175.0Y-101.2
X175.0Y-103.74
X175.0Y-106.28
T4
X121.11Y-75.96
X121.11Y-95.04
X121.15Y-114.46
X127.46Y-73.42
X127.46Y-92.5
X127.5Y-111.92
X140.61Y-75.96
X140.65Y-95.04
X140.69Y-114.46
X146.96Y-73.42
X147.0Y-92.5
X147.04Y-111.92
X160.0Y-76.0
X160.0Y-95.0
X160.0Y-114.46
X166.35Y-73.46
X166.35Y-92.46
X166.35Y-111.92
M30
