%TF.GenerationSoftware,KiCad,Pcbnew,10.0.6*%
%TF.CreationDate,2026-09-21T19:09:20+05:30*%
%TF.ProjectId,Chronix_FINAL_0_WARNINGS,4368726f-6e69-4785-9f46-494e414c5f30,rev?*%
%TF.SameCoordinates,Original*%
%TF.FileFunction,Copper,L1,Top*%
%TF.FilePolarity,Positive*%
%FSLAX46Y46*%
G04 Gerber Fmt 4.6, Leading zero omitted, Abs format (unit mm)*
G04 Created by KiCad (PCBNEW 10.0.6) date 2026-09-21 19:09:20*
%MOMM*%
%LPD*%
G01*
G04 APERTURE LIST*
G04 Aperture macros list*
%AMRoundRect*
0 Rectangle with rounded corners*
0 $1 Rounding radius*
0 $2 $3 $4 $5 $6 $7 $8 $9 X,Y pos of 4 corners*
0 Add a 4 corners polygon primitive as box body*
4,1,4,$2,$3,$4,$5,$6,$7,$8,$9,$2,$3,0*
0 Add four circle primitives for the rounded corners*
1,1,$1+$1,$2,$3*
1,1,$1+$1,$4,$5*
1,1,$1+$1,$6,$7*
1,1,$1+$1,$8,$9*
0 Add four rect primitives between the rounded corners*
20,1,$1+$1,$2,$3,$4,$5,0*
20,1,$1+$1,$4,$5,$6,$7,0*
20,1,$1+$1,$6,$7,$8,$9,0*
20,1,$1+$1,$8,$9,$2,$3,0*%
G04 Aperture macros list end*
%TA.AperFunction,ComponentPad*%
%ADD10R,1.700000X1.700000*%
%TD*%
%TA.AperFunction,ComponentPad*%
%ADD11C,1.700000*%
%TD*%
%TA.AperFunction,ComponentPad*%
%ADD12C,2.200000*%
%TD*%
%TA.AperFunction,ComponentPad*%
%ADD13RoundRect,0.250000X-0.550000X-0.550000X0.550000X-0.550000X0.550000X0.550000X-0.550000X0.550000X0*%
%TD*%
%TA.AperFunction,ComponentPad*%
%ADD14C,1.600000*%
%TD*%
%TA.AperFunction,SMDPad,CuDef*%
%ADD15RoundRect,0.500000X-0.875000X-0.500000X0.875000X-0.500000X0.875000X0.500000X-0.875000X0.500000X0*%
%TD*%
%TA.AperFunction,SMDPad,CuDef*%
%ADD16C,1.700000*%
%TD*%
%TA.AperFunction,SMDPad,CuDef*%
%ADD17RoundRect,0.275000X0.975000X0.275000X-0.975000X0.275000X-0.975000X-0.275000X0.975000X-0.275000X0*%
%TD*%
%TA.AperFunction,ComponentPad*%
%ADD18R,2.000000X2.000000*%
%TD*%
%TA.AperFunction,ComponentPad*%
%ADD19C,2.000000*%
%TD*%
%TA.AperFunction,ViaPad*%
%ADD20C,0.600000*%
%TD*%
%TA.AperFunction,Conductor*%
%ADD21C,0.200000*%
%TD*%
G04 APERTURE END LIST*
D10*
%TO.P,J1,1,Pin_1_1*%
%TO.N,GND*%
X175000000Y-88500000D03*
D11*
%TO.P,J1,2,Pin_2_2*%
%TO.N,/+3V3*%
X175000000Y-91040000D03*
%TO.P,J1,3,Pin_3_3*%
%TO.N,/TFT_SCLK*%
X175000000Y-93580000D03*
%TO.P,J1,4,Pin_4_4*%
%TO.N,/TFT_MOSI*%
X175000000Y-96120000D03*
%TO.P,J1,5,Pin_5_5*%
%TO.N,/+3V3*%
X175000000Y-98660000D03*
%TO.P,J1,6,Pin_6_6*%
%TO.N,/TFT_DC*%
X175000000Y-101200000D03*
%TO.P,J1,7,Pin_7_7*%
%TO.N,/TFT_CS*%
X175000000Y-103740000D03*
%TO.P,J1,8,Pin_8_8*%
%TO.N,GND*%
X175000000Y-106280000D03*
%TD*%
D12*
%TO.P,SW3,1,1_1*%
%TO.N,/COL2*%
X127500000Y-111920000D03*
%TO.P,SW3,2,2_2*%
%TO.N,Net-(D3-A)*%
X121150000Y-114460000D03*
%TD*%
%TO.P,SW6,1,1_1*%
%TO.N,/COL2*%
X147040000Y-111920000D03*
%TO.P,SW6,2,2_2*%
%TO.N,Net-(D3-A)*%
X140690000Y-114460000D03*
%TD*%
%TO.P,SW2,1,1_1*%
%TO.N,/COL1*%
X127460000Y-92500000D03*
%TO.P,SW2,2,2_2*%
%TO.N,Net-(D2-A)*%
X121110000Y-95040000D03*
%TD*%
D13*
%TO.P,D2,1,K_1*%
%TO.N,/COL2*%
X121000000Y-106000000D03*
D14*
%TO.P,D2,2,A_2*%
%TO.N,Net-(D2-A)*%
X128620000Y-106000000D03*
%TD*%
D13*
%TO.P,D8,1,K_1*%
%TO.N,/COL2*%
X159880000Y-105500000D03*
D14*
%TO.P,D8,2,A_2*%
%TO.N,Net-(D8-A)*%
X167500000Y-105500000D03*
%TD*%
D12*
%TO.P,SW1,1,1_1*%
%TO.N,/ROW1*%
X127460000Y-73420000D03*
%TO.P,SW1,2,2_2*%
%TO.N,Net-(D1-A)*%
X121110000Y-75960000D03*
%TD*%
D13*
%TO.P,D4,1,K_1*%
%TO.N,/COL1*%
X140000000Y-86500000D03*
D14*
%TO.P,D4,2,A_2*%
%TO.N,Net-(D4-A)*%
X147620000Y-86500000D03*
%TD*%
D13*
%TO.P,D5,1,K_1*%
%TO.N,/COL2*%
X140380000Y-106000000D03*
D14*
%TO.P,D5,2,A_2*%
%TO.N,Net-(D5-A)*%
X148000000Y-106000000D03*
%TD*%
D13*
%TO.P,D1,1,K_1*%
%TO.N,/COL1*%
X121000000Y-87000000D03*
D14*
%TO.P,D1,2,A_2*%
%TO.N,Net-(D1-A)*%
X128620000Y-87000000D03*
%TD*%
D12*
%TO.P,SW8,1,1_1*%
%TO.N,/COL1*%
X166350000Y-92460000D03*
%TO.P,SW8,2,2_2*%
%TO.N,Net-(D8-A)*%
X160000000Y-95000000D03*
%TD*%
D15*
%TO.P,U1,1,D0_1*%
%TO.N,/TFT_CS*%
X136835000Y-135880000D03*
%TO.P,U1,2,D1_2*%
%TO.N,/ROW1*%
X136835000Y-138420000D03*
%TO.P,U1,3,D2_3*%
%TO.N,/ROW2*%
X136835000Y-140960000D03*
%TO.P,U1,4,D3_4*%
%TO.N,/ROW3*%
X136835000Y-143500000D03*
%TO.P,U1,5,D4_5*%
%TO.N,/COL1*%
X136835000Y-146040000D03*
%TO.P,U1,6,D5_6*%
%TO.N,/COL2*%
X136835000Y-148580000D03*
%TO.P,U1,7,D6_7*%
%TO.N,/BUZZER*%
X136835000Y-151120000D03*
%TO.P,U1,8,D7_8*%
%TO.N,/TFT_DC*%
X153000000Y-151120000D03*
%TO.P,U1,9,D8_9*%
%TO.N,/TFT_SCLK*%
X153000000Y-148580000D03*
%TO.P,U1,10,D9/BOOT_10*%
%TO.N,/COL3*%
X153000000Y-146040000D03*
%TO.P,U1,11,D10_11*%
%TO.N,/TFT_MOSI*%
X153000000Y-143500000D03*
%TO.P,U1,12,3V3_OUT_12*%
%TO.N,/+3V3*%
X153000000Y-140960000D03*
%TO.P,U1,13,GND_13*%
%TO.N,GND*%
X153000000Y-138420000D03*
%TO.P,U1,14,VBUS_14*%
%TO.N,unconnected-(U1-VBUS-Pad14)*%
X153000000Y-135880000D03*
D16*
%TO.P,U1,15,D3/MTDI_15*%
%TO.N,unconnected-(U1-D3{slash}MTDI-Pad15)*%
X143620000Y-134868000D03*
%TO.P,U1,16,D5/MTDO_16*%
%TO.N,unconnected-(U1-D5{slash}MTDO-Pad16)*%
X146160000Y-134868000D03*
%TO.P,U1,17,EN_17*%
%TO.N,unconnected-(U1-EN-Pad17)*%
X143620000Y-137408000D03*
%TO.P,U1,18,GND_18*%
%TO.N,GND*%
X146160000Y-137408000D03*
%TO.P,U1,19,D2/MTMS_19*%
%TO.N,unconnected-(U1-D2{slash}MTMS-Pad19)*%
X143620000Y-139948000D03*
%TO.P,U1,20,D4/MTCK_20*%
%TO.N,unconnected-(U1-D4{slash}MTCK-Pad20)*%
X146160000Y-139948000D03*
D17*
%TO.P,U1,21,VBAT_21*%
%TO.N,unconnected-(U1-VBAT-Pad21)*%
X140445000Y-143118000D03*
%TO.P,U1,22,GND_22*%
%TO.N,GND*%
X140445000Y-141213000D03*
%TD*%
D13*
%TO.P,D9,1,K_1*%
%TO.N,/COL3*%
X160190000Y-125000000D03*
D14*
%TO.P,D9,2,A_2*%
%TO.N,Net-(D3-A)*%
X167810000Y-125000000D03*
%TD*%
D12*
%TO.P,SW7,1,1_1*%
%TO.N,/ROW3*%
X166350000Y-73460000D03*
%TO.P,SW7,2,2_2*%
%TO.N,Net-(D7-A)*%
X160000000Y-76000000D03*
%TD*%
%TO.P,SW4,1,1_1*%
%TO.N,/ROW2*%
X146960000Y-73420000D03*
%TO.P,SW4,2,2_2*%
%TO.N,Net-(D4-A)*%
X140610000Y-75960000D03*
%TD*%
D13*
%TO.P,D6,1,K_1*%
%TO.N,/COL3*%
X141190000Y-125000000D03*
D14*
%TO.P,D6,2,A_2*%
%TO.N,Net-(D3-A)*%
X148810000Y-125000000D03*
%TD*%
D12*
%TO.P,SW5,1,1_1*%
%TO.N,/COL1*%
X147000000Y-92500000D03*
%TO.P,SW5,2,2_2*%
%TO.N,Net-(D5-A)*%
X140650000Y-95040000D03*
%TD*%
D18*
%TO.P,BZ1,1,+_1*%
%TO.N,/BUZZER*%
X162500000Y-141500000D03*
D19*
%TO.P,BZ1,2,-_2*%
%TO.N,GND*%
X170100000Y-141500000D03*
%TD*%
D13*
%TO.P,D7,1,K_1*%
%TO.N,/COL1*%
X160190000Y-87000000D03*
D14*
%TO.P,D7,2,A_2*%
%TO.N,Net-(D7-A)*%
X167810000Y-87000000D03*
%TD*%
D13*
%TO.P,D3,1,K_1*%
%TO.N,/COL3*%
X121190000Y-125000000D03*
D14*
%TO.P,D3,2,A_2*%
%TO.N,Net-(D3-A)*%
X128810000Y-125000000D03*
%TD*%
D12*
%TO.P,SW9,1,1_1*%
%TO.N,/COL2*%
X166350000Y-111920000D03*
%TO.P,SW9,2,2_2*%
%TO.N,Net-(D3-A)*%
X160000000Y-114460000D03*
%TD*%
D20*
%TO.N,GND*%
X146160000Y-137408000D03*
X153000000Y-138420000D03*
X140445000Y-141213000D03*
%TO.N,/TFT_SCLK*%
X156500000Y-148500000D03*
X176875000Y-95375000D03*
%TO.N,/TFT_MOSI*%
X156500000Y-143500000D03*
X165375000Y-142125000D03*
%TO.N,/TFT_CS*%
X145125000Y-133375000D03*
%TO.N,/COL2*%
X133000000Y-148500000D03*
%TO.N,Net-(D3-A)*%
X133875000Y-114375000D03*
X127875000Y-114375000D03*
%TO.N,/ROW1*%
X133000000Y-138400000D03*
%TO.N,/ROW2*%
X133000000Y-141000000D03*
%TO.N,/ROW3*%
X134875000Y-142875000D03*
%TO.N,/BUZZER*%
X136835000Y-151120000D03*
%TO.N,/COL3*%
X131875000Y-126375000D03*
%TD*%
%TO.N,/+3V3*%
D21*
X173625000Y-105375000D02*
X173625000Y-105125000D01*
X163875000Y-132875000D02*
X164125000Y-132625000D01*
X173625000Y-116875000D02*
X173625000Y-116625000D01*
X173625000Y-98375000D02*
X173625000Y-98125000D01*
X172875000Y-123875000D02*
X173125000Y-123625000D01*
X159625000Y-137125000D02*
X159875000Y-136875000D01*
X161875000Y-134875000D02*
X162125000Y-134625000D01*
X173625000Y-107125000D02*
X173625000Y-106875000D01*
X173625000Y-105875000D02*
X173625000Y-105625000D01*
X166125000Y-130625000D02*
X166375000Y-130375000D01*
X161625000Y-135125000D02*
X161875000Y-134875000D01*
X156625000Y-141125000D02*
X156625000Y-140875000D01*
X173625000Y-100625000D02*
X173625000Y-100375000D01*
X173625000Y-98125000D02*
X173625000Y-97875000D01*
X173625000Y-102375000D02*
X173625000Y-102125000D01*
X166875000Y-129875000D02*
X167125000Y-129625000D01*
X162625000Y-134125000D02*
X162875000Y-133875000D01*
X173625000Y-101625000D02*
X173625000Y-101375000D01*
X173625000Y-106375000D02*
X173625000Y-106125000D01*
X173625000Y-103625000D02*
X173625000Y-103375000D01*
X160875000Y-135875000D02*
X161125000Y-135625000D01*
X173625000Y-115125000D02*
X173625000Y-114875000D01*
X173625000Y-110125000D02*
X173625000Y-109875000D01*
X161125000Y-135625000D02*
X161375000Y-135375000D01*
X173625000Y-102625000D02*
X173625000Y-102375000D01*
X173625000Y-120625000D02*
X173625000Y-120375000D01*
X166375000Y-130375000D02*
X166625000Y-130125000D01*
X173625000Y-117625000D02*
X173625000Y-117375000D01*
X173625000Y-109875000D02*
X173625000Y-109625000D01*
X173625000Y-120375000D02*
X173625000Y-120125000D01*
X171875000Y-124875000D02*
X172125000Y-124625000D01*
X164125000Y-132625000D02*
X164375000Y-132375000D01*
X173625000Y-97625000D02*
X173625000Y-97375000D01*
X173625000Y-122625000D02*
X173625000Y-122375000D01*
X171375000Y-125375000D02*
X171625000Y-125125000D01*
X162125000Y-134625000D02*
X162375000Y-134375000D01*
X165625000Y-131125000D02*
X165875000Y-130875000D01*
X173625000Y-115875000D02*
X173625000Y-115625000D01*
X169625000Y-127125000D02*
X169875000Y-126875000D01*
X173625000Y-95375000D02*
X173625000Y-95125000D01*
X170375000Y-126375000D02*
X170625000Y-126125000D01*
X173625000Y-105125000D02*
X173625000Y-104875000D01*
X173625000Y-104875000D02*
X173625000Y-104625000D01*
X168875000Y-127875000D02*
X169125000Y-127625000D01*
X173625000Y-92625000D02*
X173875000Y-92375000D01*
X162875000Y-133875000D02*
X163125000Y-133625000D01*
X173625000Y-93625000D02*
X173625000Y-93375000D01*
X173625000Y-99875000D02*
X173625000Y-99625000D01*
X156500000Y-141000000D02*
X156625000Y-141125000D01*
X168125000Y-128625000D02*
X168375000Y-128375000D01*
X173625000Y-115375000D02*
X173625000Y-115125000D01*
X173625000Y-95875000D02*
X173625000Y-95625000D01*
X173625000Y-107375000D02*
X173625000Y-107125000D01*
X173625000Y-114125000D02*
X173625000Y-113875000D01*
X173625000Y-111875000D02*
X173625000Y-111625000D01*
X174625000Y-91625000D02*
X174875000Y-91375000D01*
X173625000Y-105625000D02*
X173625000Y-105375000D01*
X173625000Y-111125000D02*
X173625000Y-110875000D01*
X173625000Y-99625000D02*
X173625000Y-99375000D01*
X173625000Y-106875000D02*
X173625000Y-106625000D01*
X157375000Y-139375000D02*
X157625000Y-139125000D01*
X158625000Y-138125000D02*
X158875000Y-137875000D01*
X173625000Y-112875000D02*
X173625000Y-112625000D01*
X173625000Y-118625000D02*
X173625000Y-118375000D01*
X173375000Y-123375000D02*
X173625000Y-123125000D01*
X173625000Y-101125000D02*
X173625000Y-100875000D01*
X173625000Y-109125000D02*
X173625000Y-108875000D01*
X173625000Y-121375000D02*
X173625000Y-121125000D01*
X157875000Y-138875000D02*
X158125000Y-138625000D01*
X173625000Y-101375000D02*
X173625000Y-101125000D01*
X158875000Y-137875000D02*
X159125000Y-137625000D01*
X173625000Y-111375000D02*
X173625000Y-111125000D01*
X173625000Y-97375000D02*
X173625000Y-97125000D01*
X161375000Y-135375000D02*
X161625000Y-135125000D01*
X159125000Y-137625000D02*
X159375000Y-137375000D01*
X172625000Y-124125000D02*
X172875000Y-123875000D01*
X172375000Y-124375000D02*
X172625000Y-124125000D01*
X173625000Y-114625000D02*
X173625000Y-114375000D01*
X173625000Y-116375000D02*
X173625000Y-116125000D01*
X173625000Y-122875000D02*
X173625000Y-122625000D01*
X173625000Y-93125000D02*
X173625000Y-92875000D01*
X170625000Y-126125000D02*
X170875000Y-125875000D01*
X169375000Y-127375000D02*
X169625000Y-127125000D01*
X173125000Y-123625000D02*
X173375000Y-123375000D01*
X173625000Y-117125000D02*
X173625000Y-116875000D01*
X173625000Y-122125000D02*
X173625000Y-121875000D01*
X173625000Y-104125000D02*
X173625000Y-103875000D01*
X156875000Y-139875000D02*
X157125000Y-139625000D01*
X173625000Y-113375000D02*
X173625000Y-113125000D01*
X173625000Y-93875000D02*
X173625000Y-93625000D01*
X173625000Y-96125000D02*
X173625000Y-95875000D01*
X173625000Y-94125000D02*
X173625000Y-93875000D01*
X173625000Y-121875000D02*
X173625000Y-121625000D01*
X173625000Y-106625000D02*
X173625000Y-106375000D01*
X160375000Y-136375000D02*
X160625000Y-136125000D01*
X173625000Y-120125000D02*
X173625000Y-119875000D01*
X159375000Y-137375000D02*
X159625000Y-137125000D01*
X167625000Y-129125000D02*
X167875000Y-128875000D01*
X173625000Y-94875000D02*
X173625000Y-94625000D01*
X173625000Y-97125000D02*
X173625000Y-96875000D01*
X173625000Y-107625000D02*
X173625000Y-107375000D01*
X173625000Y-112625000D02*
X173625000Y-112375000D01*
X173625000Y-104625000D02*
X173625000Y-104375000D01*
X167375000Y-129375000D02*
X167625000Y-129125000D01*
X165375000Y-131375000D02*
X165625000Y-131125000D01*
X167875000Y-128875000D02*
X168125000Y-128625000D01*
X173625000Y-102875000D02*
X173625000Y-102625000D01*
X173625000Y-119375000D02*
X173625000Y-119125000D01*
X170875000Y-125875000D02*
X171125000Y-125625000D01*
X173625000Y-118875000D02*
X173625000Y-118625000D01*
X171625000Y-125125000D02*
X171875000Y-124875000D01*
X156625000Y-140375000D02*
X156625000Y-140125000D01*
X157625000Y-139125000D02*
X157875000Y-138875000D01*
X173625000Y-121125000D02*
X173625000Y-120875000D01*
X173625000Y-94625000D02*
X173625000Y-94375000D01*
X173625000Y-103875000D02*
X173625000Y-103625000D01*
X173625000Y-120875000D02*
X173625000Y-120625000D01*
X173625000Y-119625000D02*
X173625000Y-119375000D01*
X173625000Y-112375000D02*
X173625000Y-112125000D01*
X174125000Y-92125000D02*
X174375000Y-91875000D01*
X173625000Y-100375000D02*
X173625000Y-100125000D01*
X173625000Y-104375000D02*
X173625000Y-104125000D01*
X160625000Y-136125000D02*
X160875000Y-135875000D01*
X173625000Y-103125000D02*
X173625000Y-102875000D01*
X173625000Y-116125000D02*
X173625000Y-115875000D01*
X173625000Y-110375000D02*
X173625000Y-110125000D01*
X163125000Y-133625000D02*
X163375000Y-133375000D01*
X173625000Y-115625000D02*
X173625000Y-115375000D01*
X173625000Y-95125000D02*
X173625000Y-94875000D01*
X173625000Y-93375000D02*
X173625000Y-93125000D01*
X173625000Y-100875000D02*
X173625000Y-100625000D01*
X165125000Y-131625000D02*
X165375000Y-131375000D01*
X173625000Y-118125000D02*
X173625000Y-117875000D01*
X173625000Y-108875000D02*
X173625000Y-108625000D01*
X168625000Y-128125000D02*
X168875000Y-127875000D01*
X173625000Y-96875000D02*
X173625000Y-96625000D01*
X173625000Y-92875000D02*
X173625000Y-92625000D01*
X169125000Y-127625000D02*
X169375000Y-127375000D01*
X173625000Y-114375000D02*
X173625000Y-114125000D01*
X153000000Y-140960000D02*
X156500000Y-141000000D01*
X173625000Y-122375000D02*
X173625000Y-122125000D01*
X156625000Y-140875000D02*
X156625000Y-140625000D01*
X173625000Y-119875000D02*
X173625000Y-119625000D01*
X173625000Y-113625000D02*
X173625000Y-113375000D01*
X173625000Y-109625000D02*
X173625000Y-109375000D01*
X173625000Y-117875000D02*
X173625000Y-117625000D01*
X156625000Y-140625000D02*
X156625000Y-140375000D01*
X168375000Y-128375000D02*
X168625000Y-128125000D01*
X173625000Y-99375000D02*
X173625000Y-99125000D01*
X173625000Y-96375000D02*
X173625000Y-96125000D01*
X173625000Y-107875000D02*
X173625000Y-107625000D01*
X173625000Y-106125000D02*
X173625000Y-105875000D01*
X173625000Y-113875000D02*
X173625000Y-113625000D01*
X165875000Y-130875000D02*
X166125000Y-130625000D01*
X173625000Y-119125000D02*
X173625000Y-118875000D01*
X173625000Y-94375000D02*
X173625000Y-94125000D01*
X160125000Y-136625000D02*
X160375000Y-136375000D01*
X172125000Y-124625000D02*
X172375000Y-124375000D01*
X157125000Y-139625000D02*
X157375000Y-139375000D01*
X173625000Y-108625000D02*
X173625000Y-108375000D01*
X173625000Y-99125000D02*
X173625000Y-98875000D01*
X163375000Y-133375000D02*
X163625000Y-133125000D01*
X164625000Y-132125000D02*
X164875000Y-131875000D01*
X162375000Y-134375000D02*
X162625000Y-134125000D01*
X173625000Y-110625000D02*
X173625000Y-110375000D01*
X167125000Y-129625000D02*
X167375000Y-129375000D01*
X173625000Y-110875000D02*
X173625000Y-110625000D01*
X169875000Y-126875000D02*
X170125000Y-126625000D01*
X164875000Y-131875000D02*
X165125000Y-131625000D01*
X158125000Y-138625000D02*
X158375000Y-138375000D01*
X158375000Y-138375000D02*
X158625000Y-138125000D01*
X173625000Y-108125000D02*
X173625000Y-107875000D01*
X156625000Y-140125000D02*
X156875000Y-139875000D01*
X173625000Y-111625000D02*
X173625000Y-111375000D01*
X173625000Y-98625000D02*
X173625000Y-98375000D01*
X173625000Y-112125000D02*
X173625000Y-111875000D01*
X164375000Y-132375000D02*
X164625000Y-132125000D01*
X173625000Y-121625000D02*
X173625000Y-121375000D01*
X173625000Y-114875000D02*
X173625000Y-114625000D01*
X173625000Y-95625000D02*
X173625000Y-95375000D01*
X166625000Y-130125000D02*
X166875000Y-129875000D01*
X159875000Y-136875000D02*
X160125000Y-136625000D01*
X173625000Y-98875000D02*
X173625000Y-98625000D01*
X173625000Y-100125000D02*
X173625000Y-99875000D01*
X171125000Y-125625000D02*
X171375000Y-125375000D01*
X173625000Y-109375000D02*
X173625000Y-109125000D01*
X173875000Y-92375000D02*
X174125000Y-92125000D01*
X170125000Y-126625000D02*
X170375000Y-126375000D01*
X173625000Y-96625000D02*
X173625000Y-96375000D01*
X173625000Y-101875000D02*
X173625000Y-101625000D01*
X173625000Y-118375000D02*
X173625000Y-118125000D01*
X173625000Y-108375000D02*
X173625000Y-108125000D01*
X173625000Y-102125000D02*
X173625000Y-101875000D01*
X163625000Y-133125000D02*
X163875000Y-132875000D01*
X173625000Y-117375000D02*
X173625000Y-117125000D01*
X173625000Y-123125000D02*
X173625000Y-122875000D01*
X173625000Y-113125000D02*
X173625000Y-112875000D01*
X173625000Y-97875000D02*
X173625000Y-97625000D01*
X173625000Y-116625000D02*
X173625000Y-116375000D01*
X173625000Y-103375000D02*
X173625000Y-103125000D01*
X174875000Y-91375000D02*
X175125000Y-91125000D01*
X174375000Y-91875000D02*
X174625000Y-91625000D01*
%TO.N,/TFT_SCLK*%
X175375000Y-93875000D02*
X175125000Y-93625000D01*
X175875000Y-94375000D02*
X175625000Y-94125000D01*
X176875000Y-95375000D02*
X176625000Y-95125000D01*
X175625000Y-94125000D02*
X175375000Y-93875000D01*
X176125000Y-94625000D02*
X175875000Y-94375000D01*
X176375000Y-94875000D02*
X176125000Y-94625000D01*
X176625000Y-95125000D02*
X176375000Y-94875000D01*
X153000000Y-148580000D02*
X156500000Y-148500000D01*
%TO.N,/TFT_MOSI*%
X176875000Y-130625000D02*
X176875000Y-130375000D01*
X176375000Y-131125000D02*
X176625000Y-130875000D01*
X176875000Y-106375000D02*
X176875000Y-106125000D01*
X176875000Y-119375000D02*
X176875000Y-119125000D01*
X176875000Y-107375000D02*
X176875000Y-107125000D01*
X176875000Y-125375000D02*
X176875000Y-125125000D01*
X176875000Y-100875000D02*
X176875000Y-100625000D01*
X176875000Y-115875000D02*
X176875000Y-115625000D01*
X176875000Y-122125000D02*
X176875000Y-121875000D01*
X176875000Y-126375000D02*
X176875000Y-126125000D01*
X176875000Y-122875000D02*
X176875000Y-122625000D01*
X165625000Y-141875000D02*
X165875000Y-141625000D01*
X176875000Y-128125000D02*
X176875000Y-127875000D01*
X170625000Y-136875000D02*
X170875000Y-136625000D01*
X176875000Y-124125000D02*
X176875000Y-123875000D01*
X176875000Y-97875000D02*
X176625000Y-97625000D01*
X176875000Y-101375000D02*
X176875000Y-101125000D01*
X176875000Y-126875000D02*
X176875000Y-126625000D01*
X176875000Y-115375000D02*
X176875000Y-115125000D01*
X176875000Y-111875000D02*
X176875000Y-111625000D01*
X176875000Y-130125000D02*
X176875000Y-129875000D01*
X176875000Y-113125000D02*
X176875000Y-112875000D01*
X176875000Y-100125000D02*
X176875000Y-99875000D01*
X176875000Y-124875000D02*
X176875000Y-124625000D01*
X172875000Y-134625000D02*
X173125000Y-134375000D01*
X176875000Y-113625000D02*
X176875000Y-113375000D01*
X175125000Y-132375000D02*
X175375000Y-132125000D01*
X167375000Y-140125000D02*
X167625000Y-139875000D01*
X176375000Y-97375000D02*
X176125000Y-97125000D01*
X176875000Y-125875000D02*
X176875000Y-125625000D01*
X176875000Y-103625000D02*
X176875000Y-103375000D01*
X173625000Y-133875000D02*
X173875000Y-133625000D01*
X176875000Y-120625000D02*
X176875000Y-120375000D01*
X176875000Y-122375000D02*
X176875000Y-122125000D01*
X176875000Y-110875000D02*
X176875000Y-110625000D01*
X166125000Y-141375000D02*
X166375000Y-141125000D01*
X165375000Y-142125000D02*
X165625000Y-141875000D01*
X176875000Y-129875000D02*
X176875000Y-129625000D01*
X176875000Y-99375000D02*
X176875000Y-99125000D01*
X176875000Y-120875000D02*
X176875000Y-120625000D01*
X168375000Y-139125000D02*
X168625000Y-138875000D01*
X176875000Y-116375000D02*
X176875000Y-116125000D01*
X176875000Y-106625000D02*
X176875000Y-106375000D01*
X176875000Y-110375000D02*
X176875000Y-110125000D01*
X167875000Y-139625000D02*
X168125000Y-139375000D01*
X176875000Y-127375000D02*
X176875000Y-127125000D01*
X176875000Y-106875000D02*
X176875000Y-106625000D01*
X171875000Y-135625000D02*
X172125000Y-135375000D01*
X176875000Y-113375000D02*
X176875000Y-113125000D01*
X176875000Y-121125000D02*
X176875000Y-120875000D01*
X176875000Y-117125000D02*
X176875000Y-116875000D01*
X153000000Y-143500000D02*
X156500000Y-143500000D01*
X176875000Y-107625000D02*
X176875000Y-107375000D01*
X171375000Y-136125000D02*
X171625000Y-135875000D01*
X176875000Y-100625000D02*
X176875000Y-100375000D01*
X176875000Y-106125000D02*
X176875000Y-105875000D01*
X170375000Y-137125000D02*
X170625000Y-136875000D01*
X173125000Y-134375000D02*
X173375000Y-134125000D01*
X174875000Y-132625000D02*
X175125000Y-132375000D01*
X176875000Y-119125000D02*
X176875000Y-118875000D01*
X176875000Y-127125000D02*
X176875000Y-126875000D01*
X176875000Y-128625000D02*
X176875000Y-128375000D01*
X176875000Y-108125000D02*
X176875000Y-107875000D01*
X176875000Y-103875000D02*
X176875000Y-103625000D01*
X176875000Y-102125000D02*
X176875000Y-101875000D01*
X176875000Y-114125000D02*
X176875000Y-113875000D01*
X176875000Y-112875000D02*
X176875000Y-112625000D01*
X176875000Y-116875000D02*
X176875000Y-116625000D01*
X176875000Y-129625000D02*
X176875000Y-129375000D01*
X176875000Y-127625000D02*
X176875000Y-127375000D01*
X176875000Y-110125000D02*
X176875000Y-109875000D01*
X176875000Y-101625000D02*
X176875000Y-101375000D01*
X176625000Y-130875000D02*
X176875000Y-130625000D01*
X176875000Y-125625000D02*
X176875000Y-125375000D01*
X168625000Y-138875000D02*
X168875000Y-138625000D01*
X176875000Y-117625000D02*
X176875000Y-117375000D01*
X176875000Y-129125000D02*
X176875000Y-128875000D01*
X176875000Y-105625000D02*
X176875000Y-105375000D01*
X176875000Y-102875000D02*
X176875000Y-102625000D01*
X176875000Y-108875000D02*
X176875000Y-108625000D01*
X175625000Y-96625000D02*
X175375000Y-96375000D01*
X176875000Y-109125000D02*
X176875000Y-108875000D01*
X169625000Y-137875000D02*
X169875000Y-137625000D01*
X176125000Y-131375000D02*
X176375000Y-131125000D01*
X176875000Y-130375000D02*
X176875000Y-130125000D01*
X176875000Y-123375000D02*
X176875000Y-123125000D01*
X176875000Y-116125000D02*
X176875000Y-115875000D01*
X175875000Y-96875000D02*
X175625000Y-96625000D01*
X176875000Y-117375000D02*
X176875000Y-117125000D01*
X174375000Y-133125000D02*
X174625000Y-132875000D01*
X172625000Y-134875000D02*
X172875000Y-134625000D01*
X176875000Y-112625000D02*
X176875000Y-112375000D01*
X176875000Y-98875000D02*
X176875000Y-98625000D01*
X176875000Y-101125000D02*
X176875000Y-100875000D01*
X171125000Y-136375000D02*
X171375000Y-136125000D01*
X176875000Y-99875000D02*
X176875000Y-99625000D01*
X176875000Y-118375000D02*
X176875000Y-118125000D01*
X176875000Y-120125000D02*
X176875000Y-119875000D01*
X176875000Y-123875000D02*
X176875000Y-123625000D01*
X168125000Y-139375000D02*
X168375000Y-139125000D01*
X176875000Y-118125000D02*
X176875000Y-117875000D01*
X176875000Y-117875000D02*
X176875000Y-117625000D01*
X166625000Y-140875000D02*
X166875000Y-140625000D01*
X170125000Y-137375000D02*
X170375000Y-137125000D01*
X176875000Y-102375000D02*
X176875000Y-102125000D01*
X167625000Y-139875000D02*
X167875000Y-139625000D01*
X176125000Y-97125000D02*
X175875000Y-96875000D01*
X176875000Y-122625000D02*
X176875000Y-122375000D01*
X173375000Y-134125000D02*
X173625000Y-133875000D01*
X176875000Y-108375000D02*
X176875000Y-108125000D01*
X176875000Y-110625000D02*
X176875000Y-110375000D01*
X174625000Y-132875000D02*
X174875000Y-132625000D01*
X176875000Y-121375000D02*
X176875000Y-121125000D01*
X176875000Y-99125000D02*
X176875000Y-98875000D01*
X176875000Y-121625000D02*
X176875000Y-121375000D01*
X176875000Y-105375000D02*
X176875000Y-105125000D01*
X176875000Y-98125000D02*
X176875000Y-97875000D01*
X176875000Y-105875000D02*
X176875000Y-105625000D01*
X169875000Y-137625000D02*
X170125000Y-137375000D01*
X166875000Y-140625000D02*
X167125000Y-140375000D01*
X176875000Y-113875000D02*
X176875000Y-113625000D01*
X176875000Y-109625000D02*
X176875000Y-109375000D01*
X175875000Y-131625000D02*
X176125000Y-131375000D01*
X176875000Y-127875000D02*
X176875000Y-127625000D01*
X176875000Y-119625000D02*
X176875000Y-119375000D01*
X166375000Y-141125000D02*
X166625000Y-140875000D01*
X176875000Y-112375000D02*
X176875000Y-112125000D01*
X176875000Y-118625000D02*
X176875000Y-118375000D01*
X176875000Y-121875000D02*
X176875000Y-121625000D01*
X176875000Y-116625000D02*
X176875000Y-116375000D01*
X176875000Y-100375000D02*
X176875000Y-100125000D01*
X174125000Y-133375000D02*
X174375000Y-133125000D01*
X176875000Y-104375000D02*
X176875000Y-104125000D01*
X175375000Y-96375000D02*
X175125000Y-96125000D01*
X176875000Y-111375000D02*
X176875000Y-111125000D01*
X175375000Y-132125000D02*
X175625000Y-131875000D01*
X176875000Y-115625000D02*
X176875000Y-115375000D01*
X176875000Y-104125000D02*
X176875000Y-103875000D01*
X176875000Y-98375000D02*
X176875000Y-98125000D01*
X176875000Y-109875000D02*
X176875000Y-109625000D01*
X172125000Y-135375000D02*
X172375000Y-135125000D01*
X176875000Y-98625000D02*
X176875000Y-98375000D01*
X176875000Y-102625000D02*
X176875000Y-102375000D01*
X176875000Y-119875000D02*
X176875000Y-119625000D01*
X176875000Y-114375000D02*
X176875000Y-114125000D01*
X173875000Y-133625000D02*
X174125000Y-133375000D01*
X170875000Y-136625000D02*
X171125000Y-136375000D01*
X176875000Y-109375000D02*
X176875000Y-109125000D01*
X169125000Y-138375000D02*
X169375000Y-138125000D01*
X176875000Y-112125000D02*
X176875000Y-111875000D01*
X176875000Y-126125000D02*
X176875000Y-125875000D01*
X176875000Y-104875000D02*
X176875000Y-104625000D01*
X176875000Y-126625000D02*
X176875000Y-126375000D01*
X171625000Y-135875000D02*
X171875000Y-135625000D01*
X169375000Y-138125000D02*
X169625000Y-137875000D01*
X176875000Y-124625000D02*
X176875000Y-124375000D01*
X176875000Y-128375000D02*
X176875000Y-128125000D01*
X176625000Y-97625000D02*
X176375000Y-97375000D01*
X175625000Y-131875000D02*
X175875000Y-131625000D01*
X176875000Y-101875000D02*
X176875000Y-101625000D01*
X176875000Y-105125000D02*
X176875000Y-104875000D01*
X176875000Y-124375000D02*
X176875000Y-124125000D01*
X176875000Y-123625000D02*
X176875000Y-123375000D01*
X176875000Y-104625000D02*
X176875000Y-104375000D01*
X176875000Y-120375000D02*
X176875000Y-120125000D01*
X176875000Y-128875000D02*
X176875000Y-128625000D01*
X165875000Y-141625000D02*
X166125000Y-141375000D01*
X176875000Y-108625000D02*
X176875000Y-108375000D01*
X176875000Y-129375000D02*
X176875000Y-129125000D01*
X176875000Y-111125000D02*
X176875000Y-110875000D01*
X167125000Y-140375000D02*
X167375000Y-140125000D01*
X176875000Y-103125000D02*
X176875000Y-102875000D01*
X176875000Y-114625000D02*
X176875000Y-114375000D01*
X168875000Y-138625000D02*
X169125000Y-138375000D01*
X176875000Y-111625000D02*
X176875000Y-111375000D01*
X176875000Y-118875000D02*
X176875000Y-118625000D01*
X176875000Y-125125000D02*
X176875000Y-124875000D01*
X176875000Y-107875000D02*
X176875000Y-107625000D01*
X176875000Y-115125000D02*
X176875000Y-114875000D01*
X176875000Y-114875000D02*
X176875000Y-114625000D01*
X176875000Y-107125000D02*
X176875000Y-106875000D01*
X176875000Y-123125000D02*
X176875000Y-122875000D01*
X176875000Y-99625000D02*
X176875000Y-99375000D01*
X176875000Y-103375000D02*
X176875000Y-103125000D01*
X172375000Y-135125000D02*
X172625000Y-134875000D01*
%TO.N,/TFT_DC*%
X176375000Y-130375000D02*
X176375000Y-130125000D01*
X176375000Y-111125000D02*
X176375000Y-110875000D01*
X172875000Y-133875000D02*
X173125000Y-133625000D01*
X176375000Y-109125000D02*
X176375000Y-108875000D01*
X158125000Y-148625000D02*
X158375000Y-148375000D01*
X176375000Y-104375000D02*
X176375000Y-104125000D01*
X176375000Y-125125000D02*
X176375000Y-124875000D01*
X176375000Y-119125000D02*
X176375000Y-118875000D01*
X176375000Y-108625000D02*
X176375000Y-108375000D01*
X176375000Y-126625000D02*
X176375000Y-126375000D01*
X176375000Y-128375000D02*
X176375000Y-128125000D01*
X168875000Y-137875000D02*
X169125000Y-137625000D01*
X176375000Y-118875000D02*
X176375000Y-118625000D01*
X175625000Y-101625000D02*
X175375000Y-101375000D01*
X176375000Y-130125000D02*
X176375000Y-129875000D01*
X161875000Y-144875000D02*
X162125000Y-144625000D01*
X176375000Y-113625000D02*
X176375000Y-113375000D01*
X176375000Y-106375000D02*
X176375000Y-106125000D01*
X176375000Y-107875000D02*
X176375000Y-107625000D01*
X176375000Y-123875000D02*
X176375000Y-123625000D01*
X176375000Y-120875000D02*
X176375000Y-120625000D01*
X176375000Y-124375000D02*
X176375000Y-124125000D01*
X176375000Y-118625000D02*
X176375000Y-118375000D01*
X176375000Y-127125000D02*
X176375000Y-126875000D01*
X164875000Y-141875000D02*
X165125000Y-141625000D01*
X174375000Y-132375000D02*
X174625000Y-132125000D01*
X176375000Y-114875000D02*
X176375000Y-114625000D01*
X176375000Y-113125000D02*
X176375000Y-112875000D01*
X176375000Y-123125000D02*
X176375000Y-122875000D01*
X168375000Y-138375000D02*
X168625000Y-138125000D01*
X176375000Y-113875000D02*
X176375000Y-113625000D01*
X156500000Y-151000000D02*
X156625000Y-151125000D01*
X175375000Y-131375000D02*
X175625000Y-131125000D01*
X176375000Y-103625000D02*
X176375000Y-103375000D01*
X176375000Y-106875000D02*
X176375000Y-106625000D01*
X153000000Y-151120000D02*
X156500000Y-151000000D01*
X176375000Y-107375000D02*
X176375000Y-107125000D01*
X157875000Y-148875000D02*
X158125000Y-148625000D01*
X176375000Y-116125000D02*
X176375000Y-115875000D01*
X169125000Y-137625000D02*
X169375000Y-137375000D01*
X173875000Y-132875000D02*
X174125000Y-132625000D01*
X166125000Y-140625000D02*
X166375000Y-140375000D01*
X160875000Y-145875000D02*
X161125000Y-145625000D01*
X172125000Y-134625000D02*
X172375000Y-134375000D01*
X158375000Y-148375000D02*
X158625000Y-148125000D01*
X174625000Y-132125000D02*
X174875000Y-131875000D01*
X173625000Y-133125000D02*
X173875000Y-132875000D01*
X176375000Y-103375000D02*
X176375000Y-103125000D01*
X168125000Y-138625000D02*
X168375000Y-138375000D01*
X176375000Y-108875000D02*
X176375000Y-108625000D01*
X160125000Y-146625000D02*
X160375000Y-146375000D01*
X176375000Y-117125000D02*
X176375000Y-116875000D01*
X176375000Y-106125000D02*
X176375000Y-105875000D01*
X156625000Y-150375000D02*
X156625000Y-150125000D01*
X176375000Y-112375000D02*
X176375000Y-112125000D01*
X176375000Y-127875000D02*
X176375000Y-127625000D01*
X157625000Y-149125000D02*
X157875000Y-148875000D01*
X165625000Y-141125000D02*
X165875000Y-140875000D01*
X166625000Y-140125000D02*
X166875000Y-139875000D01*
X176375000Y-121875000D02*
X176375000Y-121625000D01*
X162125000Y-144625000D02*
X162375000Y-144375000D01*
X176375000Y-112125000D02*
X176375000Y-111875000D01*
X171375000Y-135375000D02*
X171625000Y-135125000D01*
X159375000Y-147375000D02*
X159625000Y-147125000D01*
X176375000Y-114625000D02*
X176375000Y-114375000D01*
X176375000Y-126375000D02*
X176375000Y-126125000D01*
X156625000Y-150125000D02*
X156875000Y-149875000D01*
X176375000Y-118125000D02*
X176375000Y-117875000D01*
X176375000Y-129625000D02*
X176375000Y-129375000D01*
X176375000Y-128625000D02*
X176375000Y-128375000D01*
X168625000Y-138125000D02*
X168875000Y-137875000D01*
X161375000Y-145375000D02*
X161625000Y-145125000D01*
X175875000Y-130875000D02*
X176125000Y-130625000D01*
X176375000Y-118375000D02*
X176375000Y-118125000D01*
X163625000Y-143125000D02*
X163875000Y-142875000D01*
X162875000Y-143875000D02*
X163125000Y-143625000D01*
X159625000Y-147125000D02*
X159875000Y-146875000D01*
X176375000Y-105875000D02*
X176375000Y-105625000D01*
X163125000Y-143625000D02*
X163375000Y-143375000D01*
X163875000Y-142875000D02*
X164125000Y-142625000D01*
X172375000Y-134375000D02*
X172625000Y-134125000D01*
X170625000Y-136125000D02*
X170875000Y-135875000D01*
X176375000Y-124875000D02*
X176375000Y-124625000D01*
X176375000Y-121375000D02*
X176375000Y-121125000D01*
X176375000Y-126125000D02*
X176375000Y-125875000D01*
X176375000Y-110875000D02*
X176375000Y-110625000D01*
X176375000Y-102375000D02*
X176125000Y-102125000D01*
X176375000Y-112875000D02*
X176375000Y-112625000D01*
X171125000Y-135625000D02*
X171375000Y-135375000D01*
X176375000Y-112625000D02*
X176375000Y-112375000D01*
X175625000Y-131125000D02*
X175875000Y-130875000D01*
X169625000Y-137125000D02*
X169875000Y-136875000D01*
X165125000Y-141625000D02*
X165375000Y-141375000D01*
X176375000Y-124625000D02*
X176375000Y-124375000D01*
X176375000Y-105125000D02*
X176375000Y-104875000D01*
X176375000Y-115375000D02*
X176375000Y-115125000D01*
X176375000Y-115875000D02*
X176375000Y-115625000D01*
X174875000Y-131875000D02*
X175125000Y-131625000D01*
X170875000Y-135875000D02*
X171125000Y-135625000D01*
X176375000Y-110375000D02*
X176375000Y-110125000D01*
X173125000Y-133625000D02*
X173375000Y-133375000D01*
X176375000Y-123375000D02*
X176375000Y-123125000D01*
X176375000Y-111625000D02*
X176375000Y-111375000D01*
X176375000Y-124125000D02*
X176375000Y-123875000D01*
X167625000Y-139125000D02*
X167875000Y-138875000D01*
X175125000Y-131625000D02*
X175375000Y-131375000D01*
X176375000Y-117375000D02*
X176375000Y-117125000D01*
X170125000Y-136625000D02*
X170375000Y-136375000D01*
X176375000Y-128125000D02*
X176375000Y-127875000D01*
X164625000Y-142125000D02*
X164875000Y-141875000D01*
X167375000Y-139375000D02*
X167625000Y-139125000D01*
X176125000Y-102125000D02*
X175875000Y-101875000D01*
X165375000Y-141375000D02*
X165625000Y-141125000D01*
X173375000Y-133375000D02*
X173625000Y-133125000D01*
X176375000Y-121625000D02*
X176375000Y-121375000D01*
X170375000Y-136375000D02*
X170625000Y-136125000D01*
X176375000Y-102625000D02*
X176375000Y-102375000D01*
X176375000Y-116625000D02*
X176375000Y-116375000D01*
X176375000Y-125625000D02*
X176375000Y-125375000D01*
X176375000Y-119625000D02*
X176375000Y-119375000D01*
X171875000Y-134875000D02*
X172125000Y-134625000D01*
X176375000Y-125875000D02*
X176375000Y-125625000D01*
X176375000Y-129125000D02*
X176375000Y-128875000D01*
X176375000Y-117875000D02*
X176375000Y-117625000D01*
X176375000Y-110625000D02*
X176375000Y-110375000D01*
X176375000Y-108375000D02*
X176375000Y-108125000D01*
X167125000Y-139625000D02*
X167375000Y-139375000D01*
X176375000Y-105625000D02*
X176375000Y-105375000D01*
X161125000Y-145625000D02*
X161375000Y-145375000D01*
X156875000Y-149875000D02*
X157125000Y-149625000D01*
X176375000Y-102875000D02*
X176375000Y-102625000D01*
X176375000Y-125375000D02*
X176375000Y-125125000D01*
X176375000Y-119375000D02*
X176375000Y-119125000D01*
X176375000Y-114125000D02*
X176375000Y-113875000D01*
X176375000Y-104875000D02*
X176375000Y-104625000D01*
X176375000Y-120625000D02*
X176375000Y-120375000D01*
X176375000Y-122625000D02*
X176375000Y-122375000D01*
X176375000Y-107625000D02*
X176375000Y-107375000D01*
X176375000Y-114375000D02*
X176375000Y-114125000D01*
X176375000Y-103125000D02*
X176375000Y-102875000D01*
X175875000Y-101875000D02*
X175625000Y-101625000D01*
X171625000Y-135125000D02*
X171875000Y-134875000D01*
X167875000Y-138875000D02*
X168125000Y-138625000D01*
X176375000Y-116875000D02*
X176375000Y-116625000D01*
X176375000Y-107125000D02*
X176375000Y-106875000D01*
X176375000Y-126875000D02*
X176375000Y-126625000D01*
X176375000Y-104125000D02*
X176375000Y-103875000D01*
X176375000Y-129375000D02*
X176375000Y-129125000D01*
X176375000Y-111875000D02*
X176375000Y-111625000D01*
X176375000Y-113375000D02*
X176375000Y-113125000D01*
X162375000Y-144375000D02*
X162625000Y-144125000D01*
X166375000Y-140375000D02*
X166625000Y-140125000D01*
X176375000Y-122125000D02*
X176375000Y-121875000D01*
X166875000Y-139875000D02*
X167125000Y-139625000D01*
X176375000Y-109625000D02*
X176375000Y-109375000D01*
X176375000Y-122875000D02*
X176375000Y-122625000D01*
X176375000Y-122375000D02*
X176375000Y-122125000D01*
X176125000Y-130625000D02*
X176375000Y-130375000D01*
X157375000Y-149375000D02*
X157625000Y-149125000D01*
X172625000Y-134125000D02*
X172875000Y-133875000D01*
X174125000Y-132625000D02*
X174375000Y-132375000D01*
X163375000Y-143375000D02*
X163625000Y-143125000D01*
X176375000Y-120125000D02*
X176375000Y-119875000D01*
X176375000Y-110125000D02*
X176375000Y-109875000D01*
X176375000Y-103875000D02*
X176375000Y-103625000D01*
X165875000Y-140875000D02*
X166125000Y-140625000D01*
X162625000Y-144125000D02*
X162875000Y-143875000D01*
X176375000Y-105375000D02*
X176375000Y-105125000D01*
X176375000Y-109375000D02*
X176375000Y-109125000D01*
X160375000Y-146375000D02*
X160625000Y-146125000D01*
X176375000Y-127625000D02*
X176375000Y-127375000D01*
X160625000Y-146125000D02*
X160875000Y-145875000D01*
X156625000Y-150625000D02*
X156625000Y-150375000D01*
X169875000Y-136875000D02*
X170125000Y-136625000D01*
X176375000Y-109875000D02*
X176375000Y-109625000D01*
X176375000Y-115125000D02*
X176375000Y-114875000D01*
X176375000Y-108125000D02*
X176375000Y-107875000D01*
X176375000Y-119875000D02*
X176375000Y-119625000D01*
X156625000Y-151125000D02*
X156625000Y-150875000D01*
X176375000Y-117625000D02*
X176375000Y-117375000D01*
X159125000Y-147625000D02*
X159375000Y-147375000D01*
X176375000Y-111375000D02*
X176375000Y-111125000D01*
X158875000Y-147875000D02*
X159125000Y-147625000D01*
X164375000Y-142375000D02*
X164625000Y-142125000D01*
X169375000Y-137375000D02*
X169625000Y-137125000D01*
X161625000Y-145125000D02*
X161875000Y-144875000D01*
X176375000Y-128875000D02*
X176375000Y-128625000D01*
X176375000Y-120375000D02*
X176375000Y-120125000D01*
X159875000Y-146875000D02*
X160125000Y-146625000D01*
X157125000Y-149625000D02*
X157375000Y-149375000D01*
X156625000Y-150875000D02*
X156625000Y-150625000D01*
X176375000Y-129875000D02*
X176375000Y-129625000D01*
X176375000Y-127375000D02*
X176375000Y-127125000D01*
X176375000Y-104625000D02*
X176375000Y-104375000D01*
X176375000Y-106625000D02*
X176375000Y-106375000D01*
X176375000Y-121125000D02*
X176375000Y-120875000D01*
X158625000Y-148125000D02*
X158875000Y-147875000D01*
X175375000Y-101375000D02*
X175125000Y-101125000D01*
X176375000Y-123625000D02*
X176375000Y-123375000D01*
X164125000Y-142625000D02*
X164375000Y-142375000D01*
X176375000Y-115625000D02*
X176375000Y-115375000D01*
X176375000Y-116375000D02*
X176375000Y-116125000D01*
%TO.N,/TFT_CS*%
X144625000Y-133375000D02*
X144875000Y-133375000D01*
X142375000Y-133375000D02*
X142625000Y-133375000D01*
X136125000Y-135875000D02*
X136375000Y-135875000D01*
X139125000Y-135875000D02*
X139375000Y-135875000D01*
X137375000Y-135875000D02*
X137625000Y-135875000D01*
X134875000Y-135875000D02*
X135125000Y-135875000D01*
X136875000Y-135875000D02*
X137125000Y-135875000D01*
X138875000Y-135875000D02*
X139125000Y-135875000D01*
X137125000Y-135875000D02*
X137375000Y-135875000D01*
X140875000Y-134875000D02*
X141125000Y-134625000D01*
X141625000Y-134125000D02*
X141875000Y-133875000D01*
X139875000Y-135875000D02*
X140125000Y-135625000D01*
X142875000Y-133375000D02*
X143125000Y-133375000D01*
X139375000Y-135875000D02*
X139625000Y-135875000D01*
X135375000Y-135875000D02*
X135625000Y-135875000D01*
X143625000Y-133375000D02*
X143875000Y-133375000D01*
X138625000Y-135875000D02*
X138875000Y-135875000D01*
X134125000Y-135875000D02*
X134375000Y-135875000D01*
X139625000Y-135875000D02*
X139875000Y-135875000D01*
X142625000Y-133375000D02*
X142875000Y-133375000D01*
X135625000Y-135875000D02*
X135875000Y-135875000D01*
X136835000Y-135880000D02*
X133000000Y-135900000D01*
X144125000Y-133375000D02*
X144375000Y-133375000D01*
X133875000Y-135875000D02*
X134125000Y-135875000D01*
X137875000Y-135875000D02*
X138125000Y-135875000D01*
X142125000Y-133625000D02*
X142375000Y-133375000D01*
X135125000Y-135875000D02*
X135375000Y-135875000D01*
X136625000Y-135875000D02*
X136875000Y-135875000D01*
X133125000Y-135875000D02*
X133375000Y-135875000D01*
X143125000Y-133375000D02*
X143375000Y-133375000D01*
X144375000Y-133375000D02*
X144625000Y-133375000D01*
X141875000Y-133875000D02*
X142125000Y-133625000D01*
X144875000Y-133375000D02*
X145125000Y-133375000D01*
X133625000Y-135875000D02*
X133875000Y-135875000D01*
X138375000Y-135875000D02*
X138625000Y-135875000D01*
X138125000Y-135875000D02*
X138375000Y-135875000D01*
X137625000Y-135875000D02*
X137875000Y-135875000D01*
X135875000Y-135875000D02*
X136125000Y-135875000D01*
X134625000Y-135875000D02*
X134875000Y-135875000D01*
X143875000Y-133375000D02*
X144125000Y-133375000D01*
X133000000Y-135900000D02*
X133125000Y-135875000D01*
X140625000Y-135125000D02*
X140875000Y-134875000D01*
X141125000Y-134625000D02*
X141375000Y-134375000D01*
X143375000Y-133375000D02*
X143625000Y-133375000D01*
X133375000Y-135875000D02*
X133625000Y-135875000D01*
X134375000Y-135875000D02*
X134625000Y-135875000D01*
X141375000Y-134375000D02*
X141625000Y-134125000D01*
X136375000Y-135875000D02*
X136625000Y-135875000D01*
X140375000Y-135375000D02*
X140625000Y-135125000D01*
X140125000Y-135625000D02*
X140375000Y-135375000D01*
%TO.N,/COL2*%
X125875000Y-110125000D02*
X126125000Y-110375000D01*
X122625000Y-106875000D02*
X122875000Y-107125000D01*
X136835000Y-148580000D02*
X133000000Y-148500000D01*
X126875000Y-111125000D02*
X127125000Y-111375000D01*
X127125000Y-111375000D02*
X127375000Y-111625000D01*
X122875000Y-107125000D02*
X123125000Y-107375000D01*
X121000000Y-106000000D02*
X121125000Y-106125000D01*
X126125000Y-110375000D02*
X126375000Y-110625000D01*
X121125000Y-106125000D02*
X121375000Y-106125000D01*
X126625000Y-110875000D02*
X126875000Y-111125000D01*
X123625000Y-107875000D02*
X123875000Y-108125000D01*
X123375000Y-107625000D02*
X123625000Y-107875000D01*
X124125000Y-108375000D02*
X124375000Y-108625000D01*
X126375000Y-110625000D02*
X126625000Y-110875000D01*
X121625000Y-106125000D02*
X121875000Y-106125000D01*
X125125000Y-109375000D02*
X125375000Y-109625000D01*
X124625000Y-108875000D02*
X124875000Y-109125000D01*
X123125000Y-107375000D02*
X123375000Y-107625000D01*
X127375000Y-111625000D02*
X127625000Y-111875000D01*
X122125000Y-106375000D02*
X122375000Y-106625000D01*
X124875000Y-109125000D02*
X125125000Y-109375000D01*
X125375000Y-109625000D02*
X125625000Y-109875000D01*
X125625000Y-109875000D02*
X125875000Y-110125000D01*
X121375000Y-106125000D02*
X121625000Y-106125000D01*
X121875000Y-106125000D02*
X122125000Y-106375000D01*
X124375000Y-108625000D02*
X124625000Y-108875000D01*
X122375000Y-106625000D02*
X122625000Y-106875000D01*
X123875000Y-108125000D02*
X124125000Y-108375000D01*
%TO.N,Net-(D3-A)*%
X138875000Y-114375000D02*
X138625000Y-114375000D01*
X128875000Y-117875000D02*
X128875000Y-117625000D01*
X159125000Y-122125000D02*
X158875000Y-121875000D01*
X155875000Y-118875000D02*
X155625000Y-118625000D01*
X153625000Y-116625000D02*
X153375000Y-116375000D01*
X164875000Y-125125000D02*
X164625000Y-125125000D01*
X146125000Y-114375000D02*
X145875000Y-114375000D01*
X155625000Y-118625000D02*
X155375000Y-118375000D01*
X122125000Y-114375000D02*
X121875000Y-114375000D01*
X123125000Y-114375000D02*
X122875000Y-114375000D01*
X152375000Y-115375000D02*
X152125000Y-115125000D01*
X158125000Y-115625000D02*
X157875000Y-115875000D01*
X156625000Y-119625000D02*
X156375000Y-119375000D01*
X145375000Y-114375000D02*
X145125000Y-114375000D01*
X155125000Y-118125000D02*
X154875000Y-117875000D01*
X122625000Y-114375000D02*
X122375000Y-114375000D01*
X128875000Y-124625000D02*
X128875000Y-124375000D01*
X127625000Y-114375000D02*
X127375000Y-114375000D01*
X128875000Y-122375000D02*
X128875000Y-122125000D01*
X160000000Y-114460000D02*
X160125000Y-114375000D01*
X137625000Y-114375000D02*
X137375000Y-114375000D01*
X154875000Y-118875000D02*
X155125000Y-118625000D01*
X124625000Y-114375000D02*
X124375000Y-114375000D01*
X156625000Y-117125000D02*
X156375000Y-117375000D01*
X162375000Y-125125000D02*
X162125000Y-125125000D01*
X140625000Y-114375000D02*
X140375000Y-114375000D01*
X140690000Y-114460000D02*
X140625000Y-114375000D01*
X128875000Y-120625000D02*
X128875000Y-120375000D01*
X147375000Y-114375000D02*
X147125000Y-114375000D01*
X128875000Y-122125000D02*
X128875000Y-121875000D01*
X159875000Y-122875000D02*
X159625000Y-122625000D01*
X156125000Y-119125000D02*
X155875000Y-118875000D01*
X126375000Y-114375000D02*
X126125000Y-114375000D01*
X127875000Y-114875000D02*
X127875000Y-114625000D01*
X148810000Y-125000000D02*
X148875000Y-125125000D01*
X125375000Y-114375000D02*
X125125000Y-114375000D01*
X127375000Y-114375000D02*
X127125000Y-114375000D01*
X126125000Y-114375000D02*
X125875000Y-114375000D01*
X158875000Y-114875000D02*
X158625000Y-115125000D01*
X157625000Y-116125000D02*
X157375000Y-116375000D01*
X123625000Y-114375000D02*
X123375000Y-114375000D01*
X137875000Y-114375000D02*
X137625000Y-114375000D01*
X148625000Y-114375000D02*
X148375000Y-114375000D01*
X128875000Y-119375000D02*
X128875000Y-119125000D01*
X128875000Y-119625000D02*
X128875000Y-119375000D01*
X164375000Y-125125000D02*
X164125000Y-125125000D01*
X128875000Y-120375000D02*
X128875000Y-120125000D01*
X151875000Y-114875000D02*
X151625000Y-114625000D01*
X136125000Y-114375000D02*
X135875000Y-114375000D01*
X157125000Y-116625000D02*
X156875000Y-116875000D01*
X128875000Y-122625000D02*
X128875000Y-122375000D01*
X160125000Y-123125000D02*
X159875000Y-122875000D01*
X144125000Y-114375000D02*
X143875000Y-114375000D01*
X134625000Y-114375000D02*
X134375000Y-114375000D01*
X154625000Y-117625000D02*
X154375000Y-117375000D01*
X156125000Y-117625000D02*
X155875000Y-117875000D01*
X128875000Y-118125000D02*
X128875000Y-117875000D01*
X141125000Y-114375000D02*
X140875000Y-114375000D01*
X127875000Y-115125000D02*
X127875000Y-114875000D01*
X166625000Y-125125000D02*
X166375000Y-125125000D01*
X151625000Y-114625000D02*
X151375000Y-114375000D01*
X128875000Y-118625000D02*
X128875000Y-118375000D01*
X145125000Y-114375000D02*
X144875000Y-114375000D01*
X128875000Y-121625000D02*
X128875000Y-121375000D01*
X142375000Y-114375000D02*
X142125000Y-114375000D01*
X144375000Y-114375000D02*
X144125000Y-114375000D01*
X138125000Y-114375000D02*
X137875000Y-114375000D01*
X159625000Y-122625000D02*
X159375000Y-122375000D01*
X154625000Y-119125000D02*
X154875000Y-118875000D01*
X160375000Y-123375000D02*
X160125000Y-123125000D01*
X157875000Y-115875000D02*
X157625000Y-116125000D01*
X122375000Y-114375000D02*
X122125000Y-114375000D01*
X158375000Y-115375000D02*
X158125000Y-115625000D01*
X136875000Y-114375000D02*
X136625000Y-114375000D01*
X128875000Y-121875000D02*
X128875000Y-121625000D01*
X150625000Y-123125000D02*
X150875000Y-122875000D01*
X127875000Y-116375000D02*
X127875000Y-116125000D01*
X137375000Y-114375000D02*
X137125000Y-114375000D01*
X139375000Y-114375000D02*
X139125000Y-114375000D01*
X128875000Y-119125000D02*
X128875000Y-118875000D01*
X151375000Y-122375000D02*
X151625000Y-122125000D01*
X128875000Y-122875000D02*
X128875000Y-122625000D01*
X159875000Y-114375000D02*
X159625000Y-114375000D01*
X164125000Y-125125000D02*
X163875000Y-125125000D01*
X159125000Y-114625000D02*
X158875000Y-114875000D01*
X154375000Y-119375000D02*
X154625000Y-119125000D01*
X161125000Y-124125000D02*
X160875000Y-123875000D01*
X125125000Y-114375000D02*
X124875000Y-114375000D01*
X127875000Y-115375000D02*
X127875000Y-115125000D01*
X127875000Y-116125000D02*
X127875000Y-115875000D01*
X156375000Y-117375000D02*
X156125000Y-117625000D01*
X167810000Y-125000000D02*
X167875000Y-125125000D01*
X135125000Y-114375000D02*
X134875000Y-114375000D01*
X163625000Y-125125000D02*
X163375000Y-125125000D01*
X121625000Y-114375000D02*
X121375000Y-114375000D01*
X163375000Y-125125000D02*
X163125000Y-125125000D01*
X162125000Y-125125000D02*
X161875000Y-124875000D01*
X128625000Y-117375000D02*
X128375000Y-117125000D01*
X128875000Y-123125000D02*
X128875000Y-122875000D01*
X127875000Y-115875000D02*
X127875000Y-115625000D01*
X128875000Y-123625000D02*
X128875000Y-123375000D01*
X148375000Y-114375000D02*
X148125000Y-114375000D01*
X128875000Y-119875000D02*
X128875000Y-119625000D01*
X166875000Y-125125000D02*
X166625000Y-125125000D01*
X135875000Y-114375000D02*
X135625000Y-114375000D01*
X150875000Y-122875000D02*
X151125000Y-122625000D01*
X123875000Y-114375000D02*
X123625000Y-114375000D01*
X156875000Y-119875000D02*
X156625000Y-119625000D01*
X149625000Y-114375000D02*
X149375000Y-114375000D01*
X146625000Y-114375000D02*
X146375000Y-114375000D01*
X165625000Y-125125000D02*
X165375000Y-125125000D01*
X155875000Y-117875000D02*
X155625000Y-118125000D01*
X147125000Y-114375000D02*
X146875000Y-114375000D01*
X147875000Y-114375000D02*
X147625000Y-114375000D01*
X166125000Y-125125000D02*
X165875000Y-125125000D01*
X157375000Y-120375000D02*
X157125000Y-120125000D01*
X166375000Y-125125000D02*
X166125000Y-125125000D01*
X149125000Y-114375000D02*
X148875000Y-114375000D01*
X142125000Y-114375000D02*
X141875000Y-114375000D01*
X165125000Y-125125000D02*
X164875000Y-125125000D01*
X167125000Y-125125000D02*
X166875000Y-125125000D01*
X149875000Y-123875000D02*
X150125000Y-123625000D01*
X134875000Y-114375000D02*
X134625000Y-114375000D01*
X159375000Y-114375000D02*
X159125000Y-114625000D01*
X149875000Y-114375000D02*
X149625000Y-114375000D01*
X125875000Y-114375000D02*
X125625000Y-114375000D01*
X152125000Y-115125000D02*
X151875000Y-114875000D01*
X152625000Y-115625000D02*
X152375000Y-115375000D01*
X140125000Y-114375000D02*
X139875000Y-114375000D01*
X155375000Y-118375000D02*
X155125000Y-118125000D01*
X156875000Y-116875000D02*
X156625000Y-117125000D01*
X128875000Y-120875000D02*
X128875000Y-120625000D01*
X154125000Y-117125000D02*
X153875000Y-116875000D01*
X128125000Y-116875000D02*
X127875000Y-116625000D01*
X121875000Y-114375000D02*
X121625000Y-114375000D01*
X153875000Y-119875000D02*
X154125000Y-119625000D01*
X128875000Y-121125000D02*
X128875000Y-120875000D01*
X128875000Y-120125000D02*
X128875000Y-119875000D01*
X151875000Y-121875000D02*
X152125000Y-121625000D01*
X150375000Y-114375000D02*
X150125000Y-114375000D01*
X142625000Y-114375000D02*
X142375000Y-114375000D01*
X153625000Y-120125000D02*
X153875000Y-119875000D01*
X151125000Y-114375000D02*
X150875000Y-114375000D01*
X149125000Y-124625000D02*
X149375000Y-124375000D01*
X150875000Y-114375000D02*
X150625000Y-114375000D01*
X151625000Y-122125000D02*
X151875000Y-121875000D01*
X125625000Y-114375000D02*
X125375000Y-114375000D01*
X163875000Y-125125000D02*
X163625000Y-125125000D01*
X157875000Y-120875000D02*
X157625000Y-120625000D01*
X150125000Y-114375000D02*
X149875000Y-114375000D01*
X152375000Y-121375000D02*
X152625000Y-121125000D01*
X143125000Y-114375000D02*
X142875000Y-114375000D01*
X161375000Y-124375000D02*
X161125000Y-124125000D01*
X124375000Y-114375000D02*
X124125000Y-114375000D01*
X128875000Y-124375000D02*
X128875000Y-124125000D01*
X160875000Y-123875000D02*
X160625000Y-123625000D01*
X148875000Y-124875000D02*
X149125000Y-124625000D01*
X153375000Y-120375000D02*
X153625000Y-120125000D01*
X141625000Y-114375000D02*
X141375000Y-114375000D01*
X153875000Y-116875000D02*
X153625000Y-116625000D01*
X127875000Y-114375000D02*
X127625000Y-114375000D01*
X128810000Y-125000000D02*
X128875000Y-125125000D01*
X165875000Y-125125000D02*
X165625000Y-125125000D01*
X152875000Y-120875000D02*
X153125000Y-120625000D01*
X153125000Y-120625000D02*
X153375000Y-120375000D01*
X127875000Y-115625000D02*
X127875000Y-115375000D01*
X155625000Y-118125000D02*
X155375000Y-118375000D01*
X159375000Y-122375000D02*
X159125000Y-122125000D01*
X144875000Y-114375000D02*
X144625000Y-114375000D01*
X127875000Y-114625000D02*
X127875000Y-114375000D01*
X157375000Y-116375000D02*
X157125000Y-116625000D01*
X159625000Y-114375000D02*
X159375000Y-114375000D01*
X152875000Y-115875000D02*
X152625000Y-115625000D01*
X128375000Y-117125000D02*
X128125000Y-116875000D01*
X143375000Y-114375000D02*
X143125000Y-114375000D01*
X158875000Y-121875000D02*
X158625000Y-121625000D01*
X140875000Y-114375000D02*
X140625000Y-114375000D01*
X145625000Y-114375000D02*
X145375000Y-114375000D01*
X158125000Y-121125000D02*
X157875000Y-120875000D01*
X161625000Y-124625000D02*
X161375000Y-124375000D01*
X157625000Y-120625000D02*
X157375000Y-120375000D01*
X154125000Y-119625000D02*
X154375000Y-119375000D01*
X156375000Y-119375000D02*
X156125000Y-119125000D01*
X141375000Y-114375000D02*
X141125000Y-114375000D01*
X145875000Y-114375000D02*
X145625000Y-114375000D01*
X148875000Y-125125000D02*
X148875000Y-124875000D01*
X126875000Y-114375000D02*
X126625000Y-114375000D01*
X160625000Y-123625000D02*
X160375000Y-123375000D01*
X150125000Y-123625000D02*
X150375000Y-123375000D01*
X128875000Y-118375000D02*
X128875000Y-118125000D01*
X149375000Y-124375000D02*
X149625000Y-124125000D01*
X143625000Y-114375000D02*
X143375000Y-114375000D01*
X142875000Y-114375000D02*
X142625000Y-114375000D01*
X135375000Y-114375000D02*
X135125000Y-114375000D01*
X147625000Y-114375000D02*
X147375000Y-114375000D01*
X157125000Y-120125000D02*
X156875000Y-119875000D01*
X167875000Y-125125000D02*
X167625000Y-125125000D01*
X161875000Y-124875000D02*
X161625000Y-124625000D01*
X163125000Y-125125000D02*
X162875000Y-125125000D01*
X144625000Y-114375000D02*
X144375000Y-114375000D01*
X128875000Y-121375000D02*
X128875000Y-121125000D01*
X154375000Y-117375000D02*
X154125000Y-117125000D01*
X136375000Y-114375000D02*
X136125000Y-114375000D01*
X151125000Y-122625000D02*
X151375000Y-122375000D01*
X128875000Y-123375000D02*
X128875000Y-123125000D01*
X138625000Y-114375000D02*
X138375000Y-114375000D01*
X164625000Y-125125000D02*
X164375000Y-125125000D01*
X127875000Y-116625000D02*
X127875000Y-116375000D01*
X162875000Y-125125000D02*
X162625000Y-125125000D01*
X128875000Y-125125000D02*
X128875000Y-124875000D01*
X150625000Y-114375000D02*
X150375000Y-114375000D01*
X152625000Y-121125000D02*
X152875000Y-120875000D01*
X128875000Y-124875000D02*
X128875000Y-124625000D01*
X146375000Y-114375000D02*
X146125000Y-114375000D01*
X139875000Y-114375000D02*
X139625000Y-114375000D01*
X146875000Y-114375000D02*
X146625000Y-114375000D01*
X123375000Y-114375000D02*
X123125000Y-114375000D01*
X148875000Y-114375000D02*
X148625000Y-114375000D01*
X167375000Y-125125000D02*
X167125000Y-125125000D01*
X127125000Y-114375000D02*
X126875000Y-114375000D01*
X151375000Y-114375000D02*
X151125000Y-114375000D01*
X141875000Y-114375000D02*
X141625000Y-114375000D01*
X134125000Y-114375000D02*
X133875000Y-114375000D01*
X139625000Y-114375000D02*
X139375000Y-114375000D01*
X167625000Y-125125000D02*
X167375000Y-125125000D01*
X158375000Y-121375000D02*
X158125000Y-121125000D01*
X137125000Y-114375000D02*
X136875000Y-114375000D01*
X158625000Y-121625000D02*
X158375000Y-121375000D01*
X124125000Y-114375000D02*
X123875000Y-114375000D01*
X143875000Y-114375000D02*
X143625000Y-114375000D01*
X139125000Y-114375000D02*
X138875000Y-114375000D01*
X134375000Y-114375000D02*
X134125000Y-114375000D01*
X122875000Y-114375000D02*
X122625000Y-114375000D01*
X140375000Y-114375000D02*
X140125000Y-114375000D01*
X158625000Y-115125000D02*
X158375000Y-115375000D01*
X162625000Y-125125000D02*
X162375000Y-125125000D01*
X153125000Y-116125000D02*
X152875000Y-115875000D01*
X128875000Y-124125000D02*
X128875000Y-123875000D01*
X128875000Y-118875000D02*
X128875000Y-118625000D01*
X128875000Y-123875000D02*
X128875000Y-123625000D01*
X136625000Y-114375000D02*
X136375000Y-114375000D01*
X135625000Y-114375000D02*
X135375000Y-114375000D01*
X124875000Y-114375000D02*
X124625000Y-114375000D01*
X160125000Y-114375000D02*
X159875000Y-114375000D01*
X165375000Y-125125000D02*
X165125000Y-125125000D01*
X155125000Y-118625000D02*
X155375000Y-118375000D01*
X148125000Y-114375000D02*
X147875000Y-114375000D01*
X152125000Y-121625000D02*
X152375000Y-121375000D01*
X121375000Y-114375000D02*
X121125000Y-114375000D01*
X154875000Y-117875000D02*
X154625000Y-117625000D01*
X126625000Y-114375000D02*
X126375000Y-114375000D01*
X149375000Y-114375000D02*
X149125000Y-114375000D01*
X149625000Y-124125000D02*
X149875000Y-123875000D01*
X128875000Y-117625000D02*
X128625000Y-117375000D01*
X150375000Y-123375000D02*
X150625000Y-123125000D01*
X138375000Y-114375000D02*
X138125000Y-114375000D01*
X153375000Y-116375000D02*
X153125000Y-116125000D01*
%TO.N,/COL1*%
X131375000Y-119125000D02*
X131375000Y-118875000D01*
X131375000Y-99875000D02*
X131375000Y-99625000D01*
X131375000Y-139875000D02*
X131375000Y-139625000D01*
X156375000Y-92375000D02*
X156125000Y-92375000D01*
X142125000Y-88625000D02*
X141875000Y-88375000D01*
X162625000Y-92375000D02*
X162375000Y-92375000D01*
X131375000Y-142375000D02*
X131375000Y-142125000D01*
X161125000Y-92375000D02*
X160875000Y-92375000D01*
X154125000Y-92375000D02*
X153875000Y-92375000D01*
X131375000Y-107375000D02*
X131375000Y-107125000D01*
X156125000Y-92375000D02*
X155875000Y-92375000D01*
X148375000Y-92375000D02*
X148125000Y-92375000D01*
X134625000Y-86625000D02*
X134375000Y-86625000D01*
X131375000Y-99125000D02*
X131375000Y-98875000D01*
X158375000Y-92375000D02*
X158125000Y-92375000D01*
X131375000Y-141875000D02*
X131375000Y-141625000D01*
X131375000Y-107125000D02*
X131375000Y-106875000D01*
X162875000Y-92375000D02*
X162625000Y-92375000D01*
X146375000Y-92375000D02*
X146125000Y-92375000D01*
X131875000Y-88125000D02*
X131625000Y-88375000D01*
X131375000Y-127625000D02*
X131375000Y-127375000D01*
X160125000Y-87375000D02*
X160125000Y-87625000D01*
X131375000Y-124375000D02*
X131375000Y-124125000D01*
X138875000Y-86625000D02*
X138625000Y-86625000D01*
X121375000Y-87125000D02*
X121625000Y-87125000D01*
X146125000Y-92375000D02*
X145875000Y-92375000D01*
X131375000Y-103375000D02*
X131375000Y-103125000D01*
X149125000Y-92375000D02*
X148875000Y-92375000D01*
X160625000Y-92375000D02*
X160375000Y-92375000D01*
X143375000Y-89875000D02*
X143125000Y-89625000D01*
X139375000Y-86625000D02*
X139125000Y-86625000D01*
X124375000Y-89625000D02*
X124625000Y-89875000D01*
X129625000Y-94875000D02*
X129375000Y-94625000D01*
X150375000Y-92375000D02*
X150125000Y-92375000D01*
X131375000Y-119875000D02*
X131375000Y-119625000D01*
X131375000Y-119375000D02*
X131375000Y-119125000D01*
X131375000Y-111125000D02*
X131375000Y-110875000D01*
X163375000Y-92375000D02*
X163125000Y-92375000D01*
X151625000Y-92375000D02*
X151375000Y-92375000D01*
X131375000Y-102875000D02*
X131375000Y-102625000D01*
X160125000Y-88375000D02*
X160125000Y-88625000D01*
X131375000Y-111875000D02*
X131375000Y-111625000D01*
X131375000Y-140375000D02*
X131375000Y-140125000D01*
X126875000Y-92125000D02*
X127125000Y-92375000D01*
X122375000Y-87625000D02*
X122625000Y-87875000D01*
X165125000Y-92375000D02*
X164875000Y-92375000D01*
X131375000Y-116625000D02*
X131375000Y-116375000D01*
X131125000Y-88875000D02*
X130875000Y-89125000D01*
X131375000Y-102375000D02*
X131375000Y-102125000D01*
X148625000Y-92375000D02*
X148375000Y-92375000D01*
X125375000Y-90625000D02*
X125625000Y-90875000D01*
X155875000Y-92375000D02*
X155625000Y-92375000D01*
X131375000Y-127375000D02*
X131375000Y-127125000D01*
X131375000Y-108125000D02*
X131375000Y-107875000D01*
X157625000Y-92375000D02*
X157375000Y-92375000D01*
X131375000Y-105875000D02*
X131375000Y-105625000D01*
X159125000Y-92375000D02*
X158875000Y-92375000D01*
X160125000Y-90375000D02*
X160125000Y-90625000D01*
X131375000Y-136875000D02*
X131375000Y-136625000D01*
X140875000Y-87375000D02*
X140625000Y-87125000D01*
X137875000Y-86625000D02*
X137625000Y-86625000D01*
X135375000Y-86625000D02*
X135125000Y-86625000D01*
X162125000Y-92375000D02*
X161875000Y-92375000D01*
X128375000Y-93625000D02*
X128125000Y-93375000D01*
X123375000Y-88625000D02*
X123625000Y-88875000D01*
X166125000Y-92375000D02*
X165875000Y-92375000D01*
X123875000Y-89125000D02*
X124125000Y-89375000D01*
X131375000Y-109875000D02*
X131375000Y-109625000D01*
X160125000Y-89875000D02*
X160125000Y-90125000D01*
X149375000Y-92375000D02*
X149125000Y-92375000D01*
X134875000Y-86625000D02*
X134625000Y-86625000D01*
X132875000Y-145125000D02*
X132625000Y-144875000D01*
X131375000Y-137125000D02*
X131375000Y-136875000D01*
X150625000Y-92375000D02*
X150375000Y-92375000D01*
X131375000Y-128375000D02*
X131375000Y-128125000D01*
X131375000Y-100625000D02*
X131375000Y-100375000D01*
X144125000Y-90625000D02*
X143875000Y-90375000D01*
X131375000Y-101875000D02*
X131375000Y-101625000D01*
X157125000Y-92375000D02*
X156875000Y-92375000D01*
X131375000Y-123875000D02*
X131375000Y-123625000D01*
X131375000Y-134375000D02*
X131375000Y-134125000D01*
X157875000Y-92375000D02*
X157625000Y-92375000D01*
X131375000Y-108625000D02*
X131375000Y-108375000D01*
X129375000Y-90625000D02*
X129125000Y-90875000D01*
X131375000Y-116125000D02*
X131375000Y-115875000D01*
X127125000Y-92375000D02*
X127375000Y-92625000D01*
X140125000Y-86625000D02*
X139875000Y-86625000D01*
X126125000Y-91375000D02*
X126375000Y-91625000D01*
X131375000Y-109625000D02*
X131375000Y-109375000D01*
X156875000Y-92375000D02*
X156625000Y-92375000D01*
X131375000Y-134875000D02*
X131375000Y-134625000D01*
X131375000Y-117375000D02*
X131375000Y-117125000D01*
X165875000Y-92375000D02*
X165625000Y-92375000D01*
X136835000Y-146040000D02*
X133000000Y-146000000D01*
X131375000Y-128125000D02*
X131375000Y-127875000D01*
X155625000Y-92375000D02*
X155375000Y-92375000D01*
X148125000Y-92375000D02*
X147875000Y-92375000D01*
X131375000Y-118625000D02*
X131375000Y-118375000D01*
X131375000Y-122375000D02*
X131375000Y-122125000D01*
X131375000Y-130625000D02*
X131375000Y-130375000D01*
X125125000Y-90375000D02*
X125375000Y-90625000D01*
X145375000Y-91875000D02*
X145125000Y-91625000D01*
X133125000Y-145375000D02*
X132875000Y-145125000D01*
X131375000Y-133125000D02*
X131375000Y-132875000D01*
X155375000Y-92375000D02*
X155125000Y-92375000D01*
X131375000Y-117125000D02*
X131375000Y-116875000D01*
X125875000Y-91125000D02*
X126125000Y-91375000D01*
X131375000Y-88625000D02*
X131125000Y-88875000D01*
X131375000Y-131375000D02*
X131375000Y-131125000D01*
X149875000Y-92375000D02*
X149625000Y-92375000D01*
X131375000Y-97125000D02*
X131375000Y-96875000D01*
X132625000Y-144875000D02*
X132375000Y-144625000D01*
X131375000Y-96625000D02*
X131125000Y-96375000D01*
X131375000Y-133625000D02*
X131375000Y-133375000D01*
X133375000Y-86625000D02*
X133125000Y-86875000D01*
X128625000Y-93875000D02*
X128375000Y-93625000D01*
X131375000Y-121625000D02*
X131375000Y-121375000D01*
X131875000Y-144125000D02*
X131625000Y-143875000D01*
X137375000Y-86625000D02*
X137125000Y-86625000D01*
X126625000Y-91875000D02*
X126875000Y-92125000D01*
X163625000Y-92375000D02*
X163375000Y-92375000D01*
X132625000Y-87375000D02*
X132375000Y-87625000D01*
X147625000Y-92375000D02*
X147375000Y-92375000D01*
X131375000Y-123625000D02*
X131375000Y-123375000D01*
X127625000Y-92375000D02*
X127375000Y-92625000D01*
X131375000Y-138125000D02*
X131375000Y-137875000D01*
X161875000Y-92375000D02*
X161625000Y-92375000D01*
X164375000Y-92375000D02*
X164125000Y-92375000D01*
X131375000Y-113625000D02*
X131375000Y-113375000D01*
X125625000Y-90875000D02*
X125875000Y-91125000D01*
X131375000Y-135625000D02*
X131375000Y-135375000D01*
X151125000Y-92375000D02*
X150875000Y-92375000D01*
X131375000Y-142125000D02*
X131375000Y-141875000D01*
X131375000Y-104625000D02*
X131375000Y-104375000D01*
X131375000Y-126125000D02*
X131375000Y-125875000D01*
X131375000Y-105625000D02*
X131375000Y-105375000D01*
X152375000Y-92375000D02*
X152125000Y-92375000D01*
X131375000Y-137625000D02*
X131375000Y-137375000D01*
X131375000Y-101375000D02*
X131375000Y-101125000D01*
X131375000Y-118125000D02*
X131375000Y-117875000D01*
X140375000Y-86875000D02*
X140125000Y-86625000D01*
X130125000Y-95375000D02*
X129875000Y-95125000D01*
X155125000Y-92375000D02*
X154875000Y-92375000D01*
X164125000Y-92375000D02*
X163875000Y-92375000D01*
X131375000Y-126625000D02*
X131375000Y-126375000D01*
X131375000Y-140625000D02*
X131375000Y-140375000D01*
X131375000Y-125875000D02*
X131375000Y-125625000D01*
X131375000Y-120375000D02*
X131375000Y-120125000D01*
X165625000Y-92375000D02*
X165375000Y-92375000D01*
X160125000Y-90625000D02*
X160125000Y-90875000D01*
X129875000Y-90125000D02*
X129625000Y-90375000D01*
X160125000Y-88625000D02*
X160125000Y-88875000D01*
X131375000Y-138875000D02*
X131375000Y-138625000D01*
X160190000Y-87000000D02*
X160125000Y-87125000D01*
X160125000Y-92125000D02*
X160125000Y-92375000D01*
X159875000Y-92375000D02*
X159625000Y-92375000D01*
X131375000Y-132625000D02*
X131375000Y-132375000D01*
X141375000Y-87875000D02*
X141125000Y-87625000D01*
X131625000Y-88375000D02*
X131375000Y-88625000D01*
X140625000Y-87125000D02*
X140375000Y-86875000D01*
X131375000Y-114875000D02*
X131375000Y-114625000D01*
X131375000Y-125375000D02*
X131375000Y-125125000D01*
X149625000Y-92375000D02*
X149375000Y-92375000D01*
X131375000Y-104875000D02*
X131375000Y-104625000D01*
X151875000Y-92375000D02*
X151625000Y-92375000D01*
X131625000Y-143875000D02*
X131375000Y-143625000D01*
X131375000Y-135875000D02*
X131375000Y-135625000D01*
X163875000Y-92375000D02*
X163625000Y-92375000D01*
X131375000Y-110875000D02*
X131375000Y-110625000D01*
X131375000Y-134125000D02*
X131375000Y-133875000D01*
X131375000Y-113375000D02*
X131375000Y-113125000D01*
X131375000Y-112125000D02*
X131375000Y-111875000D01*
X131375000Y-99375000D02*
X131375000Y-99125000D01*
X128125000Y-93375000D02*
X127875000Y-93125000D01*
X139125000Y-86625000D02*
X138875000Y-86625000D01*
X133125000Y-145875000D02*
X133125000Y-145625000D01*
X131375000Y-117625000D02*
X131375000Y-117375000D01*
X131375000Y-128625000D02*
X131375000Y-128375000D01*
X131375000Y-124625000D02*
X131375000Y-124375000D01*
X153375000Y-92375000D02*
X153125000Y-92375000D01*
X131375000Y-141375000D02*
X131375000Y-141125000D01*
X131375000Y-140125000D02*
X131375000Y-139875000D01*
X131375000Y-131125000D02*
X131375000Y-130875000D01*
X156625000Y-92375000D02*
X156375000Y-92375000D01*
X147375000Y-92375000D02*
X147125000Y-92375000D01*
X139625000Y-86625000D02*
X139375000Y-86625000D01*
X133000000Y-146000000D02*
X133125000Y-146125000D01*
X147125000Y-92375000D02*
X146875000Y-92375000D01*
X144375000Y-90875000D02*
X144125000Y-90625000D01*
X124125000Y-89375000D02*
X124375000Y-89625000D01*
X146625000Y-92375000D02*
X146375000Y-92375000D01*
X131375000Y-113875000D02*
X131375000Y-113625000D01*
X160125000Y-90125000D02*
X160125000Y-90375000D01*
X131375000Y-129375000D02*
X131375000Y-129125000D01*
X131375000Y-98875000D02*
X131375000Y-98625000D01*
X127875000Y-93125000D02*
X127625000Y-92875000D01*
X160125000Y-88125000D02*
X160125000Y-88375000D01*
X131375000Y-98125000D02*
X131375000Y-97875000D01*
X131375000Y-132375000D02*
X131375000Y-132125000D01*
X131375000Y-127875000D02*
X131375000Y-127625000D01*
X142375000Y-88875000D02*
X142125000Y-88625000D01*
X131375000Y-111375000D02*
X131375000Y-111125000D01*
X138125000Y-86625000D02*
X137875000Y-86625000D01*
X131375000Y-133875000D02*
X131375000Y-133625000D01*
X131375000Y-122125000D02*
X131375000Y-121875000D01*
X131375000Y-120125000D02*
X131375000Y-119875000D01*
X157375000Y-92375000D02*
X157125000Y-92375000D01*
X160125000Y-87125000D02*
X160125000Y-87375000D01*
X131375000Y-130125000D02*
X131375000Y-129875000D01*
X130875000Y-96125000D02*
X130625000Y-95875000D01*
X131375000Y-129625000D02*
X131375000Y-129375000D01*
X158625000Y-92375000D02*
X158375000Y-92375000D01*
X166375000Y-92375000D02*
X166125000Y-92375000D01*
X130125000Y-89875000D02*
X129875000Y-90125000D01*
X131375000Y-121125000D02*
X131375000Y-120875000D01*
X131375000Y-118375000D02*
X131375000Y-118125000D01*
X154375000Y-92375000D02*
X154125000Y-92375000D01*
X122875000Y-88125000D02*
X123125000Y-88375000D01*
X131375000Y-101125000D02*
X131375000Y-100875000D01*
X131375000Y-143625000D02*
X131375000Y-143375000D01*
X153625000Y-92375000D02*
X153375000Y-92375000D01*
X160125000Y-88875000D02*
X160125000Y-89125000D01*
X151375000Y-92375000D02*
X151125000Y-92375000D01*
X133625000Y-86625000D02*
X133375000Y-86625000D01*
X131375000Y-101625000D02*
X131375000Y-101375000D01*
X131375000Y-134625000D02*
X131375000Y-134375000D01*
X152875000Y-92375000D02*
X152625000Y-92375000D01*
X131375000Y-135125000D02*
X131375000Y-134875000D01*
X131375000Y-124875000D02*
X131375000Y-124625000D01*
X160875000Y-92375000D02*
X160625000Y-92375000D01*
X132375000Y-144625000D02*
X132125000Y-144375000D01*
X131375000Y-110125000D02*
X131375000Y-109875000D01*
X130875000Y-89125000D02*
X130625000Y-89375000D01*
X146875000Y-92375000D02*
X146625000Y-92375000D01*
X131375000Y-108375000D02*
X131375000Y-108125000D01*
X135875000Y-86625000D02*
X135625000Y-86625000D01*
X145625000Y-92125000D02*
X145375000Y-91875000D01*
X145875000Y-92375000D02*
X145625000Y-92125000D01*
X131375000Y-114125000D02*
X131375000Y-113875000D01*
X131375000Y-109375000D02*
X131375000Y-109125000D01*
X131375000Y-102625000D02*
X131375000Y-102375000D01*
X144875000Y-91375000D02*
X144625000Y-91125000D01*
X121125000Y-87125000D02*
X121375000Y-87125000D01*
X131375000Y-136125000D02*
X131375000Y-135875000D01*
X131375000Y-119625000D02*
X131375000Y-119375000D01*
X131125000Y-96375000D02*
X130875000Y-96125000D01*
X131375000Y-126375000D02*
X131375000Y-126125000D01*
X131375000Y-108875000D02*
X131375000Y-108625000D01*
X133125000Y-86875000D02*
X132875000Y-87125000D01*
X131375000Y-129125000D02*
X131375000Y-128875000D01*
X131375000Y-103125000D02*
X131375000Y-102875000D01*
X131375000Y-115125000D02*
X131375000Y-114875000D01*
X131375000Y-120875000D02*
X131375000Y-120625000D01*
X131375000Y-120625000D02*
X131375000Y-120375000D01*
X130625000Y-95875000D02*
X130375000Y-95625000D01*
X136875000Y-86625000D02*
X136625000Y-86625000D01*
X132125000Y-87875000D02*
X131875000Y-88125000D01*
X159625000Y-92375000D02*
X159375000Y-92375000D01*
X121000000Y-87000000D02*
X121125000Y-87125000D01*
X143875000Y-90375000D02*
X143625000Y-90125000D01*
X130375000Y-95625000D02*
X130125000Y-95375000D01*
X152625000Y-92375000D02*
X152375000Y-92375000D01*
X131375000Y-138375000D02*
X131375000Y-138125000D01*
X128875000Y-94125000D02*
X128625000Y-93875000D01*
X131375000Y-128875000D02*
X131375000Y-128625000D01*
X141125000Y-87625000D02*
X140875000Y-87375000D01*
X131375000Y-110375000D02*
X131375000Y-110125000D01*
X131375000Y-100875000D02*
X131375000Y-100625000D01*
X131375000Y-114375000D02*
X131375000Y-114125000D01*
X131375000Y-104375000D02*
X131375000Y-104125000D01*
X160125000Y-91875000D02*
X160125000Y-92125000D01*
X160125000Y-91625000D02*
X160125000Y-91875000D01*
X131375000Y-100375000D02*
X131375000Y-100125000D01*
X136125000Y-86625000D02*
X135875000Y-86625000D01*
X131375000Y-121875000D02*
X131375000Y-121625000D01*
X160125000Y-89125000D02*
X160125000Y-89375000D01*
X145125000Y-91625000D02*
X144875000Y-91375000D01*
X160125000Y-91375000D02*
X160125000Y-91625000D01*
X163125000Y-92375000D02*
X162875000Y-92375000D01*
X130625000Y-89375000D02*
X130375000Y-89625000D01*
X126375000Y-91625000D02*
X126625000Y-91875000D01*
X143625000Y-90125000D02*
X143375000Y-89875000D01*
X131375000Y-129875000D02*
X131375000Y-129625000D01*
X123125000Y-88375000D02*
X123375000Y-88625000D01*
X136625000Y-86625000D02*
X136375000Y-86625000D01*
X131375000Y-142625000D02*
X131375000Y-142375000D01*
X128375000Y-91625000D02*
X128125000Y-91875000D01*
X132125000Y-144375000D02*
X131875000Y-144125000D01*
X128125000Y-91875000D02*
X127875000Y-92125000D01*
X131375000Y-100125000D02*
X131375000Y-99875000D01*
X131375000Y-107625000D02*
X131375000Y-107375000D01*
X131375000Y-102125000D02*
X131375000Y-101875000D01*
X133125000Y-146125000D02*
X133125000Y-145875000D01*
X129125000Y-94375000D02*
X128875000Y-94125000D01*
X131375000Y-123125000D02*
X131375000Y-122875000D01*
X140000000Y-86500000D02*
X140125000Y-86625000D01*
X131375000Y-131875000D02*
X131375000Y-131625000D01*
X131375000Y-112375000D02*
X131375000Y-112125000D01*
X138375000Y-86625000D02*
X138125000Y-86625000D01*
X131375000Y-124125000D02*
X131375000Y-123875000D01*
X131375000Y-126875000D02*
X131375000Y-126625000D01*
X164625000Y-92375000D02*
X164375000Y-92375000D01*
X134125000Y-86625000D02*
X133875000Y-86625000D01*
X154875000Y-92375000D02*
X154625000Y-92375000D01*
X131375000Y-106375000D02*
X131375000Y-106125000D01*
X124875000Y-90125000D02*
X125125000Y-90375000D01*
X160125000Y-87875000D02*
X160125000Y-88125000D01*
X131375000Y-104125000D02*
X131375000Y-103875000D01*
X131375000Y-103875000D02*
X131375000Y-103625000D01*
X154625000Y-92375000D02*
X154375000Y-92375000D01*
X131375000Y-105375000D02*
X131375000Y-105125000D01*
X131375000Y-110625000D02*
X131375000Y-110375000D01*
X131375000Y-116875000D02*
X131375000Y-116625000D01*
X129875000Y-95125000D02*
X129625000Y-94875000D01*
X153125000Y-92375000D02*
X152875000Y-92375000D01*
X141875000Y-88375000D02*
X141625000Y-88125000D01*
X162375000Y-92375000D02*
X162125000Y-92375000D01*
X153875000Y-92375000D02*
X153625000Y-92375000D01*
X147875000Y-92375000D02*
X147625000Y-92375000D01*
X131375000Y-106625000D02*
X131375000Y-106375000D01*
X128625000Y-91375000D02*
X128375000Y-91625000D01*
X147125000Y-92625000D02*
X147125000Y-92375000D01*
X122125000Y-87375000D02*
X122375000Y-87625000D01*
X131375000Y-109125000D02*
X131375000Y-108875000D01*
X131375000Y-123375000D02*
X131375000Y-123125000D01*
X129125000Y-90875000D02*
X128875000Y-91125000D01*
X142625000Y-89125000D02*
X142375000Y-88875000D01*
X144625000Y-91125000D02*
X144375000Y-90875000D01*
X141625000Y-88125000D02*
X141375000Y-87875000D01*
X166350000Y-92460000D02*
X166375000Y-92375000D01*
X131375000Y-142875000D02*
X131375000Y-142625000D01*
X131375000Y-118875000D02*
X131375000Y-118625000D01*
X131375000Y-143125000D02*
X131375000Y-142875000D01*
X131375000Y-115625000D02*
X131375000Y-115375000D01*
X131375000Y-106125000D02*
X131375000Y-105875000D01*
X132375000Y-87625000D02*
X132125000Y-87875000D01*
X131375000Y-122875000D02*
X131375000Y-122625000D01*
X139875000Y-86625000D02*
X139625000Y-86625000D01*
X148875000Y-92375000D02*
X148625000Y-92375000D01*
X131375000Y-140875000D02*
X131375000Y-140625000D01*
X130375000Y-89625000D02*
X130125000Y-89875000D01*
X131375000Y-96875000D02*
X131375000Y-96625000D01*
X131375000Y-122625000D02*
X131375000Y-122375000D01*
X131375000Y-141125000D02*
X131375000Y-140875000D01*
X131375000Y-112625000D02*
X131375000Y-112375000D01*
X123625000Y-88875000D02*
X123875000Y-89125000D01*
X131375000Y-139375000D02*
X131375000Y-139125000D01*
X131375000Y-116375000D02*
X131375000Y-116125000D01*
X127625000Y-92875000D02*
X127375000Y-92625000D01*
X131375000Y-117875000D02*
X131375000Y-117625000D01*
X131375000Y-97875000D02*
X131375000Y-97625000D01*
X131375000Y-115875000D02*
X131375000Y-115625000D01*
X131375000Y-125125000D02*
X131375000Y-124875000D01*
X131375000Y-138625000D02*
X131375000Y-138375000D01*
X131375000Y-97375000D02*
X131375000Y-97125000D01*
X134375000Y-86625000D02*
X134125000Y-86625000D01*
X133875000Y-86625000D02*
X133625000Y-86625000D01*
X158125000Y-92375000D02*
X157875000Y-92375000D01*
X160125000Y-91125000D02*
X160125000Y-91375000D01*
X131375000Y-139625000D02*
X131375000Y-139375000D01*
X131375000Y-130875000D02*
X131375000Y-130625000D01*
X142875000Y-89375000D02*
X142625000Y-89125000D01*
X131375000Y-112875000D02*
X131375000Y-112625000D01*
X131375000Y-127125000D02*
X131375000Y-126875000D01*
X164875000Y-92375000D02*
X164625000Y-92375000D01*
X150125000Y-92375000D02*
X149875000Y-92375000D01*
X137125000Y-86625000D02*
X136875000Y-86625000D01*
X131375000Y-135375000D02*
X131375000Y-135125000D01*
X132875000Y-87125000D02*
X132625000Y-87375000D01*
X131375000Y-103625000D02*
X131375000Y-103375000D01*
X161375000Y-92375000D02*
X161125000Y-92375000D01*
X131375000Y-121375000D02*
X131375000Y-121125000D01*
X131375000Y-132125000D02*
X131375000Y-131875000D01*
X131375000Y-107875000D02*
X131375000Y-107625000D01*
X147000000Y-92500000D02*
X147125000Y-92625000D01*
X131375000Y-137875000D02*
X131375000Y-137625000D01*
X137625000Y-86625000D02*
X137375000Y-86625000D01*
X131375000Y-137375000D02*
X131375000Y-137125000D01*
X131375000Y-131625000D02*
X131375000Y-131375000D01*
X131375000Y-125625000D02*
X131375000Y-125375000D01*
X131375000Y-130375000D02*
X131375000Y-130125000D01*
X129625000Y-90375000D02*
X129375000Y-90625000D01*
X131375000Y-98625000D02*
X131375000Y-98375000D01*
X131375000Y-133375000D02*
X131375000Y-133125000D01*
X128875000Y-91125000D02*
X128625000Y-91375000D01*
X165375000Y-92375000D02*
X165125000Y-92375000D01*
X131375000Y-114625000D02*
X131375000Y-114375000D01*
X143125000Y-89625000D02*
X142875000Y-89375000D01*
X131375000Y-99625000D02*
X131375000Y-99375000D01*
X124625000Y-89875000D02*
X124875000Y-90125000D01*
X121875000Y-87125000D02*
X122125000Y-87375000D01*
X131375000Y-132875000D02*
X131375000Y-132625000D01*
X131375000Y-139125000D02*
X131375000Y-138875000D01*
X152125000Y-92375000D02*
X151875000Y-92375000D01*
X131375000Y-111625000D02*
X131375000Y-111375000D01*
X159375000Y-92375000D02*
X159125000Y-92375000D01*
X131375000Y-115375000D02*
X131375000Y-115125000D01*
X129375000Y-94625000D02*
X129125000Y-94375000D01*
X131375000Y-136625000D02*
X131375000Y-136375000D01*
X127875000Y-92125000D02*
X127625000Y-92375000D01*
X131375000Y-106875000D02*
X131375000Y-106625000D01*
X160375000Y-92375000D02*
X160125000Y-92375000D01*
X138625000Y-86625000D02*
X138375000Y-86625000D01*
X160125000Y-89375000D02*
X160125000Y-89625000D01*
X150875000Y-92375000D02*
X150625000Y-92375000D01*
X160125000Y-89625000D02*
X160125000Y-89875000D01*
X136375000Y-86625000D02*
X136125000Y-86625000D01*
X135125000Y-86625000D02*
X134875000Y-86625000D01*
X160125000Y-90875000D02*
X160125000Y-91125000D01*
X160125000Y-92375000D02*
X159875000Y-92375000D01*
X131375000Y-98375000D02*
X131375000Y-98125000D01*
X135625000Y-86625000D02*
X135375000Y-86625000D01*
X122625000Y-87875000D02*
X122875000Y-88125000D01*
X160125000Y-87625000D02*
X160125000Y-87875000D01*
X131375000Y-136375000D02*
X131375000Y-136125000D01*
X121625000Y-87125000D02*
X121875000Y-87125000D01*
X133125000Y-145625000D02*
X133125000Y-145375000D01*
X161625000Y-92375000D02*
X161375000Y-92375000D01*
X158875000Y-92375000D02*
X158625000Y-92375000D01*
X131375000Y-113125000D02*
X131375000Y-112875000D01*
X131375000Y-105125000D02*
X131375000Y-104875000D01*
X131375000Y-97625000D02*
X131375000Y-97375000D01*
X131375000Y-143375000D02*
X131375000Y-143125000D01*
X131375000Y-141625000D02*
X131375000Y-141375000D01*
%TO.N,Net-(D2-A)*%
X121875000Y-98125000D02*
X121625000Y-97875000D01*
X121125000Y-96375000D02*
X121125000Y-96125000D01*
X122375000Y-98625000D02*
X122125000Y-98375000D01*
X121125000Y-95875000D02*
X121125000Y-95625000D01*
X121125000Y-97375000D02*
X121125000Y-97125000D01*
X127125000Y-103375000D02*
X126875000Y-103125000D01*
X126375000Y-102625000D02*
X126125000Y-102375000D01*
X128620000Y-106000000D02*
X128625000Y-106125000D01*
X128625000Y-106125000D02*
X128625000Y-105875000D01*
X124375000Y-100625000D02*
X124125000Y-100375000D01*
X121125000Y-95375000D02*
X121125000Y-95125000D01*
X127875000Y-104125000D02*
X127625000Y-103875000D01*
X125625000Y-101875000D02*
X125375000Y-101625000D01*
X125125000Y-101375000D02*
X124875000Y-101125000D01*
X128125000Y-104375000D02*
X127875000Y-104125000D01*
X127375000Y-103625000D02*
X127125000Y-103375000D01*
X124875000Y-101125000D02*
X124625000Y-100875000D01*
X122875000Y-99125000D02*
X122625000Y-98875000D01*
X128375000Y-104625000D02*
X128125000Y-104375000D01*
X125875000Y-102125000D02*
X125625000Y-101875000D01*
X126625000Y-102875000D02*
X126375000Y-102625000D01*
X126875000Y-103125000D02*
X126625000Y-102875000D01*
X124625000Y-100875000D02*
X124375000Y-100625000D01*
X127625000Y-103875000D02*
X127375000Y-103625000D01*
X128625000Y-105625000D02*
X128625000Y-105375000D01*
X121125000Y-95625000D02*
X121125000Y-95375000D01*
X128625000Y-104875000D02*
X128375000Y-104625000D01*
X121375000Y-97625000D02*
X121125000Y-97375000D01*
X128625000Y-105375000D02*
X128625000Y-105125000D01*
X125375000Y-101625000D02*
X125125000Y-101375000D01*
X121125000Y-96125000D02*
X121125000Y-95875000D01*
X126125000Y-102375000D02*
X125875000Y-102125000D01*
X121125000Y-96875000D02*
X121125000Y-96625000D01*
X121125000Y-97125000D02*
X121125000Y-96875000D01*
X123125000Y-99375000D02*
X122875000Y-99125000D01*
X122125000Y-98375000D02*
X121875000Y-98125000D01*
X121125000Y-96625000D02*
X121125000Y-96375000D01*
X128625000Y-105875000D02*
X128625000Y-105625000D01*
X123375000Y-99625000D02*
X123125000Y-99375000D01*
X123875000Y-100125000D02*
X123625000Y-99875000D01*
X124125000Y-100375000D02*
X123875000Y-100125000D01*
X123625000Y-99875000D02*
X123375000Y-99625000D01*
X122625000Y-98875000D02*
X122375000Y-98625000D01*
X128625000Y-105125000D02*
X128625000Y-104875000D01*
X121625000Y-97875000D02*
X121375000Y-97625000D01*
%TO.N,/ROW1*%
X136835000Y-138420000D02*
X133000000Y-138400000D01*
%TO.N,Net-(D1-A)*%
X121375000Y-77375000D02*
X121375000Y-77125000D01*
X126375000Y-83625000D02*
X126125000Y-83375000D01*
X126625000Y-83875000D02*
X126375000Y-83625000D01*
X127375000Y-84625000D02*
X127125000Y-84375000D01*
X121375000Y-76625000D02*
X121375000Y-76375000D01*
X128375000Y-85625000D02*
X128125000Y-85375000D01*
X128625000Y-85875000D02*
X128375000Y-85625000D01*
X127875000Y-85125000D02*
X127625000Y-84875000D01*
X128625000Y-87125000D02*
X128625000Y-86875000D01*
X122125000Y-79375000D02*
X121875000Y-79125000D01*
X124875000Y-82125000D02*
X124625000Y-81875000D01*
X121625000Y-78875000D02*
X121375000Y-78625000D01*
X121375000Y-76375000D02*
X121375000Y-76125000D01*
X128125000Y-85375000D02*
X127875000Y-85125000D01*
X121375000Y-77625000D02*
X121375000Y-77375000D01*
X127125000Y-84375000D02*
X126875000Y-84125000D01*
X125125000Y-82375000D02*
X124875000Y-82125000D01*
X124625000Y-81875000D02*
X124375000Y-81625000D01*
X121375000Y-77875000D02*
X121375000Y-77625000D01*
X127625000Y-84875000D02*
X127375000Y-84625000D01*
X124125000Y-81375000D02*
X123875000Y-81125000D01*
X126875000Y-84125000D02*
X126625000Y-83875000D01*
X121375000Y-77125000D02*
X121375000Y-76875000D01*
X121375000Y-76125000D02*
X121125000Y-75875000D01*
X121375000Y-78125000D02*
X121375000Y-77875000D01*
X128625000Y-86375000D02*
X128625000Y-86125000D01*
X128620000Y-87000000D02*
X128625000Y-87125000D01*
X123375000Y-80625000D02*
X123125000Y-80375000D01*
X121375000Y-76875000D02*
X121375000Y-76625000D01*
X125375000Y-82625000D02*
X125125000Y-82375000D01*
X123875000Y-81125000D02*
X123625000Y-80875000D01*
X125625000Y-82875000D02*
X125375000Y-82625000D01*
X122375000Y-79625000D02*
X122125000Y-79375000D01*
X122875000Y-80125000D02*
X122625000Y-79875000D01*
X128625000Y-86875000D02*
X128625000Y-86625000D01*
X125875000Y-83125000D02*
X125625000Y-82875000D01*
X123125000Y-80375000D02*
X122875000Y-80125000D01*
X121875000Y-79125000D02*
X121625000Y-78875000D01*
X121375000Y-78375000D02*
X121375000Y-78125000D01*
X126125000Y-83375000D02*
X125875000Y-83125000D01*
X123625000Y-80875000D02*
X123375000Y-80625000D01*
X128625000Y-86125000D02*
X128625000Y-85875000D01*
X128625000Y-86625000D02*
X128625000Y-86375000D01*
X122625000Y-79875000D02*
X122375000Y-79625000D01*
X121375000Y-78625000D02*
X121375000Y-78375000D01*
X124375000Y-81625000D02*
X124125000Y-81375000D01*
%TO.N,/ROW2*%
X136835000Y-140960000D02*
X133000000Y-141000000D01*
%TO.N,/ROW3*%
X134375000Y-143375000D02*
X134125000Y-143625000D01*
X134625000Y-143125000D02*
X134375000Y-143375000D01*
X133875000Y-143625000D02*
X133625000Y-143625000D01*
X134875000Y-142875000D02*
X134625000Y-143125000D01*
X134125000Y-143625000D02*
X133875000Y-143625000D01*
X136835000Y-143500000D02*
X133000000Y-143500000D01*
X133625000Y-143625000D02*
X133375000Y-143625000D01*
X133375000Y-143625000D02*
X133125000Y-143625000D01*
%TO.N,/COL3*%
X154875000Y-130875000D02*
X154625000Y-131125000D01*
X151125000Y-139875000D02*
X151125000Y-140125000D01*
X151125000Y-142625000D02*
X151125000Y-142875000D01*
X156375000Y-129375000D02*
X156125000Y-129625000D01*
X151875000Y-145625000D02*
X152125000Y-145875000D01*
X150375000Y-133875000D02*
X150625000Y-134125000D01*
X151125000Y-135125000D02*
X151125000Y-135375000D01*
X151125000Y-135625000D02*
X151125000Y-135875000D01*
X144625000Y-128125000D02*
X144875000Y-128375000D01*
X144375000Y-127875000D02*
X144625000Y-128125000D01*
X151375000Y-145125000D02*
X151625000Y-145375000D01*
X159125000Y-126625000D02*
X158875000Y-126875000D01*
X142125000Y-125625000D02*
X142375000Y-125875000D01*
X145625000Y-129125000D02*
X145875000Y-129375000D01*
X153000000Y-146040000D02*
X156500000Y-146000000D01*
X152875000Y-146125000D02*
X153125000Y-146125000D01*
X151125000Y-141125000D02*
X151125000Y-141375000D01*
X139125000Y-126375000D02*
X139375000Y-126375000D01*
X134375000Y-126375000D02*
X134625000Y-126375000D01*
X150625000Y-134125000D02*
X150875000Y-134375000D01*
X157375000Y-128375000D02*
X157125000Y-128625000D01*
X149625000Y-133125000D02*
X149875000Y-133375000D01*
X151125000Y-144625000D02*
X151125000Y-144875000D01*
X144875000Y-128375000D02*
X145125000Y-128625000D01*
X141125000Y-125125000D02*
X141375000Y-125125000D01*
X148625000Y-132125000D02*
X148875000Y-132375000D01*
X151125000Y-138125000D02*
X151125000Y-138375000D01*
X159625000Y-126125000D02*
X159375000Y-126375000D01*
X157625000Y-128125000D02*
X157375000Y-128375000D01*
X151125000Y-137875000D02*
X151125000Y-138125000D01*
X135375000Y-126375000D02*
X135625000Y-126375000D01*
X138625000Y-126375000D02*
X138875000Y-126375000D01*
X146875000Y-130375000D02*
X147125000Y-130625000D01*
X147375000Y-130875000D02*
X147625000Y-131125000D01*
X154625000Y-131125000D02*
X154375000Y-131375000D01*
X135625000Y-126375000D02*
X135875000Y-126375000D01*
X151125000Y-136375000D02*
X151125000Y-136625000D01*
X151125000Y-140875000D02*
X151125000Y-141125000D01*
X155375000Y-146125000D02*
X155625000Y-146125000D01*
X136625000Y-126375000D02*
X136875000Y-126375000D01*
X156125000Y-146125000D02*
X156375000Y-146125000D01*
X160125000Y-125625000D02*
X159875000Y-125875000D01*
X139875000Y-126375000D02*
X140125000Y-126125000D01*
X151125000Y-140375000D02*
X151125000Y-140625000D01*
X153875000Y-131875000D02*
X153625000Y-132125000D01*
X153125000Y-132625000D02*
X152875000Y-132875000D01*
X140625000Y-125625000D02*
X140875000Y-125375000D01*
X132375000Y-126375000D02*
X132625000Y-126375000D01*
X160125000Y-125375000D02*
X160125000Y-125625000D01*
X142625000Y-126125000D02*
X142875000Y-126375000D01*
X151125000Y-141875000D02*
X151125000Y-142125000D01*
X135125000Y-126375000D02*
X135375000Y-126375000D01*
X142375000Y-125875000D02*
X142625000Y-126125000D01*
X158125000Y-127625000D02*
X157875000Y-127875000D01*
X149375000Y-132875000D02*
X149625000Y-133125000D01*
X134625000Y-126375000D02*
X134875000Y-126375000D01*
X151125000Y-137375000D02*
X151125000Y-137625000D01*
X151125000Y-143375000D02*
X151125000Y-143625000D01*
X143125000Y-126625000D02*
X143375000Y-126875000D01*
X145875000Y-129375000D02*
X146125000Y-129625000D01*
X156375000Y-146125000D02*
X156625000Y-146125000D01*
X153375000Y-146125000D02*
X153625000Y-146125000D01*
X151125000Y-144875000D02*
X151375000Y-145125000D01*
X151125000Y-142375000D02*
X151125000Y-142625000D01*
X132875000Y-126375000D02*
X133125000Y-126375000D01*
X151125000Y-139375000D02*
X151125000Y-139625000D01*
X137125000Y-126375000D02*
X137375000Y-126375000D01*
X153625000Y-132125000D02*
X153375000Y-132375000D01*
X151625000Y-134125000D02*
X151375000Y-134375000D01*
X136125000Y-126375000D02*
X136375000Y-126375000D01*
X151125000Y-138875000D02*
X151125000Y-139125000D01*
X151125000Y-141625000D02*
X151125000Y-141875000D01*
X152625000Y-133125000D02*
X152375000Y-133375000D01*
X155125000Y-130625000D02*
X154875000Y-130875000D01*
X153125000Y-146125000D02*
X153375000Y-146125000D01*
X151125000Y-135375000D02*
X151125000Y-135625000D01*
X154375000Y-146125000D02*
X154625000Y-146125000D01*
X155375000Y-130375000D02*
X155125000Y-130625000D01*
X134875000Y-126375000D02*
X135125000Y-126375000D01*
X144125000Y-127625000D02*
X144375000Y-127875000D01*
X152375000Y-133375000D02*
X152125000Y-133625000D01*
X139625000Y-126375000D02*
X139875000Y-126375000D01*
X149125000Y-132625000D02*
X149375000Y-132875000D01*
X133625000Y-126375000D02*
X133875000Y-126375000D01*
X157875000Y-127875000D02*
X157625000Y-128125000D01*
X151125000Y-138375000D02*
X151125000Y-138625000D01*
X151125000Y-140125000D02*
X151125000Y-140375000D01*
X145125000Y-128625000D02*
X145375000Y-128875000D01*
X154125000Y-131625000D02*
X153875000Y-131875000D01*
X151125000Y-140625000D02*
X151125000Y-140875000D01*
X151125000Y-136875000D02*
X151125000Y-137125000D01*
X154375000Y-131375000D02*
X154125000Y-131625000D01*
X151125000Y-144375000D02*
X151125000Y-144625000D01*
X151125000Y-143125000D02*
X151125000Y-143375000D01*
X141875000Y-125375000D02*
X142125000Y-125625000D01*
X151125000Y-136125000D02*
X151125000Y-136375000D01*
X151125000Y-134875000D02*
X151125000Y-135125000D01*
X150125000Y-133625000D02*
X150375000Y-133875000D01*
X153625000Y-146125000D02*
X153875000Y-146125000D01*
X141625000Y-125125000D02*
X141875000Y-125375000D01*
X147625000Y-131125000D02*
X147875000Y-131375000D01*
X143375000Y-126875000D02*
X143625000Y-127125000D01*
X151625000Y-145375000D02*
X151875000Y-145625000D01*
X148375000Y-131875000D02*
X148625000Y-132125000D01*
X152125000Y-145875000D02*
X152375000Y-146125000D01*
X146625000Y-130125000D02*
X146875000Y-130375000D01*
X151125000Y-144125000D02*
X151125000Y-144375000D01*
X137375000Y-126375000D02*
X137625000Y-126375000D01*
X160190000Y-125000000D02*
X160125000Y-125125000D01*
X155875000Y-129875000D02*
X155625000Y-130125000D01*
X147875000Y-131375000D02*
X148125000Y-131625000D01*
X157125000Y-128625000D02*
X156875000Y-128875000D01*
X160125000Y-125125000D02*
X160125000Y-125375000D01*
X155625000Y-146125000D02*
X155875000Y-146125000D01*
X154625000Y-146125000D02*
X154875000Y-146125000D01*
X140875000Y-125375000D02*
X141125000Y-125125000D01*
X151125000Y-137625000D02*
X151125000Y-137875000D01*
X137625000Y-126375000D02*
X137875000Y-126375000D01*
X152125000Y-133625000D02*
X151875000Y-133875000D01*
X158625000Y-127125000D02*
X158375000Y-127375000D01*
X151125000Y-142125000D02*
X151125000Y-142375000D01*
X148125000Y-131625000D02*
X148375000Y-131875000D01*
X149875000Y-133375000D02*
X150125000Y-133625000D01*
X154875000Y-146125000D02*
X155125000Y-146125000D01*
X139375000Y-126375000D02*
X139625000Y-126375000D01*
X151125000Y-137125000D02*
X151125000Y-137375000D01*
X151125000Y-138625000D02*
X151125000Y-138875000D01*
X151125000Y-134625000D02*
X151125000Y-134875000D01*
X146375000Y-129875000D02*
X146625000Y-130125000D01*
X152375000Y-146125000D02*
X152625000Y-146125000D01*
X151125000Y-141375000D02*
X151125000Y-141625000D01*
X131875000Y-126375000D02*
X132125000Y-126375000D01*
X156125000Y-129625000D02*
X155875000Y-129875000D01*
X138375000Y-126375000D02*
X138625000Y-126375000D01*
X153875000Y-146125000D02*
X154125000Y-146125000D01*
X133875000Y-126375000D02*
X134125000Y-126375000D01*
X146125000Y-129625000D02*
X146375000Y-129875000D01*
X134125000Y-126375000D02*
X134375000Y-126375000D01*
X155875000Y-146125000D02*
X156125000Y-146125000D01*
X135875000Y-126375000D02*
X136125000Y-126375000D01*
X159375000Y-126375000D02*
X159125000Y-126625000D01*
X147125000Y-130625000D02*
X147375000Y-130875000D01*
X155125000Y-146125000D02*
X155375000Y-146125000D01*
X136375000Y-126375000D02*
X136625000Y-126375000D01*
X153375000Y-132375000D02*
X153125000Y-132625000D01*
X152875000Y-132875000D02*
X152625000Y-133125000D01*
X151125000Y-142875000D02*
X151125000Y-143125000D01*
X132125000Y-126375000D02*
X132375000Y-126375000D01*
X156625000Y-129125000D02*
X156375000Y-129375000D01*
X151375000Y-134375000D02*
X151125000Y-134625000D01*
X156875000Y-128875000D02*
X156625000Y-129125000D01*
X133125000Y-126375000D02*
X133375000Y-126375000D01*
X151125000Y-136625000D02*
X151125000Y-136875000D01*
X132625000Y-126375000D02*
X132875000Y-126375000D01*
X143875000Y-127375000D02*
X144125000Y-127625000D01*
X151125000Y-143625000D02*
X151125000Y-143875000D01*
X151125000Y-139625000D02*
X151125000Y-139875000D01*
X159875000Y-125875000D02*
X159625000Y-126125000D01*
X140375000Y-125875000D02*
X140625000Y-125625000D01*
X137875000Y-126375000D02*
X138125000Y-126375000D01*
X138875000Y-126375000D02*
X139125000Y-126375000D01*
X145375000Y-128875000D02*
X145625000Y-129125000D01*
X141190000Y-125000000D02*
X141125000Y-125125000D01*
X154125000Y-146125000D02*
X154375000Y-146125000D01*
X143625000Y-127125000D02*
X143875000Y-127375000D01*
X148875000Y-132375000D02*
X149125000Y-132625000D01*
X136875000Y-126375000D02*
X137125000Y-126375000D01*
X151125000Y-143875000D02*
X151125000Y-144125000D01*
X142875000Y-126375000D02*
X143125000Y-126625000D01*
X158875000Y-126875000D02*
X158625000Y-127125000D01*
X133375000Y-126375000D02*
X133625000Y-126375000D01*
X150875000Y-134375000D02*
X151125000Y-134625000D01*
X152625000Y-146125000D02*
X152875000Y-146125000D01*
X158375000Y-127375000D02*
X158125000Y-127625000D01*
X151125000Y-135875000D02*
X151125000Y-136125000D01*
X155625000Y-130125000D02*
X155375000Y-130375000D01*
X151875000Y-133875000D02*
X151625000Y-134125000D01*
X151125000Y-139125000D02*
X151125000Y-139375000D01*
X141375000Y-125125000D02*
X141625000Y-125125000D01*
X138125000Y-126375000D02*
X138375000Y-126375000D01*
X140125000Y-126125000D02*
X140375000Y-125875000D01*
%TO.N,Net-(D7-A)*%
X160125000Y-77875000D02*
X160125000Y-77625000D01*
X167375000Y-85625000D02*
X167125000Y-85375000D01*
X165125000Y-83375000D02*
X164875000Y-83125000D01*
X166875000Y-85125000D02*
X166625000Y-84875000D01*
X161125000Y-79375000D02*
X160875000Y-79125000D01*
X167875000Y-86625000D02*
X167875000Y-86375000D01*
X162875000Y-81125000D02*
X162625000Y-80875000D01*
X160125000Y-78125000D02*
X160125000Y-77875000D01*
X160875000Y-79125000D02*
X160625000Y-78875000D01*
X160125000Y-78375000D02*
X160125000Y-78125000D01*
X160125000Y-76625000D02*
X160125000Y-76375000D01*
X160125000Y-76875000D02*
X160125000Y-76625000D01*
X167875000Y-86125000D02*
X167625000Y-85875000D01*
X160125000Y-77625000D02*
X160125000Y-77375000D01*
X167625000Y-85875000D02*
X167375000Y-85625000D01*
X163375000Y-81625000D02*
X163125000Y-81375000D01*
X164125000Y-82375000D02*
X163875000Y-82125000D01*
X161875000Y-80125000D02*
X161625000Y-79875000D01*
X165625000Y-83875000D02*
X165375000Y-83625000D01*
X164375000Y-82625000D02*
X164125000Y-82375000D01*
X162625000Y-80875000D02*
X162375000Y-80625000D01*
X166625000Y-84875000D02*
X166375000Y-84625000D01*
X166375000Y-84625000D02*
X166125000Y-84375000D01*
X165375000Y-83625000D02*
X165125000Y-83375000D01*
X162125000Y-80375000D02*
X161875000Y-80125000D01*
X160625000Y-78875000D02*
X160375000Y-78625000D01*
X165875000Y-84125000D02*
X165625000Y-83875000D01*
X167875000Y-86375000D02*
X167875000Y-86125000D01*
X166125000Y-84375000D02*
X165875000Y-84125000D01*
X160125000Y-76375000D02*
X160125000Y-76125000D01*
X163625000Y-81875000D02*
X163375000Y-81625000D01*
X163875000Y-82125000D02*
X163625000Y-81875000D01*
X161625000Y-79875000D02*
X161375000Y-79625000D01*
X162375000Y-80625000D02*
X162125000Y-80375000D01*
X164875000Y-83125000D02*
X164625000Y-82875000D01*
X167875000Y-87125000D02*
X167875000Y-86875000D01*
X167875000Y-86875000D02*
X167875000Y-86625000D01*
X167125000Y-85375000D02*
X166875000Y-85125000D01*
X164625000Y-82875000D02*
X164375000Y-82625000D01*
X167810000Y-87000000D02*
X167875000Y-87125000D01*
X160375000Y-78625000D02*
X160125000Y-78375000D01*
X161375000Y-79625000D02*
X161125000Y-79375000D01*
X160125000Y-77375000D02*
X160125000Y-77125000D01*
X163125000Y-81375000D02*
X162875000Y-81125000D01*
X160125000Y-77125000D02*
X160125000Y-76875000D01*
%TD*%
M02*
